<?xml version="1.0" encoding="UTF-8" standalone="no"?>
<!-- Created with Inkscape (http://www.inkscape.org/) -->

<svg
   xmlns:dc="http://purl.org/dc/elements/1.1/"
   xmlns:cc="http://creativecommons.org/ns#"
   xmlns:rdf="http://www.w3.org/1999/02/22-rdf-syntax-ns#"
   xmlns:svg="http://www.w3.org/2000/svg"
   xmlns="http://www.w3.org/2000/svg"
   xmlns:sodipodi="http://sodipodi.sourceforge.net/DTD/sodipodi-0.dtd"
   xmlns:inkscape="http://www.inkscape.org/namespaces/inkscape"
   version="1.1"
   id="svg2"
   xml:space="preserve"
   width="864.66663"
   height="576.66663"
   viewBox="0 0 864.66663 576.66663"
   sodipodi:docname="attempt1.svg"
   inkscape:version="0.92.1 r"><metadata
     id="metadata8"><rdf:RDF><cc:Work
         rdf:about=""><dc:format>image/svg+xml</dc:format><dc:type
           rdf:resource="http://purl.org/dc/dcmitype/StillImage" /><dc:title></dc:title></cc:Work></rdf:RDF></metadata><defs
     id="defs6" /><sodipodi:namedview
     pagecolor="#ffffff"
     bordercolor="#666666"
     borderopacity="1"
     objecttolerance="10"
     gridtolerance="10"
     guidetolerance="10"
     inkscape:pageopacity="0"
     inkscape:pageshadow="2"
     inkscape:window-width="640"
     inkscape:window-height="480"
     id="namedview4"
     showgrid="false"
     fit-margin-top="0"
     fit-margin-left="0"
     fit-margin-right="0"
     fit-margin-bottom="0"
     inkscape:zoom="0.28921569"
     inkscape:cx="480.33331"
     inkscape:cy="312.33334"
     inkscape:window-x="0"
     inkscape:window-y="0"
     inkscape:window-maximized="0"
     inkscape:current-layer="g10" /><g
     id="g10"
     inkscape:groupmode="layer"
     inkscape:label="ink_ext_XXXXXX"
     transform="matrix(0,-1.3333333,-1.3333333,0,1008.3333,672.33332)"><g
       id="g12"
       transform="scale(0.1)"><path
         d="M 720,1080 H 5040 V 7560 H 720 Z"
         style="fill:none;stroke:#000000;stroke-width:5;stroke-linecap:butt;stroke-linejoin:miter;stroke-miterlimit:10;stroke-dasharray:none;stroke-opacity:1"
         id="path14"
         inkscape:connector-curvature="0" /><path
         d="m 4790,1130 h 200 v 6380 h -200 z"
         style="fill:none;stroke:#000000;stroke-width:5;stroke-linecap:butt;stroke-linejoin:miter;stroke-miterlimit:10;stroke-dasharray:none;stroke-opacity:1"
         id="path16"
         inkscape:connector-curvature="0" /><g
         id="g18"
         transform="scale(10)"><text
           transform="matrix(0,-1,-1,0,485,745)"
           style="font-variant:normal;font-weight:normal;font-size:12px;font-family:Helvetica;-inkscape-font-specification:Helvetica;writing-mode:lr-tb;fill:#000000;fill-opacity:1;fill-rule:nonzero;stroke:none"
           id="text22"><tspan
             x="0 6.6719999 10.008 13.344 20.016001 30.011999 36.683998 40.02 46.692001 50.028 56.700001 63.372002 66.708 73.379997 80.052002 83.388 90.059998 96.732002 100.068 107.076 115.74 123.072 131.076 134.412 138.408 145.08 229.95312 236.62512 243.29712 249.96912 253.30511 259.97711 266.64911 273.32111 276.65714 283.32913 290.00113 296.67313 300.00912 306.68112 312.68112 316.01712 322.68912 328.68912 332.02512 338.02512 341.36111 347.36111 354.03311 360.03311 366.70511 373.37711 380.04913 505.91833 513.9223 520.5943 523.9303 527.2663 535.27032 541.94232 545.93829 549.27429 555.94635 562.61835 565.95435 572.62634 579.29834 582.63434 589.30634 595.97833 599.31433 605.98633 612.65833 619.33032"
             y="0"
             sodipodi:role="line"
             id="tspan20">attempt1 10 90 30 +RTS -hc310,756,609 bytes x secondsSat Apr 22 18:28 2017</tspan></text>
</g><path
         d="M 920,7110 V 3272.84"
         style="fill:none;stroke:#000000;stroke-width:5;stroke-linecap:butt;stroke-linejoin:miter;stroke-miterlimit:10;stroke-dasharray:none;stroke-opacity:1"
         id="path24"
         inkscape:connector-curvature="0" /><g
         id="g26"
         transform="scale(10)"><text
           transform="matrix(0,-1,-1,0,77,364.523)"
           style="font-variant:normal;font-weight:normal;font-size:10px;font-family:Helvetica;-inkscape-font-specification:Helvetica;writing-mode:lr-tb;fill:#000000;fill-opacity:1;fill-rule:nonzero;stroke:none"
           id="text30"><tspan
             x="0 5 10.56 15.56 21.120001 26.68 32.240002"
             y="0"
             sodipodi:role="line"
             id="tspan28">seconds</tspan></text>
</g><path
         d="M 920,7110 H 880"
         style="fill:none;stroke:#000000;stroke-width:5;stroke-linecap:butt;stroke-linejoin:miter;stroke-miterlimit:10;stroke-dasharray:none;stroke-opacity:1"
         id="path32"
         inkscape:connector-curvature="0" /><g
         id="g34"
         transform="scale(10)"><text
           transform="matrix(0,-1,-1,0,77,717.95)"
           style="font-variant:normal;font-weight:normal;font-size:10px;font-family:Helvetica;-inkscape-font-specification:Helvetica;writing-mode:lr-tb;fill:#000000;fill-opacity:1;fill-rule:nonzero;stroke:none"
           id="text38"><tspan
             x="0 5.5599999 8.3400002"
             y="0"
             sodipodi:role="line"
             id="tspan36">0.0</tspan></text>
</g><path
         d="M 920,6719.09 H 880"
         style="fill:none;stroke:#000000;stroke-width:5;stroke-linecap:butt;stroke-linejoin:miter;stroke-miterlimit:10;stroke-dasharray:none;stroke-opacity:1"
         id="path40"
         inkscape:connector-curvature="0" /><g
         id="g42"
         transform="scale(10)"><text
           transform="matrix(0,-1,-1,0,77,678.858)"
           style="font-variant:normal;font-weight:normal;font-size:10px;font-family:Helvetica;-inkscape-font-specification:Helvetica;writing-mode:lr-tb;fill:#000000;fill-opacity:1;fill-rule:nonzero;stroke:none"
           id="text46"><tspan
             x="0 5.5599999 8.3400002"
             y="0"
             sodipodi:role="line"
             id="tspan44">0.5</tspan></text>
</g><path
         d="M 920,6328.17 H 880"
         style="fill:none;stroke:#000000;stroke-width:5;stroke-linecap:butt;stroke-linejoin:miter;stroke-miterlimit:10;stroke-dasharray:none;stroke-opacity:1"
         id="path48"
         inkscape:connector-curvature="0" /><g
         id="g50"
         transform="scale(10)"><text
           transform="matrix(0,-1,-1,0,77,639.766)"
           style="font-variant:normal;font-weight:normal;font-size:10px;font-family:Helvetica;-inkscape-font-specification:Helvetica;writing-mode:lr-tb;fill:#000000;fill-opacity:1;fill-rule:nonzero;stroke:none"
           id="text54"><tspan
             x="0 5.5599999 8.3400002"
             y="0"
             sodipodi:role="line"
             id="tspan52">1.0</tspan></text>
</g><path
         d="M 920,5937.25 H 880"
         style="fill:none;stroke:#000000;stroke-width:5;stroke-linecap:butt;stroke-linejoin:miter;stroke-miterlimit:10;stroke-dasharray:none;stroke-opacity:1"
         id="path56"
         inkscape:connector-curvature="0" /><g
         id="g58"
         transform="scale(10)"><text
           transform="matrix(0,-1,-1,0,77,600.675)"
           style="font-variant:normal;font-weight:normal;font-size:10px;font-family:Helvetica;-inkscape-font-specification:Helvetica;writing-mode:lr-tb;fill:#000000;fill-opacity:1;fill-rule:nonzero;stroke:none"
           id="text62"><tspan
             x="0 5.5599999 8.3400002"
             y="0"
             sodipodi:role="line"
             id="tspan60">1.5</tspan></text>
</g><path
         d="M 920,5546.34 H 880"
         style="fill:none;stroke:#000000;stroke-width:5;stroke-linecap:butt;stroke-linejoin:miter;stroke-miterlimit:10;stroke-dasharray:none;stroke-opacity:1"
         id="path64"
         inkscape:connector-curvature="0" /><g
         id="g66"
         transform="scale(10)"><text
           transform="matrix(0,-1,-1,0,77,561.583)"
           style="font-variant:normal;font-weight:normal;font-size:10px;font-family:Helvetica;-inkscape-font-specification:Helvetica;writing-mode:lr-tb;fill:#000000;fill-opacity:1;fill-rule:nonzero;stroke:none"
           id="text70"><tspan
             x="0 5.5599999 8.3400002"
             y="0"
             sodipodi:role="line"
             id="tspan68">2.0</tspan></text>
</g><path
         d="M 920,5155.42 H 880"
         style="fill:none;stroke:#000000;stroke-width:5;stroke-linecap:butt;stroke-linejoin:miter;stroke-miterlimit:10;stroke-dasharray:none;stroke-opacity:1"
         id="path72"
         inkscape:connector-curvature="0" /><g
         id="g74"
         transform="scale(10)"><text
           transform="matrix(0,-1,-1,0,77,522.492)"
           style="font-variant:normal;font-weight:normal;font-size:10px;font-family:Helvetica;-inkscape-font-specification:Helvetica;writing-mode:lr-tb;fill:#000000;fill-opacity:1;fill-rule:nonzero;stroke:none"
           id="text78"><tspan
             x="0 5.5599999 8.3400002"
             y="0"
             sodipodi:role="line"
             id="tspan76">2.5</tspan></text>
</g><path
         d="M 920,4764.5 H 880"
         style="fill:none;stroke:#000000;stroke-width:5;stroke-linecap:butt;stroke-linejoin:miter;stroke-miterlimit:10;stroke-dasharray:none;stroke-opacity:1"
         id="path80"
         inkscape:connector-curvature="0" /><g
         id="g82"
         transform="scale(10)"><text
           transform="matrix(0,-1,-1,0,77,483.4)"
           style="font-variant:normal;font-weight:normal;font-size:10px;font-family:Helvetica;-inkscape-font-specification:Helvetica;writing-mode:lr-tb;fill:#000000;fill-opacity:1;fill-rule:nonzero;stroke:none"
           id="text86"><tspan
             x="0 5.5599999 8.3400002"
             y="0"
             sodipodi:role="line"
             id="tspan84">3.0</tspan></text>
</g><path
         d="M 920,4373.59 H 880"
         style="fill:none;stroke:#000000;stroke-width:5;stroke-linecap:butt;stroke-linejoin:miter;stroke-miterlimit:10;stroke-dasharray:none;stroke-opacity:1"
         id="path88"
         inkscape:connector-curvature="0" /><g
         id="g90"
         transform="scale(10)"><text
           transform="matrix(0,-1,-1,0,77,444.309)"
           style="font-variant:normal;font-weight:normal;font-size:10px;font-family:Helvetica;-inkscape-font-specification:Helvetica;writing-mode:lr-tb;fill:#000000;fill-opacity:1;fill-rule:nonzero;stroke:none"
           id="text94"><tspan
             x="0 5.5599999 8.3400002"
             y="0"
             sodipodi:role="line"
             id="tspan92">3.5</tspan></text>
</g><path
         d="M 920,3982.67 H 880"
         style="fill:none;stroke:#000000;stroke-width:5;stroke-linecap:butt;stroke-linejoin:miter;stroke-miterlimit:10;stroke-dasharray:none;stroke-opacity:1"
         id="path96"
         inkscape:connector-curvature="0" /><g
         id="g98"
         transform="scale(10)"><text
           transform="matrix(0,-1,-1,0,77,405.217)"
           style="font-variant:normal;font-weight:normal;font-size:10px;font-family:Helvetica;-inkscape-font-specification:Helvetica;writing-mode:lr-tb;fill:#000000;fill-opacity:1;fill-rule:nonzero;stroke:none"
           id="text102"><tspan
             x="0 5.5599999 8.3400002"
             y="0"
             sodipodi:role="line"
             id="tspan100">4.0</tspan></text>
</g><path
         d="M 920,7110 H 4740"
         style="fill:none;stroke:#000000;stroke-width:5;stroke-linecap:butt;stroke-linejoin:miter;stroke-miterlimit:10;stroke-dasharray:none;stroke-opacity:1"
         id="path104"
         inkscape:connector-curvature="0" /><g
         id="g106"
         transform="scale(10)"><text
           transform="matrix(1,0,0,-1,450.101,716)"
           style="font-variant:normal;font-weight:normal;font-size:10px;font-family:Helvetica;-inkscape-font-specification:Helvetica;writing-mode:lr-tb;fill:#000000;fill-opacity:1;fill-rule:nonzero;stroke:none"
           id="text110"><tspan
             x="0 5.5599999 10.56 13.34 18.9"
             y="0"
             sodipodi:role="line"
             id="tspan108">bytes</tspan></text>
</g><path
         d="m 920,7110 v 40"
         style="fill:none;stroke:#000000;stroke-width:5;stroke-linecap:butt;stroke-linejoin:miter;stroke-miterlimit:10;stroke-dasharray:none;stroke-opacity:1"
         id="path112"
         inkscape:connector-curvature="0" /><g
         id="g114"
         transform="scale(10)"><text
           transform="matrix(0,-1,-1,0,92,729.889)"
           style="font-variant:normal;font-weight:normal;font-size:10px;font-family:Helvetica;-inkscape-font-specification:Helvetica;writing-mode:lr-tb;fill:#000000;fill-opacity:1;fill-rule:nonzero;stroke:none"
           id="text118"><tspan
             x="0 5.5599999"
             y="0"
             sodipodi:role="line"
             id="tspan116">0M</tspan></text>
</g><path
         d="m 1676.41,7110 v 40"
         style="fill:none;stroke:#000000;stroke-width:5;stroke-linecap:butt;stroke-linejoin:miter;stroke-miterlimit:10;stroke-dasharray:none;stroke-opacity:1"
         id="path120"
         inkscape:connector-curvature="0" /><g
         id="g122"
         transform="scale(10)"><text
           transform="matrix(0,-1,-1,0,167.641,735.449)"
           style="font-variant:normal;font-weight:normal;font-size:10px;font-family:Helvetica;-inkscape-font-specification:Helvetica;writing-mode:lr-tb;fill:#000000;fill-opacity:1;fill-rule:nonzero;stroke:none"
           id="text126"><tspan
             x="0 5.5599999 11.12"
             y="0"
             sodipodi:role="line"
             id="tspan124">20M</tspan></text>
</g><path
         d="m 2432.83,7110 v 40"
         style="fill:none;stroke:#000000;stroke-width:5;stroke-linecap:butt;stroke-linejoin:miter;stroke-miterlimit:10;stroke-dasharray:none;stroke-opacity:1"
         id="path128"
         inkscape:connector-curvature="0" /><g
         id="g130"
         transform="scale(10)"><text
           transform="matrix(0,-1,-1,0,243.283,735.449)"
           style="font-variant:normal;font-weight:normal;font-size:10px;font-family:Helvetica;-inkscape-font-specification:Helvetica;writing-mode:lr-tb;fill:#000000;fill-opacity:1;fill-rule:nonzero;stroke:none"
           id="text134"><tspan
             x="0 5.5599999 11.12"
             y="0"
             sodipodi:role="line"
             id="tspan132">40M</tspan></text>
</g><path
         d="m 3189.25,7110 v 40"
         style="fill:none;stroke:#000000;stroke-width:5;stroke-linecap:butt;stroke-linejoin:miter;stroke-miterlimit:10;stroke-dasharray:none;stroke-opacity:1"
         id="path136"
         inkscape:connector-curvature="0" /><g
         id="g138"
         transform="scale(10)"><text
           transform="matrix(0,-1,-1,0,318.925,735.449)"
           style="font-variant:normal;font-weight:normal;font-size:10px;font-family:Helvetica;-inkscape-font-specification:Helvetica;writing-mode:lr-tb;fill:#000000;fill-opacity:1;fill-rule:nonzero;stroke:none"
           id="text142"><tspan
             x="0 5.5599999 11.12"
             y="0"
             sodipodi:role="line"
             id="tspan140">60M</tspan></text>
</g><path
         d="m 3945.66,7110 v 40"
         style="fill:none;stroke:#000000;stroke-width:5;stroke-linecap:butt;stroke-linejoin:miter;stroke-miterlimit:10;stroke-dasharray:none;stroke-opacity:1"
         id="path144"
         inkscape:connector-curvature="0" /><g
         id="g146"
         transform="scale(10)"><text
           transform="matrix(0,-1,-1,0,394.566,735.449)"
           style="font-variant:normal;font-weight:normal;font-size:10px;font-family:Helvetica;-inkscape-font-specification:Helvetica;writing-mode:lr-tb;fill:#000000;fill-opacity:1;fill-rule:nonzero;stroke:none"
           id="text150"><tspan
             x="0 5.5599999 11.12"
             y="0"
             sodipodi:role="line"
             id="tspan148">80M</tspan></text>
</g><path
         d="m 1062.22,3082.84 h 140 v 140 h -140 z"
         style="fill:#000000;fill-opacity:1;fill-rule:nonzero;stroke:none"
         id="path152"
         inkscape:connector-curvature="0" /><path
         d="m 1062.22,3082.84 h 140 v 140 h -140 z"
         style="fill:none;stroke:#000000;stroke-width:5;stroke-linecap:butt;stroke-linejoin:miter;stroke-miterlimit:10;stroke-dasharray:none;stroke-opacity:1"
         id="path154"
         inkscape:connector-curvature="0" /><g
         id="g156"
         transform="scale(10)"><text
           transform="matrix(0,-1,-1,0,108.222,303.284)"
           style="font-variant:normal;font-weight:normal;font-size:10px;font-family:Helvetica;-inkscape-font-specification:Helvetica;writing-mode:lr-tb;fill:#000000;fill-opacity:1;fill-rule:nonzero;stroke:none"
           id="text160"><tspan
             x="0 3.3299999 8.8900003 14.45 20.01 25.57 31.129999 34.459999 37.240002 45.57 51.130001 56.689999 59.470001 62.25 65.029999 70.029999 75.029999 77.25 80.029999 82.809998 91.139999 96.699997 102.26 105.04 107.82 110.6 113.38 121.71 127.27 130.05 132.83"
             y="0"
             sodipodi:role="line"
             id="tspan158">(14621)fmap.\.ks’/fmap.\/fma...</tspan></text>
</g><path
         d="m 1274.45,3082.84 h 140 v 140 h -140 z"
         style="fill:#0000ff;fill-opacity:1;fill-rule:nonzero;stroke:none"
         id="path162"
         inkscape:connector-curvature="0" /><path
         d="m 1274.45,3082.84 h 140 v 140 h -140 z"
         style="fill:none;stroke:#000000;stroke-width:5;stroke-linecap:butt;stroke-linejoin:miter;stroke-miterlimit:10;stroke-dasharray:none;stroke-opacity:1"
         id="path164"
         inkscape:connector-curvature="0" /><g
         id="g166"
         transform="scale(10)"><text
           transform="matrix(0,-1,-1,0,129.445,303.284)"
           style="font-variant:normal;font-weight:normal;font-size:10px;font-family:Helvetica;-inkscape-font-specification:Helvetica;writing-mode:lr-tb;fill:#000000;fill-opacity:1;fill-rule:nonzero;stroke:none"
           id="text170"><tspan
             x="0 3.3299999 8.8900003 14.45 20.01 25.57 31.129999 34.459999 40.02 45.580002 48.91 53.91 59.470001 66.139999 68.919998 72.25 77.809998 82.809998 85.589996 91.150002 96.709999 100.04 105.04 110.6 117.27 120.05 125.89 131.73 137.57001 140.35001 143.13"
             y="0"
             sodipodi:role="line"
             id="tspan168">(13926)parseS.res/parseS/&gt;&gt;=...</tspan></text>
</g><path
         d="m 1486.67,3082.84 h 140 v 140 h -140 z"
         style="fill:#00ff00;fill-opacity:1;fill-rule:nonzero;stroke:none"
         id="path172"
         inkscape:connector-curvature="0" /><path
         d="m 1486.67,3082.84 h 140 v 140 h -140 z"
         style="fill:none;stroke:#000000;stroke-width:5;stroke-linecap:butt;stroke-linejoin:miter;stroke-miterlimit:10;stroke-dasharray:none;stroke-opacity:1"
         id="path174"
         inkscape:connector-curvature="0" /><g
         id="g176"
         transform="scale(10)"><text
           transform="matrix(0,-1,-1,0,150.667,303.284)"
           style="font-variant:normal;font-weight:normal;font-size:10px;font-family:Helvetica;-inkscape-font-specification:Helvetica;writing-mode:lr-tb;fill:#000000;fill-opacity:1;fill-rule:nonzero;stroke:none"
           id="text180"><tspan
             x="0 3.3299999 8.8900003 14.45 20.01 25.57 31.129999 34.459999 37.240002 45.57 51.130001 56.689999 59.470001 62.25 65.029999 70.029999 75.589996 80.589996 85.589996 87.809998 90.589996 93.370003 101.7 107.26 112.82 115.6 118.38 121.16 123.94 126.72 129.5"
             y="0"
             sodipodi:role="line"
             id="tspan178">(14399)fmap.\.succ’/fmap.\/f...</tspan></text>
</g><path
         d="m 1698.89,3082.84 h 140 v 140 h -140 z"
         style="fill:#00ffff;fill-opacity:1;fill-rule:nonzero;stroke:none"
         id="path182"
         inkscape:connector-curvature="0" /><path
         d="m 1698.89,3082.84 h 140 v 140 h -140 z"
         style="fill:none;stroke:#000000;stroke-width:5;stroke-linecap:butt;stroke-linejoin:miter;stroke-miterlimit:10;stroke-dasharray:none;stroke-opacity:1"
         id="path184"
         inkscape:connector-curvature="0" /><g
         id="g186"
         transform="scale(10)"><text
           transform="matrix(0,-1,-1,0,171.889,303.284)"
           style="font-variant:normal;font-weight:normal;font-size:10px;font-family:Helvetica;-inkscape-font-specification:Helvetica;writing-mode:lr-tb;fill:#000000;fill-opacity:1;fill-rule:nonzero;stroke:none"
           id="text190"><tspan
             x="0 3.3299999 8.8900003 14.45 20.01 25.57 31.129999 34.459999 40.299999 46.139999 51.98 54.759998 57.540001 60.32 65.32 70.32 72.540001 75.32 80.879997 86.440002 89.769997 95.330002 98.110001 100.89 103.67 109.23 114.79 118.12 123.68 126.46 129.24001"
             y="0"
             sodipodi:role="line"
             id="tspan188">(14461)&gt;&gt;=.\.ks’/pure.\/pure...</tspan></text>
</g><path
         d="m 1911.11,3082.84 h 140 v 140 h -140 z"
         style="fill:#ff0000;fill-opacity:1;fill-rule:nonzero;stroke:none"
         id="path192"
         inkscape:connector-curvature="0" /><path
         d="m 1911.11,3082.84 h 140 v 140 h -140 z"
         style="fill:none;stroke:#000000;stroke-width:5;stroke-linecap:butt;stroke-linejoin:miter;stroke-miterlimit:10;stroke-dasharray:none;stroke-opacity:1"
         id="path194"
         inkscape:connector-curvature="0" /><g
         id="g196"
         transform="scale(10)"><text
           transform="matrix(0,-1,-1,0,193.111,303.284)"
           style="font-variant:normal;font-weight:normal;font-size:10px;font-family:Helvetica;-inkscape-font-specification:Helvetica;writing-mode:lr-tb;fill:#000000;fill-opacity:1;fill-rule:nonzero;stroke:none"
           id="text200"><tspan
             x="0 3.3299999 8.8900003 14.45 20.01 25.57 31.129999 34.459999 37.240002 42.799999 47.799999 50.580002 56.689999 62.25 68.919998 74.480003 76.699997 82.260002 87.82 90.599998 96.160004 101.72 105.05 110.61 113.39 118.95 124.51 127.84 132.84 135.62 138.39999"
             y="0"
             sodipodi:role="line"
             id="tspan198">(13963)textToValue/pure/pars...</tspan></text>
</g><path
         d="m 2123.33,3082.84 h 140 v 140 h -140 z"
         style="fill:#ff00ff;fill-opacity:1;fill-rule:nonzero;stroke:none"
         id="path202"
         inkscape:connector-curvature="0" /><path
         d="m 2123.33,3082.84 h 140 v 140 h -140 z"
         style="fill:none;stroke:#000000;stroke-width:5;stroke-linecap:butt;stroke-linejoin:miter;stroke-miterlimit:10;stroke-dasharray:none;stroke-opacity:1"
         id="path204"
         inkscape:connector-curvature="0" /><g
         id="g206"
         transform="scale(10)"><text
           transform="matrix(0,-1,-1,0,214.333,303.284)"
           style="font-variant:normal;font-weight:normal;font-size:10px;font-family:Helvetica;-inkscape-font-specification:Helvetica;writing-mode:lr-tb;fill:#000000;fill-opacity:1;fill-rule:nonzero;stroke:none"
           id="text210"><tspan
             x="0 3.3299999 8.8900003 14.45 20.01 25.57 31.129999 34.459999 40.02 45.580002 50.580002 52.799999 57.799999 65.019997 70.580002 75.580002 81.139999 83.919998 89.480003 95.589996 98.919998 104.48 110.04 115.04 120.6 123.38 128.94 134.5 137.83 140.61 143.39"
             y="0"
             sodipodi:role="line"
             id="tspan208">(13955)basicUnsafeFreeze/par...</tspan></text>
</g><path
         d="m 2335.55,3082.84 h 140 v 140 h -140 z"
         style="fill:#ffff00;fill-opacity:1;fill-rule:nonzero;stroke:none"
         id="path212"
         inkscape:connector-curvature="0" /><path
         d="m 2335.55,3082.84 h 140 v 140 h -140 z"
         style="fill:none;stroke:#000000;stroke-width:5;stroke-linecap:butt;stroke-linejoin:miter;stroke-miterlimit:10;stroke-dasharray:none;stroke-opacity:1"
         id="path214"
         inkscape:connector-curvature="0" /><g
         id="g216"
         transform="scale(10)"><text
           transform="matrix(0,-1,-1,0,235.555,303.284)"
           style="font-variant:normal;font-weight:normal;font-size:10px;font-family:Helvetica;-inkscape-font-specification:Helvetica;writing-mode:lr-tb;fill:#000000;fill-opacity:1;fill-rule:nonzero;stroke:none"
           id="text220"><tspan
             x="0 3.3299999 8.8900003 14.45 20.01 25.57 31.129999 34.459999 40.299999 46.139999 51.98 54.759998 57.540001 60.32 65.32 70.32 72.540001 75.32 81.160004 87 92.839996 95.620003 98.400002 101.18 107.02 112.86 118.7 121.48 127.04 129.82001 132.60001"
             y="0"
             sodipodi:role="line"
             id="tspan218">(14533)&gt;&gt;=.\.ks’/&gt;&gt;=.\/&gt;&gt;=/p...</tspan></text>
</g><path
         d="m 2547.78,3082.84 h 140 v 140 h -140 z"
         style="fill:#ffffff;fill-opacity:1;fill-rule:nonzero;stroke:none"
         id="path222"
         inkscape:connector-curvature="0" /><path
         d="m 2547.78,3082.84 h 140 v 140 h -140 z"
         style="fill:none;stroke:#000000;stroke-width:5;stroke-linecap:butt;stroke-linejoin:miter;stroke-miterlimit:10;stroke-dasharray:none;stroke-opacity:1"
         id="path224"
         inkscape:connector-curvature="0" /><g
         id="g226"
         transform="scale(10)"><text
           transform="matrix(0,-1,-1,0,256.778,303.284)"
           style="font-variant:normal;font-weight:normal;font-size:10px;font-family:Helvetica;-inkscape-font-specification:Helvetica;writing-mode:lr-tb;fill:#000000;fill-opacity:1;fill-rule:nonzero;stroke:none"
           id="text230"><tspan
             x="0 3.3299999 8.8900003 14.45 20.01 25.57 31.129999 34.459999 40.02 45.580002 48.91 53.91 59.470001 66.139999 68.919998 74.760002 80.599998 86.440002 89.220001 92 94.779999 97.559998 100.34 106.18 112.02 117.86 120.64 123.42 126.2 128.98 131.75999"
             y="0"
             sodipodi:role="line"
             id="tspan228">(13837)parseS/&gt;&gt;=.\.\/&gt;&gt;=.\/...</tspan></text>
</g><path
         d="m 2760,3082.84 h 140 v 140 h -140 z"
         style="fill:#000080;fill-opacity:1;fill-rule:nonzero;stroke:none"
         id="path232"
         inkscape:connector-curvature="0" /><path
         d="m 2760,3082.84 h 140 v 140 h -140 z"
         style="fill:none;stroke:#000000;stroke-width:5;stroke-linecap:butt;stroke-linejoin:miter;stroke-miterlimit:10;stroke-dasharray:none;stroke-opacity:1"
         id="path234"
         inkscape:connector-curvature="0" /><g
         id="g236"
         transform="scale(10)"><text
           transform="matrix(0,-1,-1,0,278,303.284)"
           style="font-variant:normal;font-weight:normal;font-size:10px;font-family:Helvetica;-inkscape-font-specification:Helvetica;writing-mode:lr-tb;fill:#000000;fill-opacity:1;fill-rule:nonzero;stroke:none"
           id="text240"><tspan
             x="0 3.3299999 8.8900003 14.45 20.01 25.57 31.129999 34.459999 40.299999 46.139999 51.98 54.759998 57.540001 60.32 65.32 70.879997 75.879997 80.879997 83.099998 85.879997 91.720001 97.559998 103.4 106.18 108.96 111.74 117.58 123.42 129.25999 132.03999 134.82001"
             y="0"
             sodipodi:role="line"
             id="tspan238">(14083)&gt;&gt;=.\.succ’/&gt;&gt;=.\/&gt;&gt;=...</tspan></text>
</g><path
         d="m 2972.22,3082.84 h 140 v 140 h -140 z"
         style="fill:#008000;fill-opacity:1;fill-rule:nonzero;stroke:none"
         id="path242"
         inkscape:connector-curvature="0" /><path
         d="m 2972.22,3082.84 h 140 v 140 h -140 z"
         style="fill:none;stroke:#000000;stroke-width:5;stroke-linecap:butt;stroke-linejoin:miter;stroke-miterlimit:10;stroke-dasharray:none;stroke-opacity:1"
         id="path244"
         inkscape:connector-curvature="0" /><g
         id="g246"
         transform="scale(10)"><text
           transform="matrix(0,-1,-1,0,299.222,303.284)"
           style="font-variant:normal;font-weight:normal;font-size:10px;font-family:Helvetica;-inkscape-font-specification:Helvetica;writing-mode:lr-tb;fill:#000000;fill-opacity:1;fill-rule:nonzero;stroke:none"
           id="text250"><tspan
             x="0 3.3299999 8.8900003 14.45 20.01 25.57 31.129999 34.459999 40.02 45.580002 48.91 53.91 59.470001 64.470001 71.139999 78.919998 86.139999 88.919998 94.480003 100.04 103.37 108.37 113.93 118.93 125.6 133.38 140.60001 147.27 149.49001 152.27 155.05"
             y="0"
             sodipodi:role="line"
             id="tspan248">(14618)parseJSON/parseJSONEl...</tspan></text>
</g><path
         d="m 3184.45,3082.84 h 140 v 140 h -140 z"
         style="fill:#0080ff;fill-opacity:1;fill-rule:nonzero;stroke:none"
         id="path252"
         inkscape:connector-curvature="0" /><path
         d="m 3184.45,3082.84 h 140 v 140 h -140 z"
         style="fill:none;stroke:#000000;stroke-width:5;stroke-linecap:butt;stroke-linejoin:miter;stroke-miterlimit:10;stroke-dasharray:none;stroke-opacity:1"
         id="path254"
         inkscape:connector-curvature="0" /><g
         id="g256"
         transform="scale(10)"><text
           transform="matrix(0,-1,-1,0,320.445,303.284)"
           style="font-variant:normal;font-weight:normal;font-size:10px;font-family:Helvetica;-inkscape-font-specification:Helvetica;writing-mode:lr-tb;fill:#000000;fill-opacity:1;fill-rule:nonzero;stroke:none"
           id="text260"><tspan
             x="0 3.3299999 8.8900003 14.45 20.01 25.57 31.129999 34.459999 40.02 45.580002 50.580002 52.799999 57.799999 65.019997 70.580002 75.580002 81.139999 83.919998 89.480003 96.699997 102.26 107.82 112.82 115.6 121.16 126.72 131.72 133.94 138.94 141.72 144.5"
             y="0"
             sodipodi:role="line"
             id="tspan258">(13946)basicUnsafeCopy/basic...</tspan></text>
</g><path
         d="m 3396.67,3082.84 h 140 v 140 h -140 z"
         style="fill:#00ff80;fill-opacity:1;fill-rule:nonzero;stroke:none"
         id="path262"
         inkscape:connector-curvature="0" /><path
         d="m 3396.67,3082.84 h 140 v 140 h -140 z"
         style="fill:none;stroke:#000000;stroke-width:5;stroke-linecap:butt;stroke-linejoin:miter;stroke-miterlimit:10;stroke-dasharray:none;stroke-opacity:1"
         id="path264"
         inkscape:connector-curvature="0" /><g
         id="g266"
         transform="scale(10)"><text
           transform="matrix(0,-1,-1,0,341.667,303.284)"
           style="font-variant:normal;font-weight:normal;font-size:10px;font-family:Helvetica;-inkscape-font-specification:Helvetica;writing-mode:lr-tb;fill:#000000;fill-opacity:1;fill-rule:nonzero;stroke:none"
           id="text270"><tspan
             x="0 3.3299999 8.8900003 14.45 20.01 25.57 31.129999 34.459999 40.02 45.580002 48.91 53.91 59.470001 66.139999 71.139999 76.699997 78.919998 84.480003 87.809998 90.589996 93.370003 101.7 107.26 112.82 115.6 118.38 121.16 123.94 132.27 135.05 137.83"
             y="0"
             sodipodi:role="line"
             id="tspan268">(13834)parseScalar/fmap.\/fm...</tspan></text>
</g><path
         d="m 3608.89,3082.84 h 140 v 140 h -140 z"
         style="fill:#800000;fill-opacity:1;fill-rule:nonzero;stroke:none"
         id="path272"
         inkscape:connector-curvature="0" /><path
         d="m 3608.89,3082.84 h 140 v 140 h -140 z"
         style="fill:none;stroke:#000000;stroke-width:5;stroke-linecap:butt;stroke-linejoin:miter;stroke-miterlimit:10;stroke-dasharray:none;stroke-opacity:1"
         id="path274"
         inkscape:connector-curvature="0" /><g
         id="g276"
         transform="scale(10)"><text
           transform="matrix(0,-1,-1,0,362.889,303.284)"
           style="font-variant:normal;font-weight:normal;font-size:10px;font-family:Helvetica;-inkscape-font-specification:Helvetica;writing-mode:lr-tb;fill:#000000;fill-opacity:1;fill-rule:nonzero;stroke:none"
           id="text280"><tspan
             x="0 3.3299999 8.8900003 14.45 20.01 25.57 31.129999 34.459999 36.68 38.900002 41.68 44.459999 51.130001 56.689999 60.02 65.019997 70.580002 75.580002 82.25 90.029999 97.25 100.03 105.59 111.15 114.48 119.48 125.04 130.03999 136.71001 139.49001 142.27"
             y="0"
             sodipodi:role="line"
             id="tspan278">(14452)liftParseJSON/parseJS...</tspan></text>
</g><path
         d="m 3821.11,3082.84 h 140 v 140 h -140 z"
         style="fill:#8000ff;fill-opacity:1;fill-rule:nonzero;stroke:none"
         id="path282"
         inkscape:connector-curvature="0" /><path
         d="m 3821.11,3082.84 h 140 v 140 h -140 z"
         style="fill:none;stroke:#000000;stroke-width:5;stroke-linecap:butt;stroke-linejoin:miter;stroke-miterlimit:10;stroke-dasharray:none;stroke-opacity:1"
         id="path284"
         inkscape:connector-curvature="0" /><g
         id="g286"
         transform="scale(10)"><text
           transform="matrix(0,-1,-1,0,384.111,303.284)"
           style="font-variant:normal;font-weight:normal;font-size:10px;font-family:Helvetica;-inkscape-font-specification:Helvetica;writing-mode:lr-tb;fill:#000000;fill-opacity:1;fill-rule:nonzero;stroke:none"
           id="text290"><tspan
             x="0 3.3299999 8.8900003 14.45 20.01 25.57 31.129999 34.459999 40.02 45.580002 48.91 54.470001 57.25 62.810001 68.370003 71.699997 76.699997 82.260002 88.93 93.93 99.489998 101.71 107.27 110.6 113.38 116.16 124.49 130.05 135.61 138.39 141.17"
             y="0"
             sodipodi:role="line"
             id="tspan288">(13835)pure/parseScalar/fmap...</tspan></text>
</g><path
         d="m 4033.33,3082.84 h 140 v 140 h -140 z"
         style="fill:#80e600;fill-opacity:1;fill-rule:nonzero;stroke:none"
         id="path292"
         inkscape:connector-curvature="0" /><path
         d="m 4033.33,3082.84 h 140 v 140 h -140 z"
         style="fill:none;stroke:#000000;stroke-width:5;stroke-linecap:butt;stroke-linejoin:miter;stroke-miterlimit:10;stroke-dasharray:none;stroke-opacity:1"
         id="path294"
         inkscape:connector-curvature="0" /><g
         id="g296"
         transform="scale(10)"><text
           transform="matrix(0,-1,-1,0,405.333,303.284)"
           style="font-variant:normal;font-weight:normal;font-size:10px;font-family:Helvetica;-inkscape-font-specification:Helvetica;writing-mode:lr-tb;fill:#000000;fill-opacity:1;fill-rule:nonzero;stroke:none"
           id="text300"><tspan
             x="0 3.3299999 8.8900003 14.45 20.01 25.57 31.129999 34.459999 40.299999 46.139999 51.98 54.759998 57.540001 60.32 63.099998 65.879997 71.720001 77.559998 83.400002 86.18 88.959999 91.739998 97.580002 103.42 109.26 112.04 117.6 123.16 126.49 129.27 132.05"
             y="0"
             sodipodi:role="line"
             id="tspan298">(13804)&gt;&gt;=.\.\/&gt;&gt;=.\/&gt;&gt;=/par...</tspan></text>
</g><path
         d="m 4245.55,3082.84 h 140 v 140 h -140 z"
         style="fill:#80ffff;fill-opacity:1;fill-rule:nonzero;stroke:none"
         id="path302"
         inkscape:connector-curvature="0" /><path
         d="m 4245.55,3082.84 h 140 v 140 h -140 z"
         style="fill:none;stroke:#000000;stroke-width:5;stroke-linecap:butt;stroke-linejoin:miter;stroke-miterlimit:10;stroke-dasharray:none;stroke-opacity:1"
         id="path304"
         inkscape:connector-curvature="0" /><g
         id="g306"
         transform="scale(10)"><text
           transform="matrix(0,-1,-1,0,426.555,303.284)"
           style="font-variant:normal;font-weight:normal;font-size:10px;font-family:Helvetica;-inkscape-font-specification:Helvetica;writing-mode:lr-tb;fill:#000000;fill-opacity:1;fill-rule:nonzero;stroke:none"
           id="text310"><tspan
             x="0 3.3299999 8.8900003 14.45 20.01 25.57 31.129999 34.459999 40.02 45.580002 48.360001 55.029999 60.029999 65.589996 71.150002 73.93 76.709999 82.269997 87.830002 91.160004 96.160004 101.72 105.05 111.72 117.28 120.61 125.61 131.17 138.95 141.73 144.50999"
             y="0"
             sodipodi:role="line"
             id="tspan308">(13770)getEvent/parserParseO...</tspan></text>
</g><path
         d="m 4457.78,3082.84 h 140 v 140 h -140 z"
         style="fill:#ff0080;fill-opacity:1;fill-rule:nonzero;stroke:none"
         id="path312"
         inkscape:connector-curvature="0" /><path
         d="m 4457.78,3082.84 h 140 v 140 h -140 z"
         style="fill:none;stroke:#000000;stroke-width:5;stroke-linecap:butt;stroke-linejoin:miter;stroke-miterlimit:10;stroke-dasharray:none;stroke-opacity:1"
         id="path314"
         inkscape:connector-curvature="0" /><g
         id="g316"
         transform="scale(10)"><text
           transform="matrix(0,-1,-1,0,447.778,303.284)"
           style="font-variant:normal;font-weight:normal;font-size:10px;font-family:Helvetica;-inkscape-font-specification:Helvetica;writing-mode:lr-tb;fill:#000000;fill-opacity:1;fill-rule:nonzero;stroke:none"
           id="text320"><tspan
             x="0 3.3299999 8.8900003 14.45 20.01 25.57 28.9 35.57 38.349998 45.57 52.790001 59.459999"
             y="0"
             sodipodi:role="line"
             id="tspan318">(6802)PINNED</tspan></text>
</g><path
         d="m 920,7110 v 0 -3837.16 l 48.023,50.34 -1.562,78.71 -1.59,80.41 -1.551,77.93 -1.519,76.34 -1.551,77.84 -1.59,80.2 -1.551,77.98 -1.558,78.42 -1.555,79.12 -1.551,78.1 -1.558,78.45 -1.551,78.7 -1.559,78.35 -1.55,78.42 -1.586,80.39 -1.528,77.29 -1.578,79.59 -1.586,80.06 -1.535,77.23 -1.551,78.28 -1.539,77.51 -1.508,76.82 -1.488,74.66 -1.558,78.54 -1.5,76.51 -1.54,77.51 -1.519,76.59 -1.563,78.96 -1.543,77.7 -1.535,77.01 -1.523,76.68 -0.047,78.5 v 76.23 78.88 75.56 77.99 78.84 77.16 78.9 80.14 77.41 78.35 77.97 79.32 77.11 79.8 77.56 116.8"
         style="fill:#000000;fill-opacity:1;fill-rule:nonzero;stroke:none"
         id="path322"
         inkscape:connector-curvature="0" /><path
         d="m 920,7110 v 0 -3837.16 l 48.023,50.34 -1.562,78.71 -1.59,80.41 -1.551,77.93 -1.519,76.34 -1.551,77.84 -1.59,80.2 -1.551,77.98 -1.558,78.42 -1.555,79.12 -1.551,78.1 -1.558,78.45 -1.551,78.7 -1.559,78.35 -1.55,78.42 -1.586,80.39 -1.528,77.29 -1.578,79.59 -1.586,80.06 -1.535,77.23 -1.551,78.28 -1.539,77.51 -1.508,76.82 -1.488,74.66 -1.558,78.54 -1.5,76.51 -1.54,77.51 -1.519,76.59 -1.563,78.96 -1.543,77.7 -1.535,77.01 -1.523,76.68 -0.047,78.5 v 76.23 78.88 75.56 77.99 78.84 77.16 78.9 80.14 77.41 78.35 77.97 79.32 77.11 79.8 77.56 z"
         style="fill:none;stroke:#000000;stroke-width:5;stroke-linecap:butt;stroke-linejoin:miter;stroke-miterlimit:10;stroke-dasharray:none;stroke-opacity:1"
         id="path324"
         inkscape:connector-curvature="0" /><path
         d="m 920,7110 v 0 -1288.02 l 0.047,-78.5 1.523,-76.68 1.535,-77.01 1.543,-77.7 1.563,-78.96 1.519,-76.59 1.54,-77.51 1.5,-76.51 1.558,-78.54 1.488,-74.66 1.508,-76.82 1.539,-77.51 1.551,-78.28 1.535,-77.23 1.586,-80.06 1.578,-79.59 1.528,-77.29 1.586,-80.39 1.55,-78.42 1.559,-78.35 1.551,-78.7 1.558,-78.45 1.551,-78.1 1.555,-79.12 1.558,-78.42 1.551,-77.98 1.59,-80.2 1.551,-77.84 1.519,-76.34 1.551,-77.93 1.59,-80.41 1.562,-78.71 L 920,3272.84 v 0 0 l 112.78,50.34 -3.67,78.71 -3.73,80.41 -3.63,77.93 -3.56,76.34 -3.64,77.84 -3.73,80.2 -3.63,77.98 -3.65,78.42 -3.653,79.12 -3.637,78.1 -3.652,78.45 -3.637,78.7 -3.652,78.35 -3.637,78.42 -3.715,80.39 -3.586,77.29 -3.699,79.59 -3.715,80.06 -3.605,77.23 -3.637,78.28 -3.606,77.51 -3.539,76.82 -3.484,74.66 -3.652,78.54 -3.528,76.51 -3.605,77.51 -3.559,76.59 -3.664,78.96 -3.625,77.7 -3.59,77.01 -3.574,76.68 -0.289,78.5 v 76.23 78.88 75.56 77.99 78.84 77.16 78.9 80.14 77.41 78.35 77.97 79.32 77.11 79.8 77.56 116.8"
         style="fill:#0000ff;fill-opacity:1;fill-rule:nonzero;stroke:none"
         id="path326"
         inkscape:connector-curvature="0" /><path
         d="m 920,7110 v 0 -1288.02 l 0.047,-78.5 1.523,-76.68 1.535,-77.01 1.543,-77.7 1.563,-78.96 1.519,-76.59 1.54,-77.51 1.5,-76.51 1.558,-78.54 1.488,-74.66 1.508,-76.82 1.539,-77.51 1.551,-78.28 1.535,-77.23 1.586,-80.06 1.578,-79.59 1.528,-77.29 1.586,-80.39 1.55,-78.42 1.559,-78.35 1.551,-78.7 1.558,-78.45 1.551,-78.1 1.555,-79.12 1.558,-78.42 1.551,-77.98 1.59,-80.2 1.551,-77.84 1.519,-76.34 1.551,-77.93 1.59,-80.41 1.562,-78.71 L 920,3272.84 v 0 0 l 112.78,50.34 -3.67,78.71 -3.73,80.41 -3.63,77.93 -3.56,76.34 -3.64,77.84 -3.73,80.2 -3.63,77.98 -3.65,78.42 -3.653,79.12 -3.637,78.1 -3.652,78.45 -3.637,78.7 -3.652,78.35 -3.637,78.42 -3.715,80.39 -3.586,77.29 -3.699,79.59 -3.715,80.06 -3.605,77.23 -3.637,78.28 -3.606,77.51 -3.539,76.82 -3.484,74.66 -3.652,78.54 -3.528,76.51 -3.605,77.51 -3.559,76.59 -3.664,78.96 -3.625,77.7 -3.59,77.01 -3.574,76.68 -0.289,78.5 v 76.23 78.88 75.56 77.99 78.84 77.16 78.9 80.14 77.41 78.35 77.97 79.32 77.11 79.8 77.56 z"
         style="fill:none;stroke:#000000;stroke-width:5;stroke-linecap:butt;stroke-linejoin:miter;stroke-miterlimit:10;stroke-dasharray:none;stroke-opacity:1"
         id="path328"
         inkscape:connector-curvature="0" /><path
         d="m 920,7110 v 0 -1288.02 l 0.289,-78.5 3.574,-76.68 3.59,-77.01 3.625,-77.7 3.664,-78.96 3.559,-76.59 3.605,-77.51 3.528,-76.51 3.652,-78.54 3.484,-74.66 3.539,-76.82 3.606,-77.51 3.637,-78.28 3.605,-77.23 3.715,-80.06 3.699,-79.59 3.586,-77.29 3.715,-80.39 3.637,-78.42 3.652,-78.35 3.637,-78.7 3.652,-78.45 3.637,-78.1 3.653,-79.12 3.65,-78.42 3.63,-77.98 3.73,-80.2 3.64,-77.84 3.56,-76.34 3.63,-77.93 3.73,-80.41 3.67,-78.71 L 920,3272.84 v 0 0 l 178.07,50.34 -5.78,78.71 -5.87,80.41 -5.72,77.93 -5.6,76.34 -5.72,77.84 -5.86,80.2 -5.73,77.98 -5.74,78.42 -5.75,79.12 -5.72,78.1 -5.75,78.45 -5.72,78.7 -5.74,78.35 -5.73,78.42 -5.84,80.39 -5.64,77.29 -5.82,79.59 -5.848,80.06 -5.672,77.23 -5.722,78.28 -5.676,77.51 -5.57,76.82 -5.481,74.66 -5.746,78.54 -5.547,76.51 -5.672,77.51 -5.605,76.59 -5.766,78.96 -5.699,77.7 -5.648,77.01 -5.625,76.68 -1.063,78.5 v 76.23 78.88 75.56 77.99 78.84 77.16 78.9 80.14 77.41 78.35 77.97 79.32 77.11 79.8 77.56 116.8"
         style="fill:#00ff00;fill-opacity:1;fill-rule:nonzero;stroke:none"
         id="path330"
         inkscape:connector-curvature="0" /><path
         d="m 920,7110 v 0 -1288.02 l 0.289,-78.5 3.574,-76.68 3.59,-77.01 3.625,-77.7 3.664,-78.96 3.559,-76.59 3.605,-77.51 3.528,-76.51 3.652,-78.54 3.484,-74.66 3.539,-76.82 3.606,-77.51 3.637,-78.28 3.605,-77.23 3.715,-80.06 3.699,-79.59 3.586,-77.29 3.715,-80.39 3.637,-78.42 3.652,-78.35 3.637,-78.7 3.652,-78.45 3.637,-78.1 3.653,-79.12 3.65,-78.42 3.63,-77.98 3.73,-80.2 3.64,-77.84 3.56,-76.34 3.63,-77.93 3.73,-80.41 3.67,-78.71 L 920,3272.84 v 0 0 l 178.07,50.34 -5.78,78.71 -5.87,80.41 -5.72,77.93 -5.6,76.34 -5.72,77.84 -5.86,80.2 -5.73,77.98 -5.74,78.42 -5.75,79.12 -5.72,78.1 -5.75,78.45 -5.72,78.7 -5.74,78.35 -5.73,78.42 -5.84,80.39 -5.64,77.29 -5.82,79.59 -5.848,80.06 -5.672,77.23 -5.722,78.28 -5.676,77.51 -5.57,76.82 -5.481,74.66 -5.746,78.54 -5.547,76.51 -5.672,77.51 -5.605,76.59 -5.766,78.96 -5.699,77.7 -5.648,77.01 -5.625,76.68 -1.063,78.5 v 76.23 78.88 75.56 77.99 78.84 77.16 78.9 80.14 77.41 78.35 77.97 79.32 77.11 79.8 77.56 z"
         style="fill:none;stroke:#000000;stroke-width:5;stroke-linecap:butt;stroke-linejoin:miter;stroke-miterlimit:10;stroke-dasharray:none;stroke-opacity:1"
         id="path332"
         inkscape:connector-curvature="0" /><path
         d="m 920,7110 v 0 -1288.02 l 1.063,-78.5 5.625,-76.68 5.648,-77.01 5.699,-77.7 5.766,-78.96 5.605,-76.59 5.672,-77.51 5.547,-76.51 5.746,-78.54 5.481,-74.66 5.57,-76.82 5.676,-77.51 5.722,-78.28 5.672,-77.23 5.848,-80.06 5.82,-79.59 5.64,-77.29 5.84,-80.39 5.73,-78.42 5.74,-78.35 5.72,-78.7 5.75,-78.45 5.72,-78.1 5.75,-79.12 5.74,-78.42 5.73,-77.98 5.86,-80.2 5.72,-77.84 5.6,-76.34 5.72,-77.93 5.87,-80.41 5.78,-78.71 L 920,3272.84 v 0 0 l 274.12,50.34 -8.91,78.71 -9.05,80.41 -8.82,77.93 -8.63,76.34 -8.83,77.84 -9.04,80.2 -8.82,77.98 -8.87,78.42 -8.85,79.12 -8.83,78.1 -8.86,78.45 -8.82,78.7 -8.86,78.35 -8.83,78.42 -9.01,80.39 -8.71,77.29 -8.97,79.59 -9.02,80.06 -8.74,77.23 -8.82,78.28 -8.76,77.51 -8.586,76.82 -8.449,74.66 -8.863,78.54 -8.559,76.51 -8.746,77.51 -8.64,76.59 -8.891,78.96 -8.789,77.7 -8.715,77.01 -8.676,76.68 -1.156,78.5 v 76.23 78.88 75.56 77.99 78.84 77.16 78.9 80.14 77.41 78.35 77.97 79.32 77.11 79.8 77.56 116.8"
         style="fill:#00ffff;fill-opacity:1;fill-rule:nonzero;stroke:none"
         id="path334"
         inkscape:connector-curvature="0" /><path
         d="m 920,7110 v 0 -1288.02 l 1.063,-78.5 5.625,-76.68 5.648,-77.01 5.699,-77.7 5.766,-78.96 5.605,-76.59 5.672,-77.51 5.547,-76.51 5.746,-78.54 5.481,-74.66 5.57,-76.82 5.676,-77.51 5.722,-78.28 5.672,-77.23 5.848,-80.06 5.82,-79.59 5.64,-77.29 5.84,-80.39 5.73,-78.42 5.74,-78.35 5.72,-78.7 5.75,-78.45 5.72,-78.1 5.75,-79.12 5.74,-78.42 5.73,-77.98 5.86,-80.2 5.72,-77.84 5.6,-76.34 5.72,-77.93 5.87,-80.41 5.78,-78.71 L 920,3272.84 v 0 0 l 274.12,50.34 -8.91,78.71 -9.05,80.41 -8.82,77.93 -8.63,76.34 -8.83,77.84 -9.04,80.2 -8.82,77.98 -8.87,78.42 -8.85,79.12 -8.83,78.1 -8.86,78.45 -8.82,78.7 -8.86,78.35 -8.83,78.42 -9.01,80.39 -8.71,77.29 -8.97,79.59 -9.02,80.06 -8.74,77.23 -8.82,78.28 -8.76,77.51 -8.586,76.82 -8.449,74.66 -8.863,78.54 -8.559,76.51 -8.746,77.51 -8.64,76.59 -8.891,78.96 -8.789,77.7 -8.715,77.01 -8.676,76.68 -1.156,78.5 v 76.23 78.88 75.56 77.99 78.84 77.16 78.9 80.14 77.41 78.35 77.97 79.32 77.11 79.8 77.56 z"
         style="fill:none;stroke:#000000;stroke-width:5;stroke-linecap:butt;stroke-linejoin:miter;stroke-miterlimit:10;stroke-dasharray:none;stroke-opacity:1"
         id="path336"
         inkscape:connector-curvature="0" /><path
         d="m 920,7110 v 0 -1288.02 l 1.156,-78.5 8.676,-76.68 8.715,-77.01 8.789,-77.7 8.891,-78.96 8.64,-76.59 8.746,-77.51 8.559,-76.51 8.863,-78.54 8.449,-74.66 8.586,-76.82 8.76,-77.51 8.82,-78.28 8.74,-77.23 9.02,-80.06 8.97,-79.59 8.71,-77.29 9.01,-80.39 8.83,-78.42 8.86,-78.35 8.82,-78.7 8.86,-78.45 8.83,-78.1 8.85,-79.12 8.87,-78.42 8.82,-77.98 9.04,-80.2 8.83,-77.84 8.63,-76.34 8.82,-77.93 9.05,-80.41 8.91,-78.71 L 920,3272.84 v 0 0 l 371.61,50.34 -12.05,78.71 -12.25,80.41 -11.94,77.93 -11.69,76.34 -11.95,77.84 -12.23,80.2 -11.95,77.98 -12,78.42 -11.98,79.12 -11.95,78.1 -12,78.45 -11.93,78.7 -12,78.35 -11.94,78.42 -12.2,80.39 -11.79,77.29 -12.15,79.59 -12.2,80.06 -11.83,77.23 -11.95,78.28 -11.84,77.51 -11.63,76.82 -11.44,74.66 -12,78.54 -11.579,76.51 -11.84,77.51 -11.696,76.59 -12.035,78.96 -11.894,77.7 -11.797,77.01 -11.742,76.68 -2.137,78.5 v 76.23 78.88 75.56 77.99 78.84 77.16 78.9 80.14 77.41 78.35 77.97 79.32 77.11 79.8 77.56 116.8"
         style="fill:#ff0000;fill-opacity:1;fill-rule:nonzero;stroke:none"
         id="path338"
         inkscape:connector-curvature="0" /><path
         d="m 920,7110 v 0 -1288.02 l 1.156,-78.5 8.676,-76.68 8.715,-77.01 8.789,-77.7 8.891,-78.96 8.64,-76.59 8.746,-77.51 8.559,-76.51 8.863,-78.54 8.449,-74.66 8.586,-76.82 8.76,-77.51 8.82,-78.28 8.74,-77.23 9.02,-80.06 8.97,-79.59 8.71,-77.29 9.01,-80.39 8.83,-78.42 8.86,-78.35 8.82,-78.7 8.86,-78.45 8.83,-78.1 8.85,-79.12 8.87,-78.42 8.82,-77.98 9.04,-80.2 8.83,-77.84 8.63,-76.34 8.82,-77.93 9.05,-80.41 8.91,-78.71 L 920,3272.84 v 0 0 l 371.61,50.34 -12.05,78.71 -12.25,80.41 -11.94,77.93 -11.69,76.34 -11.95,77.84 -12.23,80.2 -11.95,77.98 -12,78.42 -11.98,79.12 -11.95,78.1 -12,78.45 -11.93,78.7 -12,78.35 -11.94,78.42 -12.2,80.39 -11.79,77.29 -12.15,79.59 -12.2,80.06 -11.83,77.23 -11.95,78.28 -11.84,77.51 -11.63,76.82 -11.44,74.66 -12,78.54 -11.579,76.51 -11.84,77.51 -11.696,76.59 -12.035,78.96 -11.894,77.7 -11.797,77.01 -11.742,76.68 -2.137,78.5 v 76.23 78.88 75.56 77.99 78.84 77.16 78.9 80.14 77.41 78.35 77.97 79.32 77.11 79.8 77.56 z"
         style="fill:none;stroke:#000000;stroke-width:5;stroke-linecap:butt;stroke-linejoin:miter;stroke-miterlimit:10;stroke-dasharray:none;stroke-opacity:1"
         id="path340"
         inkscape:connector-curvature="0" /><path
         d="m 920,7110 v 0 -1288.02 l 2.137,-78.5 11.742,-76.68 11.797,-77.01 11.894,-77.7 12.035,-78.96 11.696,-76.59 11.84,-77.51 11.579,-76.51 12,-78.54 11.44,-74.66 11.63,-76.82 11.84,-77.51 11.95,-78.28 11.83,-77.23 12.2,-80.06 12.15,-79.59 11.79,-77.29 12.2,-80.39 11.94,-78.42 12,-78.35 11.93,-78.7 12,-78.45 11.95,-78.1 11.98,-79.12 12,-78.42 11.95,-77.98 12.23,-80.2 11.95,-77.84 11.69,-76.34 11.94,-77.93 12.25,-80.41 12.05,-78.71 L 920,3272.84 v 0 0 l 501.12,50.34 -16.26,78.71 -16.52,80.41 -16.11,77.93 -15.78,76.34 -16.11,77.84 -16.52,80.2 -16.11,77.98 -16.19,78.42 -16.17,79.12 -16.12,78.1 -16.19,78.45 -16.1,78.7 -16.19,78.35 -16.11,78.42 -16.46,80.39 -15.9,77.29 -16.4,79.59 -16.45,80.06 -15.97,77.23 -16.12,78.28 -15.98,77.51 -15.69,76.82 -15.44,74.66 -16.18,78.54 -15.63,76.51 -15.97,77.51 -15.782,76.59 -16.242,78.96 -16.051,77.7 -15.91,77.01 -15.844,76.68 -2.621,78.5 v 76.23 78.88 75.56 77.99 78.84 77.16 78.9 80.14 77.41 78.35 77.97 79.32 77.11 79.8 77.56 116.8"
         style="fill:#ff00ff;fill-opacity:1;fill-rule:nonzero;stroke:none"
         id="path342"
         inkscape:connector-curvature="0" /><path
         d="m 920,7110 v 0 -1288.02 l 2.137,-78.5 11.742,-76.68 11.797,-77.01 11.894,-77.7 12.035,-78.96 11.696,-76.59 11.84,-77.51 11.579,-76.51 12,-78.54 11.44,-74.66 11.63,-76.82 11.84,-77.51 11.95,-78.28 11.83,-77.23 12.2,-80.06 12.15,-79.59 11.79,-77.29 12.2,-80.39 11.94,-78.42 12,-78.35 11.93,-78.7 12,-78.45 11.95,-78.1 11.98,-79.12 12,-78.42 11.95,-77.98 12.23,-80.2 11.95,-77.84 11.69,-76.34 11.94,-77.93 12.25,-80.41 12.05,-78.71 L 920,3272.84 v 0 0 l 501.12,50.34 -16.26,78.71 -16.52,80.41 -16.11,77.93 -15.78,76.34 -16.11,77.84 -16.52,80.2 -16.11,77.98 -16.19,78.42 -16.17,79.12 -16.12,78.1 -16.19,78.45 -16.1,78.7 -16.19,78.35 -16.11,78.42 -16.46,80.39 -15.9,77.29 -16.4,79.59 -16.45,80.06 -15.97,77.23 -16.12,78.28 -15.98,77.51 -15.69,76.82 -15.44,74.66 -16.18,78.54 -15.63,76.51 -15.97,77.51 -15.782,76.59 -16.242,78.96 -16.051,77.7 -15.91,77.01 -15.844,76.68 -2.621,78.5 v 76.23 78.88 75.56 77.99 78.84 77.16 78.9 80.14 77.41 78.35 77.97 79.32 77.11 79.8 77.56 z"
         style="fill:none;stroke:#000000;stroke-width:5;stroke-linecap:butt;stroke-linejoin:miter;stroke-miterlimit:10;stroke-dasharray:none;stroke-opacity:1"
         id="path344"
         inkscape:connector-curvature="0" /><path
         d="m 920,7110 v 0 -1288.02 l 2.621,-78.5 15.844,-76.68 15.91,-77.01 16.051,-77.7 16.242,-78.96 15.782,-76.59 15.97,-77.51 15.63,-76.51 16.18,-78.54 15.44,-74.66 15.69,-76.82 15.98,-77.51 16.12,-78.28 15.97,-77.23 16.45,-80.06 16.4,-79.59 15.9,-77.29 16.46,-80.39 16.11,-78.42 16.19,-78.35 16.1,-78.7 16.19,-78.45 16.12,-78.1 16.17,-79.12 16.19,-78.42 16.11,-77.98 16.52,-80.2 16.11,-77.84 15.78,-76.34 16.11,-77.93 16.52,-80.41 16.26,-78.71 L 920,3272.84 v 0 0 l 632.32,50.34 -20.48,78.71 -20.86,80.41 -20.38,77.93 -19.9,76.34 -20.31,77.84 -20.92,80.2 -20.31,77.98 -20.42,78.42 -20.46,79.12 -20.34,78.1 -20.39,78.45 -20.41,78.7 -20.39,78.35 -20.34,78.42 -20.75,80.39 -20.13,77.29 -20.67,79.59 -20.75,80.06 -20.22,77.23 -20.34,78.28 -20.14,77.51 -19.87,76.82 -19.46,74.66 -20.42,78.54 -19.77,76.51 -20.17,77.51 -19.86,76.59 -20.579,78.96 -20.254,77.7 -20.062,77.01 -19.977,76.68 -2.988,78.5 v 76.23 78.88 75.56 77.99 78.84 77.16 78.9 80.14 77.41 78.35 77.97 79.32 77.11 79.8 77.56 116.8"
         style="fill:#ffff00;fill-opacity:1;fill-rule:nonzero;stroke:none"
         id="path346"
         inkscape:connector-curvature="0" /><path
         d="m 920,7110 v 0 -1288.02 l 2.621,-78.5 15.844,-76.68 15.91,-77.01 16.051,-77.7 16.242,-78.96 15.782,-76.59 15.97,-77.51 15.63,-76.51 16.18,-78.54 15.44,-74.66 15.69,-76.82 15.98,-77.51 16.12,-78.28 15.97,-77.23 16.45,-80.06 16.4,-79.59 15.9,-77.29 16.46,-80.39 16.11,-78.42 16.19,-78.35 16.1,-78.7 16.19,-78.45 16.12,-78.1 16.17,-79.12 16.19,-78.42 16.11,-77.98 16.52,-80.2 16.11,-77.84 15.78,-76.34 16.11,-77.93 16.52,-80.41 16.26,-78.71 L 920,3272.84 v 0 0 l 632.32,50.34 -20.48,78.71 -20.86,80.41 -20.38,77.93 -19.9,76.34 -20.31,77.84 -20.92,80.2 -20.31,77.98 -20.42,78.42 -20.46,79.12 -20.34,78.1 -20.39,78.45 -20.41,78.7 -20.39,78.35 -20.34,78.42 -20.75,80.39 -20.13,77.29 -20.67,79.59 -20.75,80.06 -20.22,77.23 -20.34,78.28 -20.14,77.51 -19.87,76.82 -19.46,74.66 -20.42,78.54 -19.77,76.51 -20.17,77.51 -19.86,76.59 -20.579,78.96 -20.254,77.7 -20.062,77.01 -19.977,76.68 -2.988,78.5 v 76.23 78.88 75.56 77.99 78.84 77.16 78.9 80.14 77.41 78.35 77.97 79.32 77.11 79.8 77.56 z"
         style="fill:none;stroke:#000000;stroke-width:5;stroke-linecap:butt;stroke-linejoin:miter;stroke-miterlimit:10;stroke-dasharray:none;stroke-opacity:1"
         id="path348"
         inkscape:connector-curvature="0" /><path
         d="m 920,7110 v 0 -1288.02 l 2.988,-78.5 19.977,-76.68 20.062,-77.01 20.254,-77.7 20.579,-78.96 19.86,-76.59 20.17,-77.51 19.77,-76.51 20.42,-78.54 19.46,-74.66 19.87,-76.82 20.14,-77.51 20.34,-78.28 20.22,-77.23 20.75,-80.06 20.67,-79.59 20.13,-77.29 20.75,-80.39 20.34,-78.42 20.39,-78.35 20.41,-78.7 20.39,-78.45 20.34,-78.1 20.46,-79.12 20.42,-78.42 20.31,-77.98 20.92,-80.2 20.31,-77.84 19.9,-76.34 20.38,-77.93 20.86,-80.41 20.48,-78.71 L 920,3272.84 v 0 0 l 634.32,50.34 -17.32,78.71 -17.66,80.41 -17.25,77.93 -16.84,76.34 -17.18,77.84 -17.72,80.2 -17.18,77.98 -17.28,78.42 -17.32,79.12 -17.21,78.1 -17.25,78.45 -17.28,78.7 -17.25,78.35 -17.21,78.42 -17.55,80.39 -17.05,77.29 -17.48,79.59 -17.56,80.06 -17.11,77.23 -17.21,78.28 -17.05,77.51 -16.82,76.82 -16.46,74.66 -17.28,78.54 -16.74,76.51 -17.06,77.51 -16.81,76.59 -17.42,78.96 -17.14,77.7 -16.97,77.01 -16.9,76.68 -6.84,78.5 -5.97,76.23 -6.15,78.88 -5.898,75.56 -6.058,77.99 -6.145,78.84 -6.023,77.16 -6.18,78.9 -6.238,80.14 -6.055,77.41 -6.117,78.35 -6.086,77.97 -6.148,79.32 -6.028,77.11 -6.176,79.8 -6.058,77.56 L 920,7110"
         style="fill:#ffffff;fill-opacity:1;fill-rule:nonzero;stroke:none"
         id="path350"
         inkscape:connector-curvature="0" /><path
         d="m 920,7110 v 0 -1288.02 l 2.988,-78.5 19.977,-76.68 20.062,-77.01 20.254,-77.7 20.579,-78.96 19.86,-76.59 20.17,-77.51 19.77,-76.51 20.42,-78.54 19.46,-74.66 19.87,-76.82 20.14,-77.51 20.34,-78.28 20.22,-77.23 20.75,-80.06 20.67,-79.59 20.13,-77.29 20.75,-80.39 20.34,-78.42 20.39,-78.35 20.41,-78.7 20.39,-78.45 20.34,-78.1 20.46,-79.12 20.42,-78.42 20.31,-77.98 20.92,-80.2 20.31,-77.84 19.9,-76.34 20.38,-77.93 20.86,-80.41 20.48,-78.71 L 920,3272.84 v 0 0 l 634.32,50.34 -17.32,78.71 -17.66,80.41 -17.25,77.93 -16.84,76.34 -17.18,77.84 -17.72,80.2 -17.18,77.98 -17.28,78.42 -17.32,79.12 -17.21,78.1 -17.25,78.45 -17.28,78.7 -17.25,78.35 -17.21,78.42 -17.55,80.39 -17.05,77.29 -17.48,79.59 -17.56,80.06 -17.11,77.23 -17.21,78.28 -17.05,77.51 -16.82,76.82 -16.46,74.66 -17.28,78.54 -16.74,76.51 -17.06,77.51 -16.81,76.59 -17.42,78.96 -17.14,77.7 -16.97,77.01 -16.9,76.68 -6.84,78.5 -5.97,76.23 -6.15,78.88 -5.898,75.56 -6.058,77.99 -6.145,78.84 -6.023,77.16 -6.18,78.9 -6.238,80.14 -6.055,77.41 -6.117,78.35 -6.086,77.97 -6.148,79.32 -6.028,77.11 -6.176,79.8 -6.058,77.56 z"
         style="fill:none;stroke:#000000;stroke-width:5;stroke-linecap:butt;stroke-linejoin:miter;stroke-miterlimit:10;stroke-dasharray:none;stroke-opacity:1"
         id="path352"
         inkscape:connector-curvature="0" /><path
         d="m 920,7110 v 0 l 3.59,-116.8 6.058,-77.56 6.176,-79.8 6.028,-77.11 6.148,-79.32 6.086,-77.97 6.117,-78.35 6.055,-77.41 6.238,-80.14 6.18,-78.9 6.023,-77.16 6.145,-78.84 6.058,-77.99 5.898,-75.56 6.15,-78.88 5.97,-76.23 6.84,-78.5 16.9,-76.68 16.97,-77.01 17.14,-77.7 17.42,-78.96 16.81,-76.59 17.06,-77.51 16.74,-76.51 17.28,-78.54 16.46,-74.66 16.82,-76.82 17.05,-77.51 17.21,-78.28 17.11,-77.23 17.56,-80.06 17.48,-79.59 17.05,-77.29 17.55,-80.39 17.21,-78.42 17.25,-78.35 17.28,-78.7 17.25,-78.45 17.21,-78.1 17.32,-79.12 17.28,-78.42 17.18,-77.98 17.72,-80.2 17.18,-77.84 16.84,-76.34 17.25,-77.93 17.66,-80.41 17.32,-78.71 L 920,3272.84 v 0 0 l 812.31,50.34 -23.09,78.71 -23.52,80.41 -22.96,77.93 -22.43,76.34 -22.89,77.84 -23.58,80.2 -22.89,77.98 -23.02,78.42 -23.05,79.12 -22.93,78.1 -22.99,78.45 -23,78.7 -22.98,78.35 -22.93,78.42 -23.39,80.39 -22.68,77.29 -23.3,79.59 -23.39,80.06 -22.77,77.23 -22.93,78.28 -22.71,77.51 -22.39,76.82 -21.93,74.66 -23.01,78.54 -22.28,76.51 -22.74,77.51 -22.4,76.59 -23.17,78.96 -22.83,77.7 -22.62,77.01 -22.52,76.68 -8.07,78.5 -5.97,76.23 -6.15,78.88 -5.898,75.56 -6.058,77.99 -6.145,78.84 -6.023,77.16 -6.18,78.9 -6.238,80.14 -6.055,77.41 -6.117,78.35 -6.086,77.97 -6.148,79.32 -6.028,77.11 -6.176,79.8 -6.058,77.56 L 920,7110"
         style="fill:#000080;fill-opacity:1;fill-rule:nonzero;stroke:none"
         id="path354"
         inkscape:connector-curvature="0" /><path
         d="m 920,7110 v 0 l 3.59,-116.8 6.058,-77.56 6.176,-79.8 6.028,-77.11 6.148,-79.32 6.086,-77.97 6.117,-78.35 6.055,-77.41 6.238,-80.14 6.18,-78.9 6.023,-77.16 6.145,-78.84 6.058,-77.99 5.898,-75.56 6.15,-78.88 5.97,-76.23 6.84,-78.5 16.9,-76.68 16.97,-77.01 17.14,-77.7 17.42,-78.96 16.81,-76.59 17.06,-77.51 16.74,-76.51 17.28,-78.54 16.46,-74.66 16.82,-76.82 17.05,-77.51 17.21,-78.28 17.11,-77.23 17.56,-80.06 17.48,-79.59 17.05,-77.29 17.55,-80.39 17.21,-78.42 17.25,-78.35 17.28,-78.7 17.25,-78.45 17.21,-78.1 17.32,-79.12 17.28,-78.42 17.18,-77.98 17.72,-80.2 17.18,-77.84 16.84,-76.34 17.25,-77.93 17.66,-80.41 17.32,-78.71 L 920,3272.84 v 0 0 l 812.31,50.34 -23.09,78.71 -23.52,80.41 -22.96,77.93 -22.43,76.34 -22.89,77.84 -23.58,80.2 -22.89,77.98 -23.02,78.42 -23.05,79.12 -22.93,78.1 -22.99,78.45 -23,78.7 -22.98,78.35 -22.93,78.42 -23.39,80.39 -22.68,77.29 -23.3,79.59 -23.39,80.06 -22.77,77.23 -22.93,78.28 -22.71,77.51 -22.39,76.82 -21.93,74.66 -23.01,78.54 -22.28,76.51 -22.74,77.51 -22.4,76.59 -23.17,78.96 -22.83,77.7 -22.62,77.01 -22.52,76.68 -8.07,78.5 -5.97,76.23 -6.15,78.88 -5.898,75.56 -6.058,77.99 -6.145,78.84 -6.023,77.16 -6.18,78.9 -6.238,80.14 -6.055,77.41 -6.117,78.35 -6.086,77.97 -6.148,79.32 -6.028,77.11 -6.176,79.8 -6.058,77.56 z"
         style="fill:none;stroke:#000000;stroke-width:5;stroke-linecap:butt;stroke-linejoin:miter;stroke-miterlimit:10;stroke-dasharray:none;stroke-opacity:1"
         id="path356"
         inkscape:connector-curvature="0" /><path
         d="m 920,7110 v 0 l 3.59,-116.8 6.058,-77.56 6.176,-79.8 6.028,-77.11 6.148,-79.32 6.086,-77.97 6.117,-78.35 6.055,-77.41 6.238,-80.14 6.18,-78.9 6.023,-77.16 6.145,-78.84 6.058,-77.99 5.898,-75.56 6.15,-78.88 5.97,-76.23 8.07,-78.5 22.52,-76.68 22.62,-77.01 22.83,-77.7 23.17,-78.96 22.4,-76.59 22.74,-77.51 22.28,-76.51 23.01,-78.54 21.93,-74.66 22.39,-76.82 22.71,-77.51 22.93,-78.28 22.77,-77.23 23.39,-80.06 23.3,-79.59 22.68,-77.29 23.39,-80.39 22.93,-78.42 22.98,-78.35 23,-78.7 22.99,-78.45 22.93,-78.1 23.05,-79.12 23.02,-78.42 22.89,-77.98 23.58,-80.2 22.89,-77.84 22.43,-76.34 22.96,-77.93 23.52,-80.41 23.09,-78.71 L 920,3272.84 v 0 0 l 1004.41,50.34 -29.35,78.71 -29.88,80.41 -29.16,77.93 -28.5,76.34 -29.1,77.84 -29.94,80.2 -29.1,77.98 -29.25,78.42 -29.27,79.12 -29.14,78.1 -29.22,78.45 -29.19,78.7 -29.22,78.35 -29.13,78.42 -29.73,80.39 -28.8,77.29 -29.61,79.59 -29.73,80.06 -28.92,77.23 -29.13,78.28 -28.86,77.51 -28.43,76.82 -27.87,74.66 -29.25,78.54 -28.3,76.51 -28.88,77.51 -28.47,76.59 -29.43,78.96 -29.01,77.7 -28.74,77.01 -28.62,76.68 -8.26,78.5 -5.97,76.23 -6.15,78.88 -5.898,75.56 -6.058,77.99 -6.145,78.84 -6.023,77.16 -6.18,78.9 -6.238,80.14 -6.055,77.41 -6.117,78.35 -6.086,77.97 -6.148,79.32 -6.028,77.11 -6.176,79.8 -6.058,77.56 L 920,7110"
         style="fill:#008000;fill-opacity:1;fill-rule:nonzero;stroke:none"
         id="path358"
         inkscape:connector-curvature="0" /><path
         d="m 920,7110 v 0 l 3.59,-116.8 6.058,-77.56 6.176,-79.8 6.028,-77.11 6.148,-79.32 6.086,-77.97 6.117,-78.35 6.055,-77.41 6.238,-80.14 6.18,-78.9 6.023,-77.16 6.145,-78.84 6.058,-77.99 5.898,-75.56 6.15,-78.88 5.97,-76.23 8.07,-78.5 22.52,-76.68 22.62,-77.01 22.83,-77.7 23.17,-78.96 22.4,-76.59 22.74,-77.51 22.28,-76.51 23.01,-78.54 21.93,-74.66 22.39,-76.82 22.71,-77.51 22.93,-78.28 22.77,-77.23 23.39,-80.06 23.3,-79.59 22.68,-77.29 23.39,-80.39 22.93,-78.42 22.98,-78.35 23,-78.7 22.99,-78.45 22.93,-78.1 23.05,-79.12 23.02,-78.42 22.89,-77.98 23.58,-80.2 22.89,-77.84 22.43,-76.34 22.96,-77.93 23.52,-80.41 23.09,-78.71 L 920,3272.84 v 0 0 l 1004.41,50.34 -29.35,78.71 -29.88,80.41 -29.16,77.93 -28.5,76.34 -29.1,77.84 -29.94,80.2 -29.1,77.98 -29.25,78.42 -29.27,79.12 -29.14,78.1 -29.22,78.45 -29.19,78.7 -29.22,78.35 -29.13,78.42 -29.73,80.39 -28.8,77.29 -29.61,79.59 -29.73,80.06 -28.92,77.23 -29.13,78.28 -28.86,77.51 -28.43,76.82 -27.87,74.66 -29.25,78.54 -28.3,76.51 -28.88,77.51 -28.47,76.59 -29.43,78.96 -29.01,77.7 -28.74,77.01 -28.62,76.68 -8.26,78.5 -5.97,76.23 -6.15,78.88 -5.898,75.56 -6.058,77.99 -6.145,78.84 -6.023,77.16 -6.18,78.9 -6.238,80.14 -6.055,77.41 -6.117,78.35 -6.086,77.97 -6.148,79.32 -6.028,77.11 -6.176,79.8 -6.058,77.56 z"
         style="fill:none;stroke:#000000;stroke-width:5;stroke-linecap:butt;stroke-linejoin:miter;stroke-miterlimit:10;stroke-dasharray:none;stroke-opacity:1"
         id="path360"
         inkscape:connector-curvature="0" /><path
         d="m 920,7110 v 0 l 3.59,-116.8 6.058,-77.56 6.176,-79.8 6.028,-77.11 6.148,-79.32 6.086,-77.97 6.117,-78.35 6.055,-77.41 6.238,-80.14 6.18,-78.9 6.023,-77.16 6.145,-78.84 6.058,-77.99 5.898,-75.56 6.15,-78.88 5.97,-76.23 8.26,-78.5 28.62,-76.68 28.74,-77.01 29.01,-77.7 29.43,-78.96 28.47,-76.59 28.88,-77.51 28.3,-76.51 29.25,-78.54 27.87,-74.66 28.43,-76.82 28.86,-77.51 29.13,-78.28 28.92,-77.23 29.73,-80.06 29.61,-79.59 28.8,-77.29 29.73,-80.39 29.13,-78.42 29.22,-78.35 29.19,-78.7 29.22,-78.45 29.14,-78.1 29.27,-79.12 29.25,-78.42 29.1,-77.98 29.94,-80.2 29.1,-77.84 28.5,-76.34 29.16,-77.93 29.88,-80.41 29.35,-78.71 L 920,3272.84 v 0 0 l 1223.42,50.34 -36.44,78.71 -37.1,80.41 -36.22,77.93 -35.39,76.34 -36.13,77.84 -37.18,80.2 -36.13,77.98 -36.32,78.42 -36.37,79.12 -36.17,78.1 -36.27,78.45 -36.27,78.7 -36.28,78.35 -36.17,78.42 -36.9,80.39 -35.78,77.29 -36.76,79.59 -36.91,80.06 -35.93,77.23 -36.17,78.28 -35.83,77.51 -35.32,76.82 -34.6,74.66 -36.32,78.54 -35.15,76.51 -35.86,77.51 -35.35,76.59 -36.56,78.96 -36.02,77.7 -35.68,77.01 -35.53,76.68 -9.39,78.5 -5.97,76.23 -6.15,78.88 -5.898,75.56 -6.058,77.99 -6.145,78.84 -6.023,77.16 -6.18,78.9 -6.238,80.14 -6.055,77.41 -6.117,78.35 -6.086,77.97 -6.148,79.32 -6.028,77.11 -6.176,79.8 -6.058,77.56 L 920,7110"
         style="fill:#0080ff;fill-opacity:1;fill-rule:nonzero;stroke:none"
         id="path362"
         inkscape:connector-curvature="0" /><path
         d="m 920,7110 v 0 l 3.59,-116.8 6.058,-77.56 6.176,-79.8 6.028,-77.11 6.148,-79.32 6.086,-77.97 6.117,-78.35 6.055,-77.41 6.238,-80.14 6.18,-78.9 6.023,-77.16 6.145,-78.84 6.058,-77.99 5.898,-75.56 6.15,-78.88 5.97,-76.23 8.26,-78.5 28.62,-76.68 28.74,-77.01 29.01,-77.7 29.43,-78.96 28.47,-76.59 28.88,-77.51 28.3,-76.51 29.25,-78.54 27.87,-74.66 28.43,-76.82 28.86,-77.51 29.13,-78.28 28.92,-77.23 29.73,-80.06 29.61,-79.59 28.8,-77.29 29.73,-80.39 29.13,-78.42 29.22,-78.35 29.19,-78.7 29.22,-78.45 29.14,-78.1 29.27,-79.12 29.25,-78.42 29.1,-77.98 29.94,-80.2 29.1,-77.84 28.5,-76.34 29.16,-77.93 29.88,-80.41 29.35,-78.71 L 920,3272.84 v 0 0 l 1223.42,50.34 -36.44,78.71 -37.1,80.41 -36.22,77.93 -35.39,76.34 -36.13,77.84 -37.18,80.2 -36.13,77.98 -36.32,78.42 -36.37,79.12 -36.17,78.1 -36.27,78.45 -36.27,78.7 -36.28,78.35 -36.17,78.42 -36.9,80.39 -35.78,77.29 -36.76,79.59 -36.91,80.06 -35.93,77.23 -36.17,78.28 -35.83,77.51 -35.32,76.82 -34.6,74.66 -36.32,78.54 -35.15,76.51 -35.86,77.51 -35.35,76.59 -36.56,78.96 -36.02,77.7 -35.68,77.01 -35.53,76.68 -9.39,78.5 -5.97,76.23 -6.15,78.88 -5.898,75.56 -6.058,77.99 -6.145,78.84 -6.023,77.16 -6.18,78.9 -6.238,80.14 -6.055,77.41 -6.117,78.35 -6.086,77.97 -6.148,79.32 -6.028,77.11 -6.176,79.8 -6.058,77.56 z"
         style="fill:none;stroke:#000000;stroke-width:5;stroke-linecap:butt;stroke-linejoin:miter;stroke-miterlimit:10;stroke-dasharray:none;stroke-opacity:1"
         id="path364"
         inkscape:connector-curvature="0" /><path
         d="m 920,7110 v 0 l 3.59,-116.8 6.058,-77.56 6.176,-79.8 6.028,-77.11 6.148,-79.32 6.086,-77.97 6.117,-78.35 6.055,-77.41 6.238,-80.14 6.18,-78.9 6.023,-77.16 6.145,-78.84 6.058,-77.99 5.898,-75.56 6.15,-78.88 5.97,-76.23 9.39,-78.5 35.53,-76.68 35.68,-77.01 36.02,-77.7 36.56,-78.96 35.35,-76.59 35.86,-77.51 35.15,-76.51 36.32,-78.54 34.6,-74.66 35.32,-76.82 35.83,-77.51 36.17,-78.28 35.93,-77.23 36.91,-80.06 36.76,-79.59 35.78,-77.29 36.9,-80.39 36.17,-78.42 36.28,-78.35 36.27,-78.7 36.27,-78.45 36.17,-78.1 36.37,-79.12 36.32,-78.42 36.13,-77.98 37.18,-80.2 36.13,-77.84 35.39,-76.34 36.22,-77.93 37.1,-80.41 36.44,-78.71 L 920,3272.84 v 0 0 l 1226.4,50.34 -31.71,78.71 -32.3,80.41 -31.55,77.93 -30.8,76.34 -31.45,77.84 -32.39,80.2 -31.45,77.98 -31.61,78.42 -31.68,79.12 -31.48,78.1 -31.58,78.45 -31.59,78.7 -31.58,78.35 -31.48,78.42 -32.13,80.39 -31.16,77.29 -32.01,79.59 -32.13,80.06 -31.28,77.23 -31.49,78.28 -31.19,77.51 -30.77,76.82 -30.12,74.66 -31.61,78.54 -30.62,76.51 -31.22,77.51 -30.77,76.59 -31.84,78.96 -31.36,77.7 -31.06,77.01 -30.93,76.68 -14.2,78.5 -14.89,76.23 -15.34,78.88 -14.74,75.56 -15.12,77.99 -15.34,78.84 -15.04,77.16 -15.42,78.9 -15.56,80.14 -15.12,77.41 -15.27,78.35 -15.188,77.97 -15.344,79.32 -15.039,77.11 -15.418,79.8 L 929.91,6993.2 920,7110"
         style="fill:#00ff80;fill-opacity:1;fill-rule:nonzero;stroke:none"
         id="path366"
         inkscape:connector-curvature="0" /><path
         d="m 920,7110 v 0 l 3.59,-116.8 6.058,-77.56 6.176,-79.8 6.028,-77.11 6.148,-79.32 6.086,-77.97 6.117,-78.35 6.055,-77.41 6.238,-80.14 6.18,-78.9 6.023,-77.16 6.145,-78.84 6.058,-77.99 5.898,-75.56 6.15,-78.88 5.97,-76.23 9.39,-78.5 35.53,-76.68 35.68,-77.01 36.02,-77.7 36.56,-78.96 35.35,-76.59 35.86,-77.51 35.15,-76.51 36.32,-78.54 34.6,-74.66 35.32,-76.82 35.83,-77.51 36.17,-78.28 35.93,-77.23 36.91,-80.06 36.76,-79.59 35.78,-77.29 36.9,-80.39 36.17,-78.42 36.28,-78.35 36.27,-78.7 36.27,-78.45 36.17,-78.1 36.37,-79.12 36.32,-78.42 36.13,-77.98 37.18,-80.2 36.13,-77.84 35.39,-76.34 36.22,-77.93 37.1,-80.41 36.44,-78.71 L 920,3272.84 v 0 0 l 1226.4,50.34 -31.71,78.71 -32.3,80.41 -31.55,77.93 -30.8,76.34 -31.45,77.84 -32.39,80.2 -31.45,77.98 -31.61,78.42 -31.68,79.12 -31.48,78.1 -31.58,78.45 -31.59,78.7 -31.58,78.35 -31.48,78.42 -32.13,80.39 -31.16,77.29 -32.01,79.59 -32.13,80.06 -31.28,77.23 -31.49,78.28 -31.19,77.51 -30.77,76.82 -30.12,74.66 -31.61,78.54 -30.62,76.51 -31.22,77.51 -30.77,76.59 -31.84,78.96 -31.36,77.7 -31.06,77.01 -30.93,76.68 -14.2,78.5 -14.89,76.23 -15.34,78.88 -14.74,75.56 -15.12,77.99 -15.34,78.84 -15.04,77.16 -15.42,78.9 -15.56,80.14 -15.12,77.41 -15.27,78.35 -15.188,77.97 -15.344,79.32 -15.039,77.11 -15.418,79.8 -15.121,77.56 z"
         style="fill:none;stroke:#000000;stroke-width:5;stroke-linecap:butt;stroke-linejoin:miter;stroke-miterlimit:10;stroke-dasharray:none;stroke-opacity:1"
         id="path368"
         inkscape:connector-curvature="0" /><path
         d="m 920,7110 v 0 l 9.91,-116.8 15.121,-77.56 15.418,-79.8 15.039,-77.11 15.344,-79.32 15.188,-77.97 15.27,-78.35 15.12,-77.41 15.56,-80.14 15.42,-78.9 15.04,-77.16 15.34,-78.84 15.12,-77.99 14.74,-75.56 15.34,-78.88 14.89,-76.23 14.2,-78.5 30.93,-76.68 31.06,-77.01 31.36,-77.7 31.84,-78.96 30.77,-76.59 31.22,-77.51 30.62,-76.51 31.61,-78.54 30.12,-74.66 30.77,-76.82 31.19,-77.51 31.49,-78.28 31.28,-77.23 32.13,-80.06 32.01,-79.59 31.16,-77.29 32.13,-80.39 31.48,-78.42 31.58,-78.35 31.59,-78.7 31.58,-78.45 31.48,-78.1 31.68,-79.12 31.61,-78.42 31.45,-77.98 32.39,-80.2 31.45,-77.84 30.8,-76.34 31.55,-77.93 32.3,-80.41 31.71,-78.71 L 920,3272.84 v 0 0 l 1457.41,50.34 -39.23,78.71 -39.96,80.41 -38.99,77.93 -38.13,76.34 -38.88,77.84 -40.03,80.2 -38.92,77.98 -39.1,78.42 -39.23,79.12 -38.93,78.1 -39.08,78.45 -39.02,78.7 -39.08,78.35 -38.99,78.42 -39.71,80.39 -38.51,77.29 -39.58,79.59 -39.79,80.06 -38.68,77.23 -38.95,78.28 -38.6,77.51 -38.05,76.82 -37.27,74.66 -39.1,78.54 -37.81,76.51 -38.64,77.51 -38.02,76.59 -39.36,78.96 -38.77,77.7 -38.43,77.01 -38.27,76.68 -14.44,78.5 -14.89,76.23 -15.34,78.88 -14.74,75.56 -15.12,77.99 -15.34,78.84 -15.04,77.16 -15.42,78.9 -15.56,80.14 -15.12,77.41 -15.27,78.35 -15.188,77.97 -15.344,79.32 -15.039,77.11 -15.418,79.8 L 929.91,6993.2 920,7110"
         style="fill:#800000;fill-opacity:1;fill-rule:nonzero;stroke:none"
         id="path370"
         inkscape:connector-curvature="0" /><path
         d="m 920,7110 v 0 l 9.91,-116.8 15.121,-77.56 15.418,-79.8 15.039,-77.11 15.344,-79.32 15.188,-77.97 15.27,-78.35 15.12,-77.41 15.56,-80.14 15.42,-78.9 15.04,-77.16 15.34,-78.84 15.12,-77.99 14.74,-75.56 15.34,-78.88 14.89,-76.23 14.2,-78.5 30.93,-76.68 31.06,-77.01 31.36,-77.7 31.84,-78.96 30.77,-76.59 31.22,-77.51 30.62,-76.51 31.61,-78.54 30.12,-74.66 30.77,-76.82 31.19,-77.51 31.49,-78.28 31.28,-77.23 32.13,-80.06 32.01,-79.59 31.16,-77.29 32.13,-80.39 31.48,-78.42 31.58,-78.35 31.59,-78.7 31.58,-78.45 31.48,-78.1 31.68,-79.12 31.61,-78.42 31.45,-77.98 32.39,-80.2 31.45,-77.84 30.8,-76.34 31.55,-77.93 32.3,-80.41 31.71,-78.71 L 920,3272.84 v 0 0 l 1457.41,50.34 -39.23,78.71 -39.96,80.41 -38.99,77.93 -38.13,76.34 -38.88,77.84 -40.03,80.2 -38.92,77.98 -39.1,78.42 -39.23,79.12 -38.93,78.1 -39.08,78.45 -39.02,78.7 -39.08,78.35 -38.99,78.42 -39.71,80.39 -38.51,77.29 -39.58,79.59 -39.79,80.06 -38.68,77.23 -38.95,78.28 -38.6,77.51 -38.05,76.82 -37.27,74.66 -39.1,78.54 -37.81,76.51 -38.64,77.51 -38.02,76.59 -39.36,78.96 -38.77,77.7 -38.43,77.01 -38.27,76.68 -14.44,78.5 -14.89,76.23 -15.34,78.88 -14.74,75.56 -15.12,77.99 -15.34,78.84 -15.04,77.16 -15.42,78.9 -15.56,80.14 -15.12,77.41 -15.27,78.35 -15.188,77.97 -15.344,79.32 -15.039,77.11 -15.418,79.8 -15.121,77.56 z"
         style="fill:none;stroke:#000000;stroke-width:5;stroke-linecap:butt;stroke-linejoin:miter;stroke-miterlimit:10;stroke-dasharray:none;stroke-opacity:1"
         id="path372"
         inkscape:connector-curvature="0" /><path
         d="m 920,7110 v 0 l 9.91,-116.8 15.121,-77.56 15.418,-79.8 15.039,-77.11 15.344,-79.32 15.188,-77.97 15.27,-78.35 15.12,-77.41 15.56,-80.14 15.42,-78.9 15.04,-77.16 15.34,-78.84 15.12,-77.99 14.74,-75.56 15.34,-78.88 14.89,-76.23 14.44,-78.5 38.27,-76.68 38.43,-77.01 38.77,-77.7 39.36,-78.96 38.02,-76.59 38.64,-77.51 37.81,-76.51 39.1,-78.54 37.27,-74.66 38.05,-76.82 38.6,-77.51 38.95,-78.28 38.68,-77.23 39.79,-80.06 39.58,-79.59 38.51,-77.29 39.71,-80.39 38.99,-78.42 39.08,-78.35 39.02,-78.7 39.08,-78.45 38.93,-78.1 39.23,-79.12 39.1,-78.42 38.92,-77.98 40.03,-80.2 38.88,-77.84 38.13,-76.34 38.99,-77.93 39.96,-80.41 39.23,-78.71 L 920,3272.84 v 0 0 l 1462.39,50.34 -31.37,78.71 -31.95,80.41 -31.19,77.93 -30.5,76.34 -31.08,77.84 -32.03,80.2 -31.12,77.98 -31.27,78.42 -31.4,79.12 -31.13,78.1 -31.25,78.45 -31.22,78.7 -31.25,78.35 -31.19,78.42 -31.75,80.39 -30.81,77.29 -31.65,79.59 -31.82,80.06 -30.95,77.23 -31.15,78.28 -30.86,77.51 -30.45,76.82 -29.81,74.66 -31.26,78.54 -30.24,76.51 -30.92,77.51 -30.38,76.59 -31.5,78.96 -31,77.7 -30.73,77.01 -30.6,76.68 -22.46,78.5 -29.76,76.23 -30.67,78.88 -29.46,75.56 -30.22,77.99 -30.67,78.84 -30.06,77.16 -30.82,78.9 -31.12,80.14 -30.22,77.41 -30.52,78.35 -30.36,77.97 -30.68,79.32 -30.06,77.11 -30.816,79.8 -30.219,77.56 L 920,7110"
         style="fill:#8000ff;fill-opacity:1;fill-rule:nonzero;stroke:none"
         id="path374"
         inkscape:connector-curvature="0" /><path
         d="m 920,7110 v 0 l 9.91,-116.8 15.121,-77.56 15.418,-79.8 15.039,-77.11 15.344,-79.32 15.188,-77.97 15.27,-78.35 15.12,-77.41 15.56,-80.14 15.42,-78.9 15.04,-77.16 15.34,-78.84 15.12,-77.99 14.74,-75.56 15.34,-78.88 14.89,-76.23 14.44,-78.5 38.27,-76.68 38.43,-77.01 38.77,-77.7 39.36,-78.96 38.02,-76.59 38.64,-77.51 37.81,-76.51 39.1,-78.54 37.27,-74.66 38.05,-76.82 38.6,-77.51 38.95,-78.28 38.68,-77.23 39.79,-80.06 39.58,-79.59 38.51,-77.29 39.71,-80.39 38.99,-78.42 39.08,-78.35 39.02,-78.7 39.08,-78.45 38.93,-78.1 39.23,-79.12 39.1,-78.42 38.92,-77.98 40.03,-80.2 38.88,-77.84 38.13,-76.34 38.99,-77.93 39.96,-80.41 39.23,-78.71 L 920,3272.84 v 0 0 l 1462.39,50.34 -31.37,78.71 -31.95,80.41 -31.19,77.93 -30.5,76.34 -31.08,77.84 -32.03,80.2 -31.12,77.98 -31.27,78.42 -31.4,79.12 -31.13,78.1 -31.25,78.45 -31.22,78.7 -31.25,78.35 -31.19,78.42 -31.75,80.39 -30.81,77.29 -31.65,79.59 -31.82,80.06 -30.95,77.23 -31.15,78.28 -30.86,77.51 -30.45,76.82 -29.81,74.66 -31.26,78.54 -30.24,76.51 -30.92,77.51 -30.38,76.59 -31.5,78.96 -31,77.7 -30.73,77.01 -30.6,76.68 -22.46,78.5 -29.76,76.23 -30.67,78.88 -29.46,75.56 -30.22,77.99 -30.67,78.84 -30.06,77.16 -30.82,78.9 -31.12,80.14 -30.22,77.41 -30.52,78.35 -30.36,77.97 -30.68,79.32 -30.06,77.11 -30.816,79.8 -30.219,77.56 z"
         style="fill:none;stroke:#000000;stroke-width:5;stroke-linecap:butt;stroke-linejoin:miter;stroke-miterlimit:10;stroke-dasharray:none;stroke-opacity:1"
         id="path376"
         inkscape:connector-curvature="0" /><path
         d="m 920,7110 v 0 l 20.445,-116.8 30.219,-77.56 30.816,-79.8 30.06,-77.11 30.68,-79.32 30.36,-77.97 30.52,-78.35 30.22,-77.41 31.12,-80.14 30.82,-78.9 30.06,-77.16 30.67,-78.84 30.22,-77.99 29.46,-75.56 30.67,-78.88 29.76,-76.23 22.46,-78.5 30.6,-76.68 30.73,-77.01 31,-77.7 31.5,-78.96 30.38,-76.59 30.92,-77.51 30.24,-76.51 31.26,-78.54 29.81,-74.66 30.45,-76.82 30.86,-77.51 31.15,-78.28 30.95,-77.23 31.82,-80.06 31.65,-79.59 30.81,-77.29 31.75,-80.39 31.19,-78.42 31.25,-78.35 31.22,-78.7 31.25,-78.45 31.13,-78.1 31.4,-79.12 31.27,-78.42 31.12,-77.98 32.03,-80.2 31.08,-77.84 30.5,-76.34 31.19,-77.93 31.95,-80.41 31.37,-78.71 L 920,3272.84 v 0 0 l 1467.45,50.34 -23.4,78.71 -23.8,80.41 -23.19,77.93 -22.73,76.34 -23.17,77.84 -23.79,80.2 -23.2,77.98 -23.3,78.42 -23.37,79.12 -23.18,78.1 -23.3,78.45 -23.19,78.7 -23.31,78.35 -23.24,78.42 -23.66,80.39 -22.9,77.29 -23.58,79.59 -23.73,80.06 -23.01,77.23 -23.2,78.28 -23.01,77.51 -22.63,76.82 -22.23,74.66 -23.28,78.54 -22.49,76.51 -23.02,77.51 -22.66,76.59 -23.41,78.96 -23.08,77.7 -22.9,77.01 -22.81,76.68 -29.08,78.5 -44.94,76.23 -46.3,78.88 -44.48,75.56 -45.62,77.99 -46.3,78.84 -45.39,77.16 -46.53,78.9 -46.99,80.14 -45.62,77.41 -46.08,78.35 -45.85,77.97 -46.3,79.32 -45.39,77.11 -46.533,79.8 -45.621,77.56 L 920,7110"
         style="fill:#80e600;fill-opacity:1;fill-rule:nonzero;stroke:none"
         id="path378"
         inkscape:connector-curvature="0" /><path
         d="m 920,7110 v 0 l 20.445,-116.8 30.219,-77.56 30.816,-79.8 30.06,-77.11 30.68,-79.32 30.36,-77.97 30.52,-78.35 30.22,-77.41 31.12,-80.14 30.82,-78.9 30.06,-77.16 30.67,-78.84 30.22,-77.99 29.46,-75.56 30.67,-78.88 29.76,-76.23 22.46,-78.5 30.6,-76.68 30.73,-77.01 31,-77.7 31.5,-78.96 30.38,-76.59 30.92,-77.51 30.24,-76.51 31.26,-78.54 29.81,-74.66 30.45,-76.82 30.86,-77.51 31.15,-78.28 30.95,-77.23 31.82,-80.06 31.65,-79.59 30.81,-77.29 31.75,-80.39 31.19,-78.42 31.25,-78.35 31.22,-78.7 31.25,-78.45 31.13,-78.1 31.4,-79.12 31.27,-78.42 31.12,-77.98 32.03,-80.2 31.08,-77.84 30.5,-76.34 31.19,-77.93 31.95,-80.41 31.37,-78.71 L 920,3272.84 v 0 0 l 1467.45,50.34 -23.4,78.71 -23.8,80.41 -23.19,77.93 -22.73,76.34 -23.17,77.84 -23.79,80.2 -23.2,77.98 -23.3,78.42 -23.37,79.12 -23.18,78.1 -23.3,78.45 -23.19,78.7 -23.31,78.35 -23.24,78.42 -23.66,80.39 -22.9,77.29 -23.58,79.59 -23.73,80.06 -23.01,77.23 -23.2,78.28 -23.01,77.51 -22.63,76.82 -22.23,74.66 -23.28,78.54 -22.49,76.51 -23.02,77.51 -22.66,76.59 -23.41,78.96 -23.08,77.7 -22.9,77.01 -22.81,76.68 -29.08,78.5 -44.94,76.23 -46.3,78.88 -44.48,75.56 -45.62,77.99 -46.3,78.84 -45.39,77.16 -46.53,78.9 -46.99,80.14 -45.62,77.41 -46.08,78.35 -45.85,77.97 -46.3,79.32 -45.39,77.11 -46.533,79.8 -45.621,77.56 z"
         style="fill:none;stroke:#000000;stroke-width:5;stroke-linecap:butt;stroke-linejoin:miter;stroke-miterlimit:10;stroke-dasharray:none;stroke-opacity:1"
         id="path380"
         inkscape:connector-curvature="0" /><path
         d="m 920,7110 v 0 l 32.656,-116.8 45.621,-77.56 46.533,-79.8 45.39,-77.11 46.3,-79.32 45.85,-77.97 46.08,-78.35 45.62,-77.41 46.99,-80.14 46.53,-78.9 45.39,-77.16 46.3,-78.84 45.62,-77.99 44.48,-75.56 46.3,-78.88 44.94,-76.23 29.08,-78.5 22.81,-76.68 22.9,-77.01 23.08,-77.7 23.41,-78.96 22.66,-76.59 23.02,-77.51 22.49,-76.51 23.28,-78.54 22.23,-74.66 22.63,-76.82 23.01,-77.51 23.2,-78.28 23.01,-77.23 23.73,-80.06 23.58,-79.59 22.9,-77.29 23.66,-80.39 23.24,-78.42 23.31,-78.35 23.19,-78.7 23.3,-78.45 23.18,-78.1 23.37,-79.12 23.3,-78.42 23.2,-77.98 23.79,-80.2 23.17,-77.84 22.73,-76.34 23.19,-77.93 23.8,-80.41 23.4,-78.71 L 920,3272.84 v 0 0 l 1474.5,50.34 -12.27,78.71 -12.47,80.41 -12.15,77.93 -11.93,76.34 -12.12,77.84 -12.47,80.2 -12.16,77.98 -12.21,78.42 -12.29,79.12 -12.13,78.1 -12.22,78.45 -12.14,78.7 -12.23,78.35 -12.2,78.42 -12.38,80.39 -12,77.29 -12.35,79.59 -12.45,80.06 -12.06,77.23 -12.17,78.28 -12.05,77.51 -11.88,76.82 -11.65,74.66 -12.2,78.54 -11.77,76.51 -12.08,77.51 -11.85,76.59 -12.27,78.96 -12.08,77.7 -12.01,77.01 -11.96,76.68 -38.57,78.5 -66,76.23 -68,78.88 -65.32,75.56 -67,77.99 -68,78.84 -66.66,77.16 -68.34,78.9 -69,80.14 -67,77.41 -67.67,78.35 -67.33,77.97 -68,79.32 -66.66,77.11 -68.34,79.8 -66.992,77.56 L 920,7110"
         style="fill:#80ffff;fill-opacity:1;fill-rule:nonzero;stroke:none"
         id="path382"
         inkscape:connector-curvature="0" /><path
         d="m 920,7110 v 0 l 32.656,-116.8 45.621,-77.56 46.533,-79.8 45.39,-77.11 46.3,-79.32 45.85,-77.97 46.08,-78.35 45.62,-77.41 46.99,-80.14 46.53,-78.9 45.39,-77.16 46.3,-78.84 45.62,-77.99 44.48,-75.56 46.3,-78.88 44.94,-76.23 29.08,-78.5 22.81,-76.68 22.9,-77.01 23.08,-77.7 23.41,-78.96 22.66,-76.59 23.02,-77.51 22.49,-76.51 23.28,-78.54 22.23,-74.66 22.63,-76.82 23.01,-77.51 23.2,-78.28 23.01,-77.23 23.73,-80.06 23.58,-79.59 22.9,-77.29 23.66,-80.39 23.24,-78.42 23.31,-78.35 23.19,-78.7 23.3,-78.45 23.18,-78.1 23.37,-79.12 23.3,-78.42 23.2,-77.98 23.79,-80.2 23.17,-77.84 22.73,-76.34 23.19,-77.93 23.8,-80.41 23.4,-78.71 L 920,3272.84 v 0 0 l 1474.5,50.34 -12.27,78.71 -12.47,80.41 -12.15,77.93 -11.93,76.34 -12.12,77.84 -12.47,80.2 -12.16,77.98 -12.21,78.42 -12.29,79.12 -12.13,78.1 -12.22,78.45 -12.14,78.7 -12.23,78.35 -12.2,78.42 -12.38,80.39 -12,77.29 -12.35,79.59 -12.45,80.06 -12.06,77.23 -12.17,78.28 -12.05,77.51 -11.88,76.82 -11.65,74.66 -12.2,78.54 -11.77,76.51 -12.08,77.51 -11.85,76.59 -12.27,78.96 -12.08,77.7 -12.01,77.01 -11.96,76.68 -38.57,78.5 -66,76.23 -68,78.88 -65.32,75.56 -67,77.99 -68,78.84 -66.66,77.16 -68.34,78.9 -69,80.14 -67,77.41 -67.67,78.35 -67.33,77.97 -68,79.32 -66.66,77.11 -68.34,79.8 -66.992,77.56 z"
         style="fill:none;stroke:#000000;stroke-width:5;stroke-linecap:butt;stroke-linejoin:miter;stroke-miterlimit:10;stroke-dasharray:none;stroke-opacity:1"
         id="path384"
         inkscape:connector-curvature="0" /><path
         d="m 920,7110 v 0 l 49.418,-116.8 66.992,-77.56 68.34,-79.8 66.66,-77.11 68,-79.32 67.33,-77.97 67.67,-78.35 67,-77.41 69,-80.14 68.34,-78.9 66.66,-77.16 68,-78.84 67,-77.99 65.32,-75.56 68,-78.88 66,-76.23 38.57,-78.5 11.96,-76.68 12.01,-77.01 12.08,-77.7 12.27,-78.96 11.85,-76.59 12.08,-77.51 11.77,-76.51 12.2,-78.54 11.65,-74.66 11.88,-76.82 12.05,-77.51 12.17,-78.28 12.06,-77.23 12.45,-80.06 12.35,-79.59 12,-77.29 12.38,-80.39 12.2,-78.42 12.23,-78.35 12.14,-78.7 12.22,-78.45 12.13,-78.1 12.29,-79.12 12.21,-78.42 12.16,-77.98 12.47,-80.2 12.12,-77.84 11.93,-76.34 12.15,-77.93 12.47,-80.41 12.27,-78.71 L 920,3272.84 v 0 0 l 1529.28,50.34 72.3,78.71 73.47,80.41 71.49,77.93 70.16,76.34 71.67,77.84 73.48,80.2 71.63,77.98 71.88,78.42 71.82,79.12 71.66,78.1 72.03,78.45 71.65,78.7 71.87,78.35 71.59,78.42 73.1,80.39 70.71,77.29 72.98,79.59 73.04,80.06 71.11,77.23 71.63,78.28 70.96,77.51 69.76,76.82 68.58,74.66 71.9,78.54 69.55,76.51 71.09,77.51 70.09,76.59 72.29,78.96 71.25,77.7 70.7,77.01 70.44,76.68 74.84,78.5 -225.71,76.23 -232.64,78.88 -223.49,75.56 -229.18,77.99 -232.64,78.84 -228.07,77.16 -233.91,78.9 -235.97,80.14 -229.33,77.41 -231.54,78.35 -230.28,77.97 -232.65,79.32 -228.07,77.11 -233.76,79.8 -229.32,77.56 L 920,7110"
         style="fill:#ff0080;fill-opacity:1;fill-rule:nonzero;stroke:none"
         id="path386"
         inkscape:connector-curvature="0" /><path
         d="m 920,7110 v 0 l 49.418,-116.8 66.992,-77.56 68.34,-79.8 66.66,-77.11 68,-79.32 67.33,-77.97 67.67,-78.35 67,-77.41 69,-80.14 68.34,-78.9 66.66,-77.16 68,-78.84 67,-77.99 65.32,-75.56 68,-78.88 66,-76.23 38.57,-78.5 11.96,-76.68 12.01,-77.01 12.08,-77.7 12.27,-78.96 11.85,-76.59 12.08,-77.51 11.77,-76.51 12.2,-78.54 11.65,-74.66 11.88,-76.82 12.05,-77.51 12.17,-78.28 12.06,-77.23 12.45,-80.06 12.35,-79.59 12,-77.29 12.38,-80.39 12.2,-78.42 12.23,-78.35 12.14,-78.7 12.22,-78.45 12.13,-78.1 12.29,-79.12 12.21,-78.42 12.16,-77.98 12.47,-80.2 12.12,-77.84 11.93,-76.34 12.15,-77.93 12.47,-80.41 12.27,-78.71 L 920,3272.84 v 0 0 l 1529.28,50.34 72.3,78.71 73.47,80.41 71.49,77.93 70.16,76.34 71.67,77.84 73.48,80.2 71.63,77.98 71.88,78.42 71.82,79.12 71.66,78.1 72.03,78.45 71.65,78.7 71.87,78.35 71.59,78.42 73.1,80.39 70.71,77.29 72.98,79.59 73.04,80.06 71.11,77.23 71.63,78.28 70.96,77.51 69.76,76.82 68.58,74.66 71.9,78.54 69.55,76.51 71.09,77.51 70.09,76.59 72.29,78.96 71.25,77.7 70.7,77.01 70.44,76.68 74.84,78.5 -225.71,76.23 -232.64,78.88 -223.49,75.56 -229.18,77.99 -232.64,78.84 -228.07,77.16 -233.91,78.9 -235.97,80.14 -229.33,77.41 -231.54,78.35 -230.28,77.97 -232.65,79.32 -228.07,77.11 -233.76,79.8 -229.32,77.56 z"
         style="fill:none;stroke:#000000;stroke-width:5;stroke-linecap:butt;stroke-linejoin:miter;stroke-miterlimit:10;stroke-dasharray:none;stroke-opacity:1"
         id="path388"
         inkscape:connector-curvature="0" /></g></g></svg>