<?xml version="1.0" encoding="UTF-8" standalone="no"?>
<!-- Created with Inkscape (http://www.inkscape.org/) -->

<svg
   xmlns:dc="http://purl.org/dc/elements/1.1/"
   xmlns:cc="http://creativecommons.org/ns#"
   xmlns:rdf="http://www.w3.org/1999/02/22-rdf-syntax-ns#"
   xmlns:svg="http://www.w3.org/2000/svg"
   xmlns="http://www.w3.org/2000/svg"
   xmlns:sodipodi="http://sodipodi.sourceforge.net/DTD/sodipodi-0.dtd"
   xmlns:inkscape="http://www.inkscape.org/namespaces/inkscape"
   version="1.1"
   id="svg228"
   xml:space="preserve"
   width="864.66663"
   height="576.66663"
   viewBox="0 0 864.66663 576.66663"
   sodipodi:docname="attempt4.svg"
   inkscape:version="0.92.1 r"><metadata
     id="metadata234"><rdf:RDF><cc:Work
         rdf:about=""><dc:format>image/svg+xml</dc:format><dc:type
           rdf:resource="http://purl.org/dc/dcmitype/StillImage" /><dc:title></dc:title></cc:Work></rdf:RDF></metadata><defs
     id="defs232" /><sodipodi:namedview
     pagecolor="#ffffff"
     bordercolor="#666666"
     borderopacity="1"
     objecttolerance="10"
     gridtolerance="10"
     guidetolerance="10"
     inkscape:pageopacity="0"
     inkscape:pageshadow="2"
     inkscape:window-width="640"
     inkscape:window-height="480"
     id="namedview230"
     showgrid="false"
     fit-margin-top="0"
     fit-margin-left="0"
     fit-margin-right="0"
     fit-margin-bottom="0"
     inkscape:zoom="0.28921569"
     inkscape:cx="480.33331"
     inkscape:cy="312.33334"
     inkscape:window-x="901"
     inkscape:window-y="117"
     inkscape:window-maximized="0"
     inkscape:current-layer="g236" /><g
     id="g236"
     inkscape:groupmode="layer"
     inkscape:label="ink_ext_XXXXXX"
     transform="matrix(0,-1.3333333,-1.3333333,0,1008.3333,672.33332)"><g
       id="g238"
       transform="scale(0.1)"><path
         d="M 720,1080 H 5040 V 7560 H 720 Z"
         style="fill:none;stroke:#000000;stroke-width:5;stroke-linecap:butt;stroke-linejoin:miter;stroke-miterlimit:10;stroke-dasharray:none;stroke-opacity:1"
         id="path240"
         inkscape:connector-curvature="0" /><path
         d="m 4790,1130 h 200 v 6380 h -200 z"
         style="fill:none;stroke:#000000;stroke-width:5;stroke-linecap:butt;stroke-linejoin:miter;stroke-miterlimit:10;stroke-dasharray:none;stroke-opacity:1"
         id="path242"
         inkscape:connector-curvature="0" /><g
         id="g244"
         transform="scale(10)"><text
           transform="matrix(0,-1,-1,0,485,745)"
           style="font-variant:normal;font-weight:normal;font-size:12px;font-family:Helvetica;-inkscape-font-specification:Helvetica;writing-mode:lr-tb;fill:#000000;fill-opacity:1;fill-rule:nonzero;stroke:none"
           id="text248"><tspan
             x="0 6.6719999 10.008 13.344 20.016001 30.011999 36.683998 40.02 46.692001 50.028 56.700001 63.372002 66.708 73.379997 80.052002 83.388 90.059998 96.732002 100.068 107.076 115.74 123.072 131.076 134.412 138.408 145.08 244.96487 251.63689 258.30887 261.64487 268.31689 274.98889 281.66089 284.99689 291.66888 297.66888 301.00488 307.67688 313.67688 317.01288 323.01288 326.34888 332.34888 339.02087 345.02087 351.69287 358.36487 365.03687 502.58209 510.58609 517.25806 523.93005 527.26605 535.27008 541.94208 545.93811 549.27411 555.94611 562.6181 565.9541 572.6261 579.2981 582.63409 589.30609 595.97809 599.31409 605.98608 612.65808 619.33008"
             y="0"
             sodipodi:role="line"
             id="tspan246">attempt4 10 90 30 +RTS -hc90,397 bytes x secondsSun Apr 23 22:09 2017</tspan></text>
</g><path
         d="M 920,7110 V 3187.8"
         style="fill:none;stroke:#000000;stroke-width:5;stroke-linecap:butt;stroke-linejoin:miter;stroke-miterlimit:10;stroke-dasharray:none;stroke-opacity:1"
         id="path250"
         inkscape:connector-curvature="0" /><g
         id="g252"
         transform="scale(10)"><text
           transform="matrix(0,-1,-1,0,77,356.019)"
           style="font-variant:normal;font-weight:normal;font-size:10px;font-family:Helvetica;-inkscape-font-specification:Helvetica;writing-mode:lr-tb;fill:#000000;fill-opacity:1;fill-rule:nonzero;stroke:none"
           id="text256"><tspan
             x="0 5 10.56 15.56 21.120001 26.68 32.240002"
             y="0"
             sodipodi:role="line"
             id="tspan254">seconds</tspan></text>
</g><path
         d="M 920,7110 H 880"
         style="fill:none;stroke:#000000;stroke-width:5;stroke-linecap:butt;stroke-linejoin:miter;stroke-miterlimit:10;stroke-dasharray:none;stroke-opacity:1"
         id="path258"
         inkscape:connector-curvature="0" /><g
         id="g260"
         transform="scale(10)"><text
           transform="matrix(0,-1,-1,0,77,717.95)"
           style="font-variant:normal;font-weight:normal;font-size:10px;font-family:Helvetica;-inkscape-font-specification:Helvetica;writing-mode:lr-tb;fill:#000000;fill-opacity:1;fill-rule:nonzero;stroke:none"
           id="text264"><tspan
             x="0 5.5599999 8.3400002"
             y="0"
             sodipodi:role="line"
             id="tspan262">0.0</tspan></text>
</g><path
         d="M 920,6788.84 H 880"
         style="fill:none;stroke:#000000;stroke-width:5;stroke-linecap:butt;stroke-linejoin:miter;stroke-miterlimit:10;stroke-dasharray:none;stroke-opacity:1"
         id="path266"
         inkscape:connector-curvature="0" /><g
         id="g268"
         transform="scale(10)"><text
           transform="matrix(0,-1,-1,0,77,685.833)"
           style="font-variant:normal;font-weight:normal;font-size:10px;font-family:Helvetica;-inkscape-font-specification:Helvetica;writing-mode:lr-tb;fill:#000000;fill-opacity:1;fill-rule:nonzero;stroke:none"
           id="text272"><tspan
             x="0 5.5599999 8.3400002"
             y="0"
             sodipodi:role="line"
             id="tspan270">0.2</tspan></text>
</g><path
         d="M 920,6467.68 H 880"
         style="fill:none;stroke:#000000;stroke-width:5;stroke-linecap:butt;stroke-linejoin:miter;stroke-miterlimit:10;stroke-dasharray:none;stroke-opacity:1"
         id="path274"
         inkscape:connector-curvature="0" /><g
         id="g276"
         transform="scale(10)"><text
           transform="matrix(0,-1,-1,0,77,653.717)"
           style="font-variant:normal;font-weight:normal;font-size:10px;font-family:Helvetica;-inkscape-font-specification:Helvetica;writing-mode:lr-tb;fill:#000000;fill-opacity:1;fill-rule:nonzero;stroke:none"
           id="text280"><tspan
             x="0 5.5599999 8.3400002"
             y="0"
             sodipodi:role="line"
             id="tspan278">0.4</tspan></text>
</g><path
         d="M 920,6146.51 H 880"
         style="fill:none;stroke:#000000;stroke-width:5;stroke-linecap:butt;stroke-linejoin:miter;stroke-miterlimit:10;stroke-dasharray:none;stroke-opacity:1"
         id="path282"
         inkscape:connector-curvature="0" /><g
         id="g284"
         transform="scale(10)"><text
           transform="matrix(0,-1,-1,0,77,621.601)"
           style="font-variant:normal;font-weight:normal;font-size:10px;font-family:Helvetica;-inkscape-font-specification:Helvetica;writing-mode:lr-tb;fill:#000000;fill-opacity:1;fill-rule:nonzero;stroke:none"
           id="text288"><tspan
             x="0 5.5599999 8.3400002"
             y="0"
             sodipodi:role="line"
             id="tspan286">0.6</tspan></text>
</g><path
         d="M 920,5825.35 H 880"
         style="fill:none;stroke:#000000;stroke-width:5;stroke-linecap:butt;stroke-linejoin:miter;stroke-miterlimit:10;stroke-dasharray:none;stroke-opacity:1"
         id="path290"
         inkscape:connector-curvature="0" /><g
         id="g292"
         transform="scale(10)"><text
           transform="matrix(0,-1,-1,0,77,589.484)"
           style="font-variant:normal;font-weight:normal;font-size:10px;font-family:Helvetica;-inkscape-font-specification:Helvetica;writing-mode:lr-tb;fill:#000000;fill-opacity:1;fill-rule:nonzero;stroke:none"
           id="text296"><tspan
             x="0 5.5599999 8.3400002"
             y="0"
             sodipodi:role="line"
             id="tspan294">0.8</tspan></text>
</g><path
         d="M 920,5504.19 H 880"
         style="fill:none;stroke:#000000;stroke-width:5;stroke-linecap:butt;stroke-linejoin:miter;stroke-miterlimit:10;stroke-dasharray:none;stroke-opacity:1"
         id="path298"
         inkscape:connector-curvature="0" /><g
         id="g300"
         transform="scale(10)"><text
           transform="matrix(0,-1,-1,0,77,557.368)"
           style="font-variant:normal;font-weight:normal;font-size:10px;font-family:Helvetica;-inkscape-font-specification:Helvetica;writing-mode:lr-tb;fill:#000000;fill-opacity:1;fill-rule:nonzero;stroke:none"
           id="text304"><tspan
             x="0 5.5599999 8.3400002"
             y="0"
             sodipodi:role="line"
             id="tspan302">1.0</tspan></text>
</g><path
         d="M 920,5183.02 H 880"
         style="fill:none;stroke:#000000;stroke-width:5;stroke-linecap:butt;stroke-linejoin:miter;stroke-miterlimit:10;stroke-dasharray:none;stroke-opacity:1"
         id="path306"
         inkscape:connector-curvature="0" /><g
         id="g308"
         transform="scale(10)"><text
           transform="matrix(0,-1,-1,0,77,525.252)"
           style="font-variant:normal;font-weight:normal;font-size:10px;font-family:Helvetica;-inkscape-font-specification:Helvetica;writing-mode:lr-tb;fill:#000000;fill-opacity:1;fill-rule:nonzero;stroke:none"
           id="text312"><tspan
             x="0 5.5599999 8.3400002"
             y="0"
             sodipodi:role="line"
             id="tspan310">1.2</tspan></text>
</g><path
         d="M 920,4861.86 H 880"
         style="fill:none;stroke:#000000;stroke-width:5;stroke-linecap:butt;stroke-linejoin:miter;stroke-miterlimit:10;stroke-dasharray:none;stroke-opacity:1"
         id="path314"
         inkscape:connector-curvature="0" /><g
         id="g316"
         transform="scale(10)"><text
           transform="matrix(0,-1,-1,0,77,493.136)"
           style="font-variant:normal;font-weight:normal;font-size:10px;font-family:Helvetica;-inkscape-font-specification:Helvetica;writing-mode:lr-tb;fill:#000000;fill-opacity:1;fill-rule:nonzero;stroke:none"
           id="text320"><tspan
             x="0 5.5599999 8.3400002"
             y="0"
             sodipodi:role="line"
             id="tspan318">1.4</tspan></text>
</g><path
         d="M 920,4540.7 H 880"
         style="fill:none;stroke:#000000;stroke-width:5;stroke-linecap:butt;stroke-linejoin:miter;stroke-miterlimit:10;stroke-dasharray:none;stroke-opacity:1"
         id="path322"
         inkscape:connector-curvature="0" /><g
         id="g324"
         transform="scale(10)"><text
           transform="matrix(0,-1,-1,0,77,461.02)"
           style="font-variant:normal;font-weight:normal;font-size:10px;font-family:Helvetica;-inkscape-font-specification:Helvetica;writing-mode:lr-tb;fill:#000000;fill-opacity:1;fill-rule:nonzero;stroke:none"
           id="text328"><tspan
             x="0 5.5599999 8.3400002"
             y="0"
             sodipodi:role="line"
             id="tspan326">1.6</tspan></text>
</g><path
         d="M 920,4219.54 H 880"
         style="fill:none;stroke:#000000;stroke-width:5;stroke-linecap:butt;stroke-linejoin:miter;stroke-miterlimit:10;stroke-dasharray:none;stroke-opacity:1"
         id="path330"
         inkscape:connector-curvature="0" /><g
         id="g332"
         transform="scale(10)"><text
           transform="matrix(0,-1,-1,0,77,428.903)"
           style="font-variant:normal;font-weight:normal;font-size:10px;font-family:Helvetica;-inkscape-font-specification:Helvetica;writing-mode:lr-tb;fill:#000000;fill-opacity:1;fill-rule:nonzero;stroke:none"
           id="text336"><tspan
             x="0 5.5599999 8.3400002"
             y="0"
             sodipodi:role="line"
             id="tspan334">1.8</tspan></text>
</g><path
         d="M 920,3898.37 H 880"
         style="fill:none;stroke:#000000;stroke-width:5;stroke-linecap:butt;stroke-linejoin:miter;stroke-miterlimit:10;stroke-dasharray:none;stroke-opacity:1"
         id="path338"
         inkscape:connector-curvature="0" /><g
         id="g340"
         transform="scale(10)"><text
           transform="matrix(0,-1,-1,0,77,396.787)"
           style="font-variant:normal;font-weight:normal;font-size:10px;font-family:Helvetica;-inkscape-font-specification:Helvetica;writing-mode:lr-tb;fill:#000000;fill-opacity:1;fill-rule:nonzero;stroke:none"
           id="text344"><tspan
             x="0 5.5599999 8.3400002"
             y="0"
             sodipodi:role="line"
             id="tspan342">2.0</tspan></text>
</g><path
         d="M 920,7110 H 4740"
         style="fill:none;stroke:#000000;stroke-width:5;stroke-linecap:butt;stroke-linejoin:miter;stroke-miterlimit:10;stroke-dasharray:none;stroke-opacity:1"
         id="path346"
         inkscape:connector-curvature="0" /><g
         id="g348"
         transform="scale(10)"><text
           transform="matrix(1,0,0,-1,450.101,716)"
           style="font-variant:normal;font-weight:normal;font-size:10px;font-family:Helvetica;-inkscape-font-specification:Helvetica;writing-mode:lr-tb;fill:#000000;fill-opacity:1;fill-rule:nonzero;stroke:none"
           id="text352"><tspan
             x="0 5.5599999 10.56 13.34 18.9"
             y="0"
             sodipodi:role="line"
             id="tspan350">bytes</tspan></text>
</g><path
         d="m 920,7110 v 40"
         style="fill:none;stroke:#000000;stroke-width:5;stroke-linecap:butt;stroke-linejoin:miter;stroke-miterlimit:10;stroke-dasharray:none;stroke-opacity:1"
         id="path354"
         inkscape:connector-curvature="0" /><g
         id="g356"
         transform="scale(10)"><text
           transform="matrix(0,-1,-1,0,92,726.56)"
           style="font-variant:normal;font-weight:normal;font-size:10px;font-family:Helvetica;-inkscape-font-specification:Helvetica;writing-mode:lr-tb;fill:#000000;fill-opacity:1;fill-rule:nonzero;stroke:none"
           id="text360"><tspan
             x="0 5.5599999"
             y="0"
             sodipodi:role="line"
             id="tspan358">0k</tspan></text>
</g><path
         d="m 1419.48,7110 v 40"
         style="fill:none;stroke:#000000;stroke-width:5;stroke-linecap:butt;stroke-linejoin:miter;stroke-miterlimit:10;stroke-dasharray:none;stroke-opacity:1"
         id="path362"
         inkscape:connector-curvature="0" /><g
         id="g364"
         transform="scale(10)"><text
           transform="matrix(0,-1,-1,0,141.948,726.56)"
           style="font-variant:normal;font-weight:normal;font-size:10px;font-family:Helvetica;-inkscape-font-specification:Helvetica;writing-mode:lr-tb;fill:#000000;fill-opacity:1;fill-rule:nonzero;stroke:none"
           id="text368"><tspan
             x="0 5.5599999"
             y="0"
             sodipodi:role="line"
             id="tspan366">5k</tspan></text>
</g><path
         d="m 1918.95,7110 v 40"
         style="fill:none;stroke:#000000;stroke-width:5;stroke-linecap:butt;stroke-linejoin:miter;stroke-miterlimit:10;stroke-dasharray:none;stroke-opacity:1"
         id="path370"
         inkscape:connector-curvature="0" /><g
         id="g372"
         transform="scale(10)"><text
           transform="matrix(0,-1,-1,0,191.895,732.12)"
           style="font-variant:normal;font-weight:normal;font-size:10px;font-family:Helvetica;-inkscape-font-specification:Helvetica;writing-mode:lr-tb;fill:#000000;fill-opacity:1;fill-rule:nonzero;stroke:none"
           id="text376"><tspan
             x="0 5.5599999 11.12"
             y="0"
             sodipodi:role="line"
             id="tspan374">10k</tspan></text>
</g><path
         d="m 2418.43,7110 v 40"
         style="fill:none;stroke:#000000;stroke-width:5;stroke-linecap:butt;stroke-linejoin:miter;stroke-miterlimit:10;stroke-dasharray:none;stroke-opacity:1"
         id="path378"
         inkscape:connector-curvature="0" /><g
         id="g380"
         transform="scale(10)"><text
           transform="matrix(0,-1,-1,0,241.843,732.12)"
           style="font-variant:normal;font-weight:normal;font-size:10px;font-family:Helvetica;-inkscape-font-specification:Helvetica;writing-mode:lr-tb;fill:#000000;fill-opacity:1;fill-rule:nonzero;stroke:none"
           id="text384"><tspan
             x="0 5.5599999 11.12"
             y="0"
             sodipodi:role="line"
             id="tspan382">15k</tspan></text>
</g><path
         d="m 2917.91,7110 v 40"
         style="fill:none;stroke:#000000;stroke-width:5;stroke-linecap:butt;stroke-linejoin:miter;stroke-miterlimit:10;stroke-dasharray:none;stroke-opacity:1"
         id="path386"
         inkscape:connector-curvature="0" /><g
         id="g388"
         transform="scale(10)"><text
           transform="matrix(0,-1,-1,0,291.791,732.12)"
           style="font-variant:normal;font-weight:normal;font-size:10px;font-family:Helvetica;-inkscape-font-specification:Helvetica;writing-mode:lr-tb;fill:#000000;fill-opacity:1;fill-rule:nonzero;stroke:none"
           id="text392"><tspan
             x="0 5.5599999 11.12"
             y="0"
             sodipodi:role="line"
             id="tspan390">20k</tspan></text>
</g><path
         d="m 3417.39,7110 v 40"
         style="fill:none;stroke:#000000;stroke-width:5;stroke-linecap:butt;stroke-linejoin:miter;stroke-miterlimit:10;stroke-dasharray:none;stroke-opacity:1"
         id="path394"
         inkscape:connector-curvature="0" /><g
         id="g396"
         transform="scale(10)"><text
           transform="matrix(0,-1,-1,0,341.739,732.12)"
           style="font-variant:normal;font-weight:normal;font-size:10px;font-family:Helvetica;-inkscape-font-specification:Helvetica;writing-mode:lr-tb;fill:#000000;fill-opacity:1;fill-rule:nonzero;stroke:none"
           id="text400"><tspan
             x="0 5.5599999 11.12"
             y="0"
             sodipodi:role="line"
             id="tspan398">25k</tspan></text>
</g><path
         d="m 3916.86,7110 v 40"
         style="fill:none;stroke:#000000;stroke-width:5;stroke-linecap:butt;stroke-linejoin:miter;stroke-miterlimit:10;stroke-dasharray:none;stroke-opacity:1"
         id="path402"
         inkscape:connector-curvature="0" /><g
         id="g404"
         transform="scale(10)"><text
           transform="matrix(0,-1,-1,0,391.686,732.12)"
           style="font-variant:normal;font-weight:normal;font-size:10px;font-family:Helvetica;-inkscape-font-specification:Helvetica;writing-mode:lr-tb;fill:#000000;fill-opacity:1;fill-rule:nonzero;stroke:none"
           id="text408"><tspan
             x="0 5.5599999 11.12"
             y="0"
             sodipodi:role="line"
             id="tspan406">30k</tspan></text>
</g><path
         d="m 1031.91,2997.8 h 140 v 140 h -140 z"
         style="fill:#000000;fill-opacity:1;fill-rule:nonzero;stroke:none"
         id="path410"
         inkscape:connector-curvature="0" /><path
         d="m 1031.91,2997.8 h 140 v 140 h -140 z"
         style="fill:none;stroke:#000000;stroke-width:5;stroke-linecap:butt;stroke-linejoin:miter;stroke-miterlimit:10;stroke-dasharray:none;stroke-opacity:1"
         id="path412"
         inkscape:connector-curvature="0" /><g
         id="g414"
         transform="scale(10)"><text
           transform="matrix(0,-1,-1,0,105.191,294.78)"
           style="font-variant:normal;font-weight:normal;font-size:10px;font-family:Helvetica;-inkscape-font-specification:Helvetica;writing-mode:lr-tb;fill:#000000;fill-opacity:1;fill-rule:nonzero;stroke:none"
           id="text418"><tspan
             x="0 7.7800002 13.89 21.110001 27.780001"
             y="0"
             sodipodi:role="line"
             id="tspan416">OTHER</tspan></text>
</g><path
         d="m 1213.81,2997.8 h 140 v 140 h -140 z"
         style="fill:#0000ff;fill-opacity:1;fill-rule:nonzero;stroke:none"
         id="path420"
         inkscape:connector-curvature="0" /><path
         d="m 1213.81,2997.8 h 140 v 140 h -140 z"
         style="fill:none;stroke:#000000;stroke-width:5;stroke-linecap:butt;stroke-linejoin:miter;stroke-miterlimit:10;stroke-dasharray:none;stroke-opacity:1"
         id="path422"
         inkscape:connector-curvature="0" /><g
         id="g424"
         transform="scale(10)"><text
           transform="matrix(0,-1,-1,0,123.381,294.78)"
           style="font-variant:normal;font-weight:normal;font-size:10px;font-family:Helvetica;-inkscape-font-specification:Helvetica;writing-mode:lr-tb;fill:#000000;fill-opacity:1;fill-rule:nonzero;stroke:none"
           id="text428"><tspan
             x="0 3.3299999 8.8900003 14.45 20.01 25.57 28.9 34.459999 37.790001 43.349998 48.349998 53.349998 58.91 61.689999 68.360001 71.139999 73.919998 76.699997 82.260002 85.589996 91.150002 96.150002 101.15 106.71 109.49 116.16 118.94 124.5 127.28 130.06"
             y="0"
             sodipodi:role="line"
             id="tspan426">(8224)bracketP.\/bracketP/d...</tspan></text>
</g><path
         d="m 1395.71,2997.8 h 140 v 140 h -140 z"
         style="fill:#00ff00;fill-opacity:1;fill-rule:nonzero;stroke:none"
         id="path430"
         inkscape:connector-curvature="0" /><path
         d="m 1395.71,2997.8 h 140 v 140 h -140 z"
         style="fill:none;stroke:#000000;stroke-width:5;stroke-linecap:butt;stroke-linejoin:miter;stroke-miterlimit:10;stroke-dasharray:none;stroke-opacity:1"
         id="path432"
         inkscape:connector-curvature="0" /><g
         id="g434"
         transform="scale(10)"><text
           transform="matrix(0,-1,-1,0,141.571,294.78)"
           style="font-variant:normal;font-weight:normal;font-size:10px;font-family:Helvetica;-inkscape-font-specification:Helvetica;writing-mode:lr-tb;fill:#000000;fill-opacity:1;fill-rule:nonzero;stroke:none"
           id="text438"><tspan
             x="0 3.3299999 8.8900003 14.45 20.01 25.57 28.9 36.119999 42.790001 48.900002 51.68 57.240002 62.799999 71.129997 76.690002 82.25 87.809998 93.370003 98.93 104.49 107.82 112.82 118.38"
             y="0"
             sodipodi:role="line"
             id="tspan436">(8104)CAF:$dMonad1_rcn6</tspan></text>
</g><path
         d="m 1577.62,2997.8 h 140 v 140 h -140 z"
         style="fill:#00ffff;fill-opacity:1;fill-rule:nonzero;stroke:none"
         id="path440"
         inkscape:connector-curvature="0" /><path
         d="m 1577.62,2997.8 h 140 v 140 h -140 z"
         style="fill:none;stroke:#000000;stroke-width:5;stroke-linecap:butt;stroke-linejoin:miter;stroke-miterlimit:10;stroke-dasharray:none;stroke-opacity:1"
         id="path442"
         inkscape:connector-curvature="0" /><g
         id="g444"
         transform="scale(10)"><text
           transform="matrix(0,-1,-1,0,159.762,294.78)"
           style="font-variant:normal;font-weight:normal;font-size:10px;font-family:Helvetica;-inkscape-font-specification:Helvetica;writing-mode:lr-tb;fill:#000000;fill-opacity:1;fill-rule:nonzero;stroke:none"
           id="text448"><tspan
             x="0 3.3299999 8.8900003 14.45 20.01 25.57 28.9 32.23 37.790001 43.349998 45.57 50.57 53.349998 58.91 62.240002 64.459999 67.239998 72.800003 75.019997 77.239998 82.800003 87.800003 93.360001 96.139999 101.7 108.92 111.7 119.48 122.26 125.04"
             y="0"
             sodipodi:role="line"
             id="tspan446">(8274)register’/allocateRIO...</tspan></text>
</g><path
         d="m 1759.52,2997.8 h 140 v 140 h -140 z"
         style="fill:#ff0000;fill-opacity:1;fill-rule:nonzero;stroke:none"
         id="path450"
         inkscape:connector-curvature="0" /><path
         d="m 1759.52,2997.8 h 140 v 140 h -140 z"
         style="fill:none;stroke:#000000;stroke-width:5;stroke-linecap:butt;stroke-linejoin:miter;stroke-miterlimit:10;stroke-dasharray:none;stroke-opacity:1"
         id="path452"
         inkscape:connector-curvature="0" /><g
         id="g454"
         transform="scale(10)"><text
           transform="matrix(0,-1,-1,0,177.952,294.78)"
           style="font-variant:normal;font-weight:normal;font-size:10px;font-family:Helvetica;-inkscape-font-specification:Helvetica;writing-mode:lr-tb;fill:#000000;fill-opacity:1;fill-rule:nonzero;stroke:none"
           id="text458"><tspan
             x="0 3.3299999 8.8900003 14.45 20.01 25.57 28.9 36.119999 42.790001 48.900002 51.68 57.240002 62.799999 69.470001 75.029999 80.589996 82.809998 85.029999 90.029999 95.589996 98.370003 100.59 105.59 111.15 116.71 120.04 125.04 133.37"
             y="0"
             sodipodi:role="line"
             id="tspan456">(8097)CAF:$dApplicative_rcmZ</tspan></text>
</g><path
         d="m 1941.43,2997.8 h 140 v 140 h -140 z"
         style="fill:#ff00ff;fill-opacity:1;fill-rule:nonzero;stroke:none"
         id="path460"
         inkscape:connector-curvature="0" /><path
         d="m 1941.43,2997.8 h 140 v 140 h -140 z"
         style="fill:none;stroke:#000000;stroke-width:5;stroke-linecap:butt;stroke-linejoin:miter;stroke-miterlimit:10;stroke-dasharray:none;stroke-opacity:1"
         id="path462"
         inkscape:connector-curvature="0" /><g
         id="g464"
         transform="scale(10)"><text
           transform="matrix(0,-1,-1,0,196.143,294.78)"
           style="font-variant:normal;font-weight:normal;font-size:10px;font-family:Helvetica;-inkscape-font-specification:Helvetica;writing-mode:lr-tb;fill:#000000;fill-opacity:1;fill-rule:nonzero;stroke:none"
           id="text468"><tspan
             x="0 3.3299999 8.8900003 14.45 20.01 25.57 28.9 36.119999 42.790001 48.900002 51.68 57.240002 62.799999 71.129997 76.690002 82.25 87.809998 93.370003 100.04 105.6 110.6 116.16 121.72 125.05 130.05 135.61"
             y="0"
             sodipodi:role="line"
             id="tspan466">(8100)CAF:$dMonadBase_rcn2</tspan></text>
</g><path
         d="m 2123.33,2997.8 h 140 v 140 h -140 z"
         style="fill:#ffff00;fill-opacity:1;fill-rule:nonzero;stroke:none"
         id="path470"
         inkscape:connector-curvature="0" /><path
         d="m 2123.33,2997.8 h 140 v 140 h -140 z"
         style="fill:none;stroke:#000000;stroke-width:5;stroke-linecap:butt;stroke-linejoin:miter;stroke-miterlimit:10;stroke-dasharray:none;stroke-opacity:1"
         id="path472"
         inkscape:connector-curvature="0" /><g
         id="g474"
         transform="scale(10)"><text
           transform="matrix(0,-1,-1,0,214.333,294.78)"
           style="font-variant:normal;font-weight:normal;font-size:10px;font-family:Helvetica;-inkscape-font-specification:Helvetica;writing-mode:lr-tb;fill:#000000;fill-opacity:1;fill-rule:nonzero;stroke:none"
           id="text478"><tspan
             x="0 3.3299999 8.8900003 14.45 20.01 25.57 28.9 32.23 37.790001 43.349998 50.57 56.130001 61.130001 66.690002 72.25 75.580002 80.580002 86.139999 92.25 95.029999 97.809998 100.59 102.81 105.03 107.81 110.59 117.26 122.82 125.6 128.38"
             y="0"
             sodipodi:role="line"
             id="tspan476">(8161)runResourceT.\/liftBa...</tspan></text>
</g><path
         d="m 2305.24,2997.8 h 140 v 140 h -140 z"
         style="fill:#ffffff;fill-opacity:1;fill-rule:nonzero;stroke:none"
         id="path480"
         inkscape:connector-curvature="0" /><path
         d="m 2305.24,2997.8 h 140 v 140 h -140 z"
         style="fill:none;stroke:#000000;stroke-width:5;stroke-linecap:butt;stroke-linejoin:miter;stroke-miterlimit:10;stroke-dasharray:none;stroke-opacity:1"
         id="path482"
         inkscape:connector-curvature="0" /><g
         id="g484"
         transform="scale(10)"><text
           transform="matrix(0,-1,-1,0,232.524,294.78)"
           style="font-variant:normal;font-weight:normal;font-size:10px;font-family:Helvetica;-inkscape-font-specification:Helvetica;writing-mode:lr-tb;fill:#000000;fill-opacity:1;fill-rule:nonzero;stroke:none"
           id="text488"><tspan
             x="0 3.3299999 8.8900003 14.45 20.01 25.57 28.9 34.459999 40.02 48.349998 53.91 56.130001 61.689999 63.91 66.690002 72.25 77.809998 86.139999 91.699997 93.919998 99.480003 102.26 105.04 107.82 113.38 118.94 127.27 132.83 135.61 138.39"
             y="0"
             sodipodi:role="line"
             id="tspan486">(8113)doMain’/doMain.\/doMa...</tspan></text>
</g><path
         d="m 2487.14,2997.8 h 140 v 140 h -140 z"
         style="fill:#000080;fill-opacity:1;fill-rule:nonzero;stroke:none"
         id="path490"
         inkscape:connector-curvature="0" /><path
         d="m 2487.14,2997.8 h 140 v 140 h -140 z"
         style="fill:none;stroke:#000000;stroke-width:5;stroke-linecap:butt;stroke-linejoin:miter;stroke-miterlimit:10;stroke-dasharray:none;stroke-opacity:1"
         id="path492"
         inkscape:connector-curvature="0" /><g
         id="g494"
         transform="scale(10)"><text
           transform="matrix(0,-1,-1,0,250.714,294.78)"
           style="font-variant:normal;font-weight:normal;font-size:10px;font-family:Helvetica;-inkscape-font-specification:Helvetica;writing-mode:lr-tb;fill:#000000;fill-opacity:1;fill-rule:nonzero;stroke:none"
           id="text498"><tspan
             x="0 3.3299999 8.8900003 14.45 20.01 25.57 28.9 34.740002 40.580002 46.419998 49.200001 51.98 54.759998 60.599998 66.440002 72.279999 75.059998 78.389999 83.949997 89.510002 96.18 98.400002 103.96 109.52 112.3 114.52 116.74 119.52 122.3 125.08"
             y="0"
             sodipodi:role="line"
             id="tspan496">(8208)&gt;&gt;=.\/&gt;&gt;=/runPipe/lif...</tspan></text>
</g><path
         d="m 2669.05,2997.8 h 140 v 140 h -140 z"
         style="fill:#008000;fill-opacity:1;fill-rule:nonzero;stroke:none"
         id="path500"
         inkscape:connector-curvature="0" /><path
         d="m 2669.05,2997.8 h 140 v 140 h -140 z"
         style="fill:none;stroke:#000000;stroke-width:5;stroke-linecap:butt;stroke-linejoin:miter;stroke-miterlimit:10;stroke-dasharray:none;stroke-opacity:1"
         id="path502"
         inkscape:connector-curvature="0" /><g
         id="g504"
         transform="scale(10)"><text
           transform="matrix(0,-1,-1,0,268.905,294.78)"
           style="font-variant:normal;font-weight:normal;font-size:10px;font-family:Helvetica;-inkscape-font-specification:Helvetica;writing-mode:lr-tb;fill:#000000;fill-opacity:1;fill-rule:nonzero;stroke:none"
           id="text508"><tspan
             x="0 3.3299999 8.8900003 14.45 20.01 25.57 28.9 36.119999 42.790001 48.900002 51.68 60.009998 65.57 67.790001"
             y="0"
             sodipodi:role="line"
             id="tspan506">(8107)CAF:main</tspan></text>
</g><path
         d="m 2850.95,2997.8 h 140 v 140 h -140 z"
         style="fill:#0080ff;fill-opacity:1;fill-rule:nonzero;stroke:none"
         id="path510"
         inkscape:connector-curvature="0" /><path
         d="m 2850.95,2997.8 h 140 v 140 h -140 z"
         style="fill:none;stroke:#000000;stroke-width:5;stroke-linecap:butt;stroke-linejoin:miter;stroke-miterlimit:10;stroke-dasharray:none;stroke-opacity:1"
         id="path512"
         inkscape:connector-curvature="0" /><g
         id="g514"
         transform="scale(10)"><text
           transform="matrix(0,-1,-1,0,287.095,294.78)"
           style="font-variant:normal;font-weight:normal;font-size:10px;font-family:Helvetica;-inkscape-font-specification:Helvetica;writing-mode:lr-tb;fill:#000000;fill-opacity:1;fill-rule:nonzero;stroke:none"
           id="text518"><tspan
             x="0 3.3299999 8.8900003 14.45 20.01 25.57 28.9 37.23 42.790001 45.009998 50.57 53.349998 60.57 67.239998 73.349998 76.129997 84.459999 90.019997 92.239998"
             y="0"
             sodipodi:role="line"
             id="tspan516">(8108)main/CAF:main</tspan></text>
</g><path
         d="m 3032.86,2997.8 h 140 v 140 h -140 z"
         style="fill:#00ff80;fill-opacity:1;fill-rule:nonzero;stroke:none"
         id="path520"
         inkscape:connector-curvature="0" /><path
         d="m 3032.86,2997.8 h 140 v 140 h -140 z"
         style="fill:none;stroke:#000000;stroke-width:5;stroke-linecap:butt;stroke-linejoin:miter;stroke-miterlimit:10;stroke-dasharray:none;stroke-opacity:1"
         id="path522"
         inkscape:connector-curvature="0" /><g
         id="g524"
         transform="scale(10)"><text
           transform="matrix(0,-1,-1,0,305.286,294.78)"
           style="font-variant:normal;font-weight:normal;font-size:10px;font-family:Helvetica;-inkscape-font-specification:Helvetica;writing-mode:lr-tb;fill:#000000;fill-opacity:1;fill-rule:nonzero;stroke:none"
           id="text528"><tspan
             x="0 3.3299999 8.8900003 14.45 20.01 25.57 28.9 36.119999 42.790001 48.900002 51.68 57.240002 62.799999 71.129997 76.690002 82.25 87.809998 93.370003 98.93 102.26 107.26 112.82"
             y="0"
             sodipodi:role="line"
             id="tspan526">(8103)CAF:$dMonad_rcn5</tspan></text>
</g><path
         d="m 3214.76,2997.8 h 140 v 140 h -140 z"
         style="fill:#800000;fill-opacity:1;fill-rule:nonzero;stroke:none"
         id="path530"
         inkscape:connector-curvature="0" /><path
         d="m 3214.76,2997.8 h 140 v 140 h -140 z"
         style="fill:none;stroke:#000000;stroke-width:5;stroke-linecap:butt;stroke-linejoin:miter;stroke-miterlimit:10;stroke-dasharray:none;stroke-opacity:1"
         id="path532"
         inkscape:connector-curvature="0" /><g
         id="g534"
         transform="scale(10)"><text
           transform="matrix(0,-1,-1,0,323.476,294.78)"
           style="font-variant:normal;font-weight:normal;font-size:10px;font-family:Helvetica;-inkscape-font-specification:Helvetica;writing-mode:lr-tb;fill:#000000;fill-opacity:1;fill-rule:nonzero;stroke:none"
           id="text538"><tspan
             x="0 3.3299999 8.8900003 14.45 20.01 25.57 28.9 36.119999 42.790001 48.900002 51.68 57.240002 62.799999 71.129997 76.690002 82.25 87.809998 93.370003 96.150002 103.93 109.49 112.82 117.82 123.38"
             y="0"
             sodipodi:role="line"
             id="tspan536">(8099)CAF:$dMonadIO_rcn1</tspan></text>
</g><path
         d="m 3396.67,2997.8 h 140 v 140 h -140 z"
         style="fill:#8000ff;fill-opacity:1;fill-rule:nonzero;stroke:none"
         id="path540"
         inkscape:connector-curvature="0" /><path
         d="m 3396.67,2997.8 h 140 v 140 h -140 z"
         style="fill:none;stroke:#000000;stroke-width:5;stroke-linecap:butt;stroke-linejoin:miter;stroke-miterlimit:10;stroke-dasharray:none;stroke-opacity:1"
         id="path542"
         inkscape:connector-curvature="0" /><g
         id="g544"
         transform="scale(10)"><text
           transform="matrix(0,-1,-1,0,341.667,294.78)"
           style="font-variant:normal;font-weight:normal;font-size:10px;font-family:Helvetica;-inkscape-font-specification:Helvetica;writing-mode:lr-tb;fill:#000000;fill-opacity:1;fill-rule:nonzero;stroke:none"
           id="text548"><tspan
             x="0 3.3299999 8.8900003 14.45 20.01 25.57 28.9 36.119999 42.790001 48.900002 51.68 57.240002 62.799999 71.129997 76.690002 82.25 87.809998 93.370003 99.480003 105.04 108.37 113.93 121.15 126.71 130.03999 135.03999 140.60001"
             y="0"
             sodipodi:role="line"
             id="tspan546">(8101)CAF:$dMonadThrow_rcn3</tspan></text>
</g><path
         d="m 3578.57,2997.8 h 140 v 140 h -140 z"
         style="fill:#80e600;fill-opacity:1;fill-rule:nonzero;stroke:none"
         id="path550"
         inkscape:connector-curvature="0" /><path
         d="m 3578.57,2997.8 h 140 v 140 h -140 z"
         style="fill:none;stroke:#000000;stroke-width:5;stroke-linecap:butt;stroke-linejoin:miter;stroke-miterlimit:10;stroke-dasharray:none;stroke-opacity:1"
         id="path552"
         inkscape:connector-curvature="0" /><g
         id="g554"
         transform="scale(10)"><text
           transform="matrix(0,-1,-1,0,359.857,294.78)"
           style="font-variant:normal;font-weight:normal;font-size:10px;font-family:Helvetica;-inkscape-font-specification:Helvetica;writing-mode:lr-tb;fill:#000000;fill-opacity:1;fill-rule:nonzero;stroke:none"
           id="text558"><tspan
             x="0 3.3299999 8.8900003 14.45 20.01 25.57 28.9 36.68 43.900002 51.119999 53.900002 56.68 64.459999 67.239998 73.910004 79.470001 84.470001 90.029999 95.589996 97.809998 103.37 108.93 111.71 118.93 125.6"
             y="0"
             sodipodi:role="line"
             id="tspan556">(4114)GHC.IO.Encoding.CAF</tspan></text>
</g><path
         d="m 3760.48,2997.8 h 140 v 140 h -140 z"
         style="fill:#80ffff;fill-opacity:1;fill-rule:nonzero;stroke:none"
         id="path560"
         inkscape:connector-curvature="0" /><path
         d="m 3760.48,2997.8 h 140 v 140 h -140 z"
         style="fill:none;stroke:#000000;stroke-width:5;stroke-linecap:butt;stroke-linejoin:miter;stroke-miterlimit:10;stroke-dasharray:none;stroke-opacity:1"
         id="path562"
         inkscape:connector-curvature="0" /><g
         id="g564"
         transform="scale(10)"><text
           transform="matrix(0,-1,-1,0,378.048,294.78)"
           style="font-variant:normal;font-weight:normal;font-size:10px;font-family:Helvetica;-inkscape-font-specification:Helvetica;writing-mode:lr-tb;fill:#000000;fill-opacity:1;fill-rule:nonzero;stroke:none"
           id="text568"><tspan
             x="0 3.3299999 8.8900003 14.45 20.01 25.57 28.9 36.119999 42.790001 48.900002 51.68 57.240002 62.799999 71.129997 76.690002 82.25 87.809998 93.370003 100.04 105.6 110.6 116.16 123.38 128.94 134.5 137.28 140.61 146.17 148.95 151.73"
             y="0"
             sodipodi:role="line"
             id="tspan566">(8105)CAF:$dMonadBaseContro...</tspan></text>
</g><path
         d="m 3942.38,2997.8 h 140 v 140 h -140 z"
         style="fill:#ff0080;fill-opacity:1;fill-rule:nonzero;stroke:none"
         id="path570"
         inkscape:connector-curvature="0" /><path
         d="m 3942.38,2997.8 h 140 v 140 h -140 z"
         style="fill:none;stroke:#000000;stroke-width:5;stroke-linecap:butt;stroke-linejoin:miter;stroke-miterlimit:10;stroke-dasharray:none;stroke-opacity:1"
         id="path572"
         inkscape:connector-curvature="0" /><g
         id="g574"
         transform="scale(10)"><text
           transform="matrix(0,-1,-1,0,396.238,294.78)"
           style="font-variant:normal;font-weight:normal;font-size:10px;font-family:Helvetica;-inkscape-font-specification:Helvetica;writing-mode:lr-tb;fill:#000000;fill-opacity:1;fill-rule:nonzero;stroke:none"
           id="text578"><tspan
             x="0 3.3299999 8.8900003 14.45 20.01 25.57 28.9 36.119999 42.790001 48.900002 51.68 57.240002 62.799999 71.129997 76.690002 82.25 87.809998 93.370003 100.59 106.15 111.15 116.71 122.27 125.6 130.60001 136.16 141.72 145.05 150.05 155.61"
             y="0"
             sodipodi:role="line"
             id="tspan576">(8102)CAF:$dMonadResource_rcn4</tspan></text>
</g><path
         d="m 4124.29,2997.8 h 140 v 140 h -140 z"
         style="fill:#ff8000;fill-opacity:1;fill-rule:nonzero;stroke:none"
         id="path580"
         inkscape:connector-curvature="0" /><path
         d="m 4124.29,2997.8 h 140 v 140 h -140 z"
         style="fill:none;stroke:#000000;stroke-width:5;stroke-linecap:butt;stroke-linejoin:miter;stroke-miterlimit:10;stroke-dasharray:none;stroke-opacity:1"
         id="path582"
         inkscape:connector-curvature="0" /><g
         id="g584"
         transform="scale(10)"><text
           transform="matrix(0,-1,-1,0,414.429,294.78)"
           style="font-variant:normal;font-weight:normal;font-size:10px;font-family:Helvetica;-inkscape-font-specification:Helvetica;writing-mode:lr-tb;fill:#000000;fill-opacity:1;fill-rule:nonzero;stroke:none"
           id="text588"><tspan
             x="0 3.3299999 8.8900003 14.45 20.01 25.57 28.9 36.68 43.900002 51.119999 53.900002 61.119999 66.68 72.239998 77.239998 80.019997 86.690002 88.910004 94.470001 100.03 105.59 107.81 110.59 117.81 124.48"
             y="0"
             sodipodi:role="line"
             id="tspan586">(4075)GHC.Conc.Signal.CAF</tspan></text>
</g><path
         d="m 4306.19,2997.8 h 140 v 140 h -140 z"
         style="fill:#ff80ff;fill-opacity:1;fill-rule:nonzero;stroke:none"
         id="path590"
         inkscape:connector-curvature="0" /><path
         d="m 4306.19,2997.8 h 140 v 140 h -140 z"
         style="fill:none;stroke:#000000;stroke-width:5;stroke-linecap:butt;stroke-linejoin:miter;stroke-miterlimit:10;stroke-dasharray:none;stroke-opacity:1"
         id="path592"
         inkscape:connector-curvature="0" /><g
         id="g594"
         transform="scale(10)"><text
           transform="matrix(0,-1,-1,0,432.619,294.78)"
           style="font-variant:normal;font-weight:normal;font-size:10px;font-family:Helvetica;-inkscape-font-specification:Helvetica;writing-mode:lr-tb;fill:#000000;fill-opacity:1;fill-rule:nonzero;stroke:none"
           id="text598"><tspan
             x="0 3.3299999 8.8900003 14.45 20.01 25.57 28.9 36.68 43.900002 51.119999 53.900002 56.68 64.459999 67.239998 74.459999 80.019997 85.580002 91.139999 93.360001 98.919998 101.7 107.81 115.03 117.81 125.03 131.7"
             y="0"
             sodipodi:role="line"
             id="tspan596">(4111)GHC.IO.Handle.FD.CAF</tspan></text>
</g><path
         d="m 4488.09,2997.8 h 140 v 140 h -140 z"
         style="fill:#ffff80;fill-opacity:1;fill-rule:nonzero;stroke:none"
         id="path600"
         inkscape:connector-curvature="0" /><path
         d="m 4488.09,2997.8 h 140 v 140 h -140 z"
         style="fill:none;stroke:#000000;stroke-width:5;stroke-linecap:butt;stroke-linejoin:miter;stroke-miterlimit:10;stroke-dasharray:none;stroke-opacity:1"
         id="path602"
         inkscape:connector-curvature="0" /><g
         id="g604"
         transform="scale(10)"><text
           transform="matrix(0,-1,-1,0,450.809,294.78)"
           style="font-variant:normal;font-weight:normal;font-size:10px;font-family:Helvetica;-inkscape-font-specification:Helvetica;writing-mode:lr-tb;fill:#000000;fill-opacity:1;fill-rule:nonzero;stroke:none"
           id="text608"><tspan
             x="0 3.3299999 8.8900003 14.45 20.01 25.57 28.9 35.57 38.349998 45.57 52.790001 59.459999"
             y="0"
             sodipodi:role="line"
             id="tspan606">(4056)PINNED</tspan></text>
</g><path
         d="m 920,7110 v 0 -3922.2 l 84.71,69.87 v 159.49 159.05 l 5.59,159.13 -20.773,161.2 15.183,160.49 v 160.91 l -9.589,162.2 -5.594,159.41 15.183,159.17 -0.8,160.92 -8.789,161 9.589,160.9 -9.589,160.64 9.589,159.05 v 161.24 l -9.589,160.69 16.779,161.06 -7.19,160.85 v 159.17 159.25 l 7.19,160.47 -7.19,161.73 v 162.49 L 920,7110"
         style="fill:#000000;fill-opacity:1;fill-rule:nonzero;stroke:none"
         id="path610"
         inkscape:connector-curvature="0" /><path
         d="m 920,7110 v 0 -3922.2 l 84.71,69.87 v 159.49 159.05 l 5.59,159.13 -20.773,161.2 15.183,160.49 v 160.91 l -9.589,162.2 -5.594,159.41 15.183,159.17 -0.8,160.92 -8.789,161 9.589,160.9 -9.589,160.64 9.589,159.05 v 161.24 l -9.589,160.69 16.779,161.06 -7.19,160.85 v 159.17 159.25 l 7.19,160.47 -7.19,161.73 v 162.49 z"
         style="fill:none;stroke:#000000;stroke-width:5;stroke-linecap:butt;stroke-linejoin:miter;stroke-miterlimit:10;stroke-dasharray:none;stroke-opacity:1"
         id="path612"
         inkscape:connector-curvature="0" /><path
         d="m 920,7110 v 0 l 84.71,-161.82 v -162.49 l 7.19,-161.73 -7.19,-160.47 v -159.25 -159.17 l 7.19,-160.85 -16.779,-161.06 9.589,-160.69 v -161.24 l -9.589,-159.05 9.589,-160.64 -9.589,-160.9 8.789,-161 0.8,-160.92 -15.183,-159.17 5.594,-159.41 9.589,-162.2 v -160.91 l -15.183,-160.49 20.773,-161.2 -5.59,-159.13 V 3417.16 3257.67 L 920,3187.8 v 0 0 l 94.3,69.87 v 159.49 159.05 l 5.59,159.13 -20.773,161.2 15.183,160.49 v 160.91 l -9.59,162.2 -5.593,159.41 15.183,159.17 -0.8,160.92 -8.79,161 9.59,160.9 -9.59,160.64 9.59,159.05 v 161.24 l -9.59,160.69 16.78,161.06 -7.19,160.85 v 159.17 159.25 l 7.19,160.47 -7.19,161.73 v 162.49 L 920,7110"
         style="fill:#0000ff;fill-opacity:1;fill-rule:nonzero;stroke:none"
         id="path614"
         inkscape:connector-curvature="0" /><path
         d="m 920,7110 v 0 l 84.71,-161.82 v -162.49 l 7.19,-161.73 -7.19,-160.47 v -159.25 -159.17 l 7.19,-160.85 -16.779,-161.06 9.589,-160.69 v -161.24 l -9.589,-159.05 9.589,-160.64 -9.589,-160.9 8.789,-161 0.8,-160.92 -15.183,-159.17 5.594,-159.41 9.589,-162.2 v -160.91 l -15.183,-160.49 20.773,-161.2 -5.59,-159.13 V 3417.16 3257.67 L 920,3187.8 v 0 0 l 94.3,69.87 v 159.49 159.05 l 5.59,159.13 -20.773,161.2 15.183,160.49 v 160.91 l -9.59,162.2 -5.593,159.41 15.183,159.17 -0.8,160.92 -8.79,161 9.59,160.9 -9.59,160.64 9.59,159.05 v 161.24 l -9.59,160.69 16.78,161.06 -7.19,160.85 v 159.17 159.25 l 7.19,160.47 -7.19,161.73 v 162.49 z"
         style="fill:none;stroke:#000000;stroke-width:5;stroke-linecap:butt;stroke-linejoin:miter;stroke-miterlimit:10;stroke-dasharray:none;stroke-opacity:1"
         id="path616"
         inkscape:connector-curvature="0" /><path
         d="m 920,7110 v 0 l 94.3,-161.82 v -162.49 l 7.19,-161.73 -7.19,-160.47 v -159.25 -159.17 l 7.19,-160.85 -16.78,-161.06 9.59,-160.69 v -161.24 l -9.59,-159.05 9.59,-160.64 -9.59,-160.9 8.79,-161 0.8,-160.92 -15.183,-159.17 5.593,-159.41 9.59,-162.2 v -160.91 l -15.183,-160.49 20.773,-161.2 -5.59,-159.13 V 3417.16 3257.67 L 920,3187.8 v 0 0 l 104.69,69.87 v 159.49 159.05 l 5.6,159.13 -20.78,161.2 15.18,160.49 v 160.91 l -9.59,162.2 -5.59,159.41 15.18,159.17 -0.8,160.92 -8.79,161 9.59,160.9 -9.59,160.64 9.59,159.05 v 161.24 l -9.59,160.69 16.78,161.06 -7.19,160.85 v 159.17 159.25 l 7.19,160.47 -7.19,161.73 v 162.49 L 920,7110"
         style="fill:#00ff00;fill-opacity:1;fill-rule:nonzero;stroke:none"
         id="path618"
         inkscape:connector-curvature="0" /><path
         d="m 920,7110 v 0 l 94.3,-161.82 v -162.49 l 7.19,-161.73 -7.19,-160.47 v -159.25 -159.17 l 7.19,-160.85 -16.78,-161.06 9.59,-160.69 v -161.24 l -9.59,-159.05 9.59,-160.64 -9.59,-160.9 8.79,-161 0.8,-160.92 -15.183,-159.17 5.593,-159.41 9.59,-162.2 v -160.91 l -15.183,-160.49 20.773,-161.2 -5.59,-159.13 V 3417.16 3257.67 L 920,3187.8 v 0 0 l 104.69,69.87 v 159.49 159.05 l 5.6,159.13 -20.78,161.2 15.18,160.49 v 160.91 l -9.59,162.2 -5.59,159.41 15.18,159.17 -0.8,160.92 -8.79,161 9.59,160.9 -9.59,160.64 9.59,159.05 v 161.24 l -9.59,160.69 16.78,161.06 -7.19,160.85 v 159.17 159.25 l 7.19,160.47 -7.19,161.73 v 162.49 z"
         style="fill:none;stroke:#000000;stroke-width:5;stroke-linecap:butt;stroke-linejoin:miter;stroke-miterlimit:10;stroke-dasharray:none;stroke-opacity:1"
         id="path620"
         inkscape:connector-curvature="0" /><path
         d="m 920,7110 v 0 l 104.69,-161.82 v -162.49 l 7.19,-161.73 -7.19,-160.47 v -159.25 -159.17 l 7.19,-160.85 -16.78,-161.06 9.59,-160.69 v -161.24 l -9.59,-159.05 9.59,-160.64 -9.59,-160.9 8.79,-161 0.8,-160.92 -15.18,-159.17 5.59,-159.41 9.59,-162.2 v -160.91 l -15.18,-160.49 20.78,-161.2 -5.6,-159.13 V 3417.16 3257.67 L 920,3187.8 v 0 0 l 115.08,69.87 v 159.49 159.05 l 5.59,159.13 -20.78,161.2 15.19,160.49 v 160.91 l -9.59,162.2 -5.6,159.41 15.19,159.17 -0.8,160.92 -8.79,161 9.59,160.9 -9.59,160.64 9.59,159.05 v 161.24 l -9.59,160.69 16.78,161.06 -7.19,160.85 v 159.17 159.25 l 7.19,160.47 -7.19,161.73 v 162.49 L 920,7110"
         style="fill:#00ffff;fill-opacity:1;fill-rule:nonzero;stroke:none"
         id="path622"
         inkscape:connector-curvature="0" /><path
         d="m 920,7110 v 0 l 104.69,-161.82 v -162.49 l 7.19,-161.73 -7.19,-160.47 v -159.25 -159.17 l 7.19,-160.85 -16.78,-161.06 9.59,-160.69 v -161.24 l -9.59,-159.05 9.59,-160.64 -9.59,-160.9 8.79,-161 0.8,-160.92 -15.18,-159.17 5.59,-159.41 9.59,-162.2 v -160.91 l -15.18,-160.49 20.78,-161.2 -5.6,-159.13 V 3417.16 3257.67 L 920,3187.8 v 0 0 l 115.08,69.87 v 159.49 159.05 l 5.59,159.13 -20.78,161.2 15.19,160.49 v 160.91 l -9.59,162.2 -5.6,159.41 15.19,159.17 -0.8,160.92 -8.79,161 9.59,160.9 -9.59,160.64 9.59,159.05 v 161.24 l -9.59,160.69 16.78,161.06 -7.19,160.85 v 159.17 159.25 l 7.19,160.47 -7.19,161.73 v 162.49 z"
         style="fill:none;stroke:#000000;stroke-width:5;stroke-linecap:butt;stroke-linejoin:miter;stroke-miterlimit:10;stroke-dasharray:none;stroke-opacity:1"
         id="path624"
         inkscape:connector-curvature="0" /><path
         d="m 920,7110 v 0 l 115.08,-161.82 v -162.49 l 7.19,-161.73 -7.19,-160.47 v -159.25 -159.17 l 7.19,-160.85 -16.78,-161.06 9.59,-160.69 v -161.24 l -9.59,-159.05 9.59,-160.64 -9.59,-160.9 8.79,-161 0.8,-160.92 -15.19,-159.17 5.6,-159.41 9.59,-162.2 v -160.91 l -15.19,-160.49 20.78,-161.2 -5.59,-159.13 V 3417.16 3257.67 L 920,3187.8 v 0 0 l 127.07,69.87 v 159.49 159.05 l 5.59,159.13 -20.78,161.2 15.19,160.49 v 160.91 l -9.59,162.2 -5.6,159.41 15.19,159.17 -0.8,160.92 -8.79,161 9.59,160.9 -9.59,160.64 9.59,159.05 v 161.24 l -9.59,160.69 16.78,161.06 -7.19,160.85 v 159.17 159.25 l 7.19,160.47 -7.19,161.73 v 162.49 L 920,7110"
         style="fill:#ff0000;fill-opacity:1;fill-rule:nonzero;stroke:none"
         id="path626"
         inkscape:connector-curvature="0" /><path
         d="m 920,7110 v 0 l 115.08,-161.82 v -162.49 l 7.19,-161.73 -7.19,-160.47 v -159.25 -159.17 l 7.19,-160.85 -16.78,-161.06 9.59,-160.69 v -161.24 l -9.59,-159.05 9.59,-160.64 -9.59,-160.9 8.79,-161 0.8,-160.92 -15.19,-159.17 5.6,-159.41 9.59,-162.2 v -160.91 l -15.19,-160.49 20.78,-161.2 -5.59,-159.13 V 3417.16 3257.67 L 920,3187.8 v 0 0 l 127.07,69.87 v 159.49 159.05 l 5.59,159.13 -20.78,161.2 15.19,160.49 v 160.91 l -9.59,162.2 -5.6,159.41 15.19,159.17 -0.8,160.92 -8.79,161 9.59,160.9 -9.59,160.64 9.59,159.05 v 161.24 l -9.59,160.69 16.78,161.06 -7.19,160.85 v 159.17 159.25 l 7.19,160.47 -7.19,161.73 v 162.49 z"
         style="fill:none;stroke:#000000;stroke-width:5;stroke-linecap:butt;stroke-linejoin:miter;stroke-miterlimit:10;stroke-dasharray:none;stroke-opacity:1"
         id="path628"
         inkscape:connector-curvature="0" /><path
         d="m 920,7110 v 0 l 127.07,-161.82 v -162.49 l 7.19,-161.73 -7.19,-160.47 v -159.25 -159.17 l 7.19,-160.85 -16.78,-161.06 9.59,-160.69 v -161.24 l -9.59,-159.05 9.59,-160.64 -9.59,-160.9 8.79,-161 0.8,-160.92 -15.19,-159.17 5.6,-159.41 9.59,-162.2 v -160.91 l -15.19,-160.49 20.78,-161.2 -5.59,-159.13 V 3417.16 3257.67 L 920,3187.8 v 0 0 l 141.45,69.87 v 159.49 159.05 l 5.6,159.13 -20.78,161.2 15.18,160.49 v 160.91 l -9.59,162.2 -5.59,159.41 15.18,159.17 -0.8,160.92 -8.79,161 9.59,160.9 -9.59,160.64 9.59,159.05 v 161.24 l -9.59,160.69 16.78,161.06 -7.19,160.85 v 159.17 159.25 l 7.19,160.47 -7.19,161.73 v 162.49 L 920,7110"
         style="fill:#ff00ff;fill-opacity:1;fill-rule:nonzero;stroke:none"
         id="path630"
         inkscape:connector-curvature="0" /><path
         d="m 920,7110 v 0 l 127.07,-161.82 v -162.49 l 7.19,-161.73 -7.19,-160.47 v -159.25 -159.17 l 7.19,-160.85 -16.78,-161.06 9.59,-160.69 v -161.24 l -9.59,-159.05 9.59,-160.64 -9.59,-160.9 8.79,-161 0.8,-160.92 -15.19,-159.17 5.6,-159.41 9.59,-162.2 v -160.91 l -15.19,-160.49 20.78,-161.2 -5.59,-159.13 V 3417.16 3257.67 L 920,3187.8 v 0 0 l 141.45,69.87 v 159.49 159.05 l 5.6,159.13 -20.78,161.2 15.18,160.49 v 160.91 l -9.59,162.2 -5.59,159.41 15.18,159.17 -0.8,160.92 -8.79,161 9.59,160.9 -9.59,160.64 9.59,159.05 v 161.24 l -9.59,160.69 16.78,161.06 -7.19,160.85 v 159.17 159.25 l 7.19,160.47 -7.19,161.73 v 162.49 z"
         style="fill:none;stroke:#000000;stroke-width:5;stroke-linecap:butt;stroke-linejoin:miter;stroke-miterlimit:10;stroke-dasharray:none;stroke-opacity:1"
         id="path632"
         inkscape:connector-curvature="0" /><path
         d="m 920,7110 v 0 l 141.45,-161.82 v -162.49 l 7.19,-161.73 -7.19,-160.47 v -159.25 -159.17 l 7.19,-160.85 -16.78,-161.06 9.59,-160.69 v -161.24 l -9.59,-159.05 9.59,-160.64 -9.59,-160.9 8.79,-161 0.8,-160.92 -15.18,-159.17 5.59,-159.41 9.59,-162.2 v -160.91 l -15.18,-160.49 20.78,-161.2 -5.6,-159.13 V 3417.16 3257.67 L 920,3187.8 v 0 0 l 155.84,69.87 v 159.49 159.05 l 5.59,159.13 -20.78,161.2 15.19,160.49 v 160.91 l -9.59,162.2 -5.6,159.41 15.19,159.17 -0.8,160.92 -8.79,161 9.59,160.9 -9.59,160.64 9.59,159.05 v 161.24 l -9.59,160.69 16.78,161.06 -7.19,160.85 v 159.17 159.25 l 7.19,160.47 -7.19,161.73 v 162.49 L 920,7110"
         style="fill:#ffff00;fill-opacity:1;fill-rule:nonzero;stroke:none"
         id="path634"
         inkscape:connector-curvature="0" /><path
         d="m 920,7110 v 0 l 141.45,-161.82 v -162.49 l 7.19,-161.73 -7.19,-160.47 v -159.25 -159.17 l 7.19,-160.85 -16.78,-161.06 9.59,-160.69 v -161.24 l -9.59,-159.05 9.59,-160.64 -9.59,-160.9 8.79,-161 0.8,-160.92 -15.18,-159.17 5.59,-159.41 9.59,-162.2 v -160.91 l -15.18,-160.49 20.78,-161.2 -5.6,-159.13 V 3417.16 3257.67 L 920,3187.8 v 0 0 l 155.84,69.87 v 159.49 159.05 l 5.59,159.13 -20.78,161.2 15.19,160.49 v 160.91 l -9.59,162.2 -5.6,159.41 15.19,159.17 -0.8,160.92 -8.79,161 9.59,160.9 -9.59,160.64 9.59,159.05 v 161.24 l -9.59,160.69 16.78,161.06 -7.19,160.85 v 159.17 159.25 l 7.19,160.47 -7.19,161.73 v 162.49 z"
         style="fill:none;stroke:#000000;stroke-width:5;stroke-linecap:butt;stroke-linejoin:miter;stroke-miterlimit:10;stroke-dasharray:none;stroke-opacity:1"
         id="path636"
         inkscape:connector-curvature="0" /><path
         d="m 920,7110 v 0 l 155.84,-161.82 v -162.49 l 7.19,-161.73 -7.19,-160.47 v -159.25 -159.17 l 7.19,-160.85 -16.78,-161.06 9.59,-160.69 v -161.24 l -9.59,-159.05 9.59,-160.64 -9.59,-160.9 8.79,-161 0.8,-160.92 -15.19,-159.17 5.6,-159.41 9.59,-162.2 v -160.91 l -15.19,-160.49 20.78,-161.2 -5.59,-159.13 V 3417.16 3257.67 L 920,3187.8 v 0 0 l 170.22,69.87 v 159.49 159.05 l 5.6,159.13 -20.78,161.2 15.18,160.49 v 160.91 l -9.59,162.2 -5.59,159.41 15.18,159.17 -0.8,160.92 -8.79,161 9.59,160.9 -9.59,160.64 9.59,159.05 v 161.24 l -9.59,160.69 16.78,161.06 -7.19,160.85 v 159.17 159.25 l 7.19,160.47 -7.19,161.73 v 162.49 L 920,7110"
         style="fill:#ffffff;fill-opacity:1;fill-rule:nonzero;stroke:none"
         id="path638"
         inkscape:connector-curvature="0" /><path
         d="m 920,7110 v 0 l 155.84,-161.82 v -162.49 l 7.19,-161.73 -7.19,-160.47 v -159.25 -159.17 l 7.19,-160.85 -16.78,-161.06 9.59,-160.69 v -161.24 l -9.59,-159.05 9.59,-160.64 -9.59,-160.9 8.79,-161 0.8,-160.92 -15.19,-159.17 5.6,-159.41 9.59,-162.2 v -160.91 l -15.19,-160.49 20.78,-161.2 -5.59,-159.13 V 3417.16 3257.67 L 920,3187.8 v 0 0 l 170.22,69.87 v 159.49 159.05 l 5.6,159.13 -20.78,161.2 15.18,160.49 v 160.91 l -9.59,162.2 -5.59,159.41 15.18,159.17 -0.8,160.92 -8.79,161 9.59,160.9 -9.59,160.64 9.59,159.05 v 161.24 l -9.59,160.69 16.78,161.06 -7.19,160.85 v 159.17 159.25 l 7.19,160.47 -7.19,161.73 v 162.49 z"
         style="fill:none;stroke:#000000;stroke-width:5;stroke-linecap:butt;stroke-linejoin:miter;stroke-miterlimit:10;stroke-dasharray:none;stroke-opacity:1"
         id="path640"
         inkscape:connector-curvature="0" /><path
         d="m 920,7110 v 0 l 170.22,-161.82 v -162.49 l 7.19,-161.73 -7.19,-160.47 v -159.25 -159.17 l 7.19,-160.85 -16.78,-161.06 9.59,-160.69 v -161.24 l -9.59,-159.05 9.59,-160.64 -9.59,-160.9 8.79,-161 0.8,-160.92 -15.18,-159.17 5.59,-159.41 9.59,-162.2 v -160.91 l -15.18,-160.49 20.78,-161.2 -5.6,-159.13 V 3417.16 3257.67 L 920,3187.8 v 0 0 l 194.2,69.87 v 159.49 159.05 l -18.38,159.13 -20.78,161.2 39.16,160.49 v 160.91 l -23.98,162.2 -15.18,159.41 39.16,159.17 -24.78,160.92 -3.99,161 28.77,160.9 -23.98,160.64 23.98,159.05 v 161.24 l -28.77,160.69 27.17,161.06 1.6,160.85 v 159.17 159.25 l -16.79,160.47 16.79,161.73 v 162.49 L 920,7110"
         style="fill:#000080;fill-opacity:1;fill-rule:nonzero;stroke:none"
         id="path642"
         inkscape:connector-curvature="0" /><path
         d="m 920,7110 v 0 l 170.22,-161.82 v -162.49 l 7.19,-161.73 -7.19,-160.47 v -159.25 -159.17 l 7.19,-160.85 -16.78,-161.06 9.59,-160.69 v -161.24 l -9.59,-159.05 9.59,-160.64 -9.59,-160.9 8.79,-161 0.8,-160.92 -15.18,-159.17 5.59,-159.41 9.59,-162.2 v -160.91 l -15.18,-160.49 20.78,-161.2 -5.6,-159.13 V 3417.16 3257.67 L 920,3187.8 v 0 0 l 194.2,69.87 v 159.49 159.05 l -18.38,159.13 -20.78,161.2 39.16,160.49 v 160.91 l -23.98,162.2 -15.18,159.41 39.16,159.17 -24.78,160.92 -3.99,161 28.77,160.9 -23.98,160.64 23.98,159.05 v 161.24 l -28.77,160.69 27.17,161.06 1.6,160.85 v 159.17 159.25 l -16.79,160.47 16.79,161.73 v 162.49 z"
         style="fill:none;stroke:#000000;stroke-width:5;stroke-linecap:butt;stroke-linejoin:miter;stroke-miterlimit:10;stroke-dasharray:none;stroke-opacity:1"
         id="path644"
         inkscape:connector-curvature="0" /><path
         d="m 920,7110 v 0 l 194.2,-161.82 v -162.49 l -16.79,-161.73 16.79,-160.47 v -159.25 -159.17 l -1.6,-160.85 -27.17,-161.06 28.77,-160.69 v -161.24 l -23.98,-159.05 23.98,-160.64 -28.77,-160.9 3.99,-161 24.78,-160.92 -39.16,-159.17 15.18,-159.41 23.98,-162.2 v -160.91 l -39.16,-160.49 20.78,-161.2 18.38,-159.13 V 3417.16 3257.67 L 920,3187.8 v 0 0 l 210.18,69.87 v 159.49 159.05 l -18.38,159.13 -20.78,161.2 39.16,160.49 v 160.91 l -23.98,162.2 -15.18,159.41 39.16,159.17 -24.77,160.92 -4,161 28.77,160.9 -23.98,160.64 23.98,159.05 v 161.24 l -28.77,160.69 27.17,161.06 1.6,160.85 v 159.17 159.25 l -16.78,160.47 16.78,161.73 v 162.49 L 920,7110"
         style="fill:#008000;fill-opacity:1;fill-rule:nonzero;stroke:none"
         id="path646"
         inkscape:connector-curvature="0" /><path
         d="m 920,7110 v 0 l 194.2,-161.82 v -162.49 l -16.79,-161.73 16.79,-160.47 v -159.25 -159.17 l -1.6,-160.85 -27.17,-161.06 28.77,-160.69 v -161.24 l -23.98,-159.05 23.98,-160.64 -28.77,-160.9 3.99,-161 24.78,-160.92 -39.16,-159.17 15.18,-159.41 23.98,-162.2 v -160.91 l -39.16,-160.49 20.78,-161.2 18.38,-159.13 V 3417.16 3257.67 L 920,3187.8 v 0 0 l 210.18,69.87 v 159.49 159.05 l -18.38,159.13 -20.78,161.2 39.16,160.49 v 160.91 l -23.98,162.2 -15.18,159.41 39.16,159.17 -24.77,160.92 -4,161 28.77,160.9 -23.98,160.64 23.98,159.05 v 161.24 l -28.77,160.69 27.17,161.06 1.6,160.85 v 159.17 159.25 l -16.78,160.47 16.78,161.73 v 162.49 z"
         style="fill:none;stroke:#000000;stroke-width:5;stroke-linecap:butt;stroke-linejoin:miter;stroke-miterlimit:10;stroke-dasharray:none;stroke-opacity:1"
         id="path648"
         inkscape:connector-curvature="0" /><path
         d="m 920,7110 v 0 l 210.18,-161.82 v -162.49 l -16.78,-161.73 16.78,-160.47 v -159.25 -159.17 l -1.6,-160.85 -27.17,-161.06 28.77,-160.69 v -161.24 l -23.98,-159.05 23.98,-160.64 -28.77,-160.9 4,-161 24.77,-160.92 -39.16,-159.17 15.18,-159.41 23.98,-162.2 v -160.91 l -39.16,-160.49 20.78,-161.2 18.38,-159.13 V 3417.16 3257.67 L 920,3187.8 v 0 0 l 226.16,69.87 v 159.49 159.05 l -18.38,159.13 -20.78,161.2 39.16,160.49 v 160.91 l -23.97,162.2 -15.19,159.41 39.16,159.17 -24.77,160.92 -4,161 28.77,160.9 -23.97,160.64 23.97,159.05 v 161.24 l -28.77,160.69 27.18,161.06 1.59,160.85 v 159.17 159.25 l -16.78,160.47 16.78,161.73 v 162.49 L 920,7110"
         style="fill:#0080ff;fill-opacity:1;fill-rule:nonzero;stroke:none"
         id="path650"
         inkscape:connector-curvature="0" /><path
         d="m 920,7110 v 0 l 210.18,-161.82 v -162.49 l -16.78,-161.73 16.78,-160.47 v -159.25 -159.17 l -1.6,-160.85 -27.17,-161.06 28.77,-160.69 v -161.24 l -23.98,-159.05 23.98,-160.64 -28.77,-160.9 4,-161 24.77,-160.92 -39.16,-159.17 15.18,-159.41 23.98,-162.2 v -160.91 l -39.16,-160.49 20.78,-161.2 18.38,-159.13 V 3417.16 3257.67 L 920,3187.8 v 0 0 l 226.16,69.87 v 159.49 159.05 l -18.38,159.13 -20.78,161.2 39.16,160.49 v 160.91 l -23.97,162.2 -15.19,159.41 39.16,159.17 -24.77,160.92 -4,161 28.77,160.9 -23.97,160.64 23.97,159.05 v 161.24 l -28.77,160.69 27.18,161.06 1.59,160.85 v 159.17 159.25 l -16.78,160.47 16.78,161.73 v 162.49 z"
         style="fill:none;stroke:#000000;stroke-width:5;stroke-linecap:butt;stroke-linejoin:miter;stroke-miterlimit:10;stroke-dasharray:none;stroke-opacity:1"
         id="path652"
         inkscape:connector-curvature="0" /><path
         d="m 920,7110 v 0 l 226.16,-161.82 v -162.49 l -16.78,-161.73 16.78,-160.47 v -159.25 -159.17 l -1.59,-160.85 -27.18,-161.06 28.77,-160.69 v -161.24 l -23.97,-159.05 23.97,-160.64 -28.77,-160.9 4,-161 24.77,-160.92 -39.16,-159.17 15.19,-159.41 23.97,-162.2 v -160.91 l -39.16,-160.49 20.78,-161.2 18.38,-159.13 V 3417.16 3257.67 L 920,3187.8 v 0 0 l 248.54,69.87 v 159.49 159.05 l -18.38,159.13 -20.78,161.2 39.16,160.49 v 160.91 l -23.97,162.2 -15.19,159.41 39.16,159.17 -24.77,160.92 -4,161 28.77,160.9 -23.97,160.64 23.97,159.05 v 161.24 l -28.77,160.69 27.17,161.06 1.6,160.85 v 159.17 159.25 l -16.78,160.47 16.78,161.73 v 162.49 L 920,7110"
         style="fill:#00ff80;fill-opacity:1;fill-rule:nonzero;stroke:none"
         id="path654"
         inkscape:connector-curvature="0" /><path
         d="m 920,7110 v 0 l 226.16,-161.82 v -162.49 l -16.78,-161.73 16.78,-160.47 v -159.25 -159.17 l -1.59,-160.85 -27.18,-161.06 28.77,-160.69 v -161.24 l -23.97,-159.05 23.97,-160.64 -28.77,-160.9 4,-161 24.77,-160.92 -39.16,-159.17 15.19,-159.41 23.97,-162.2 v -160.91 l -39.16,-160.49 20.78,-161.2 18.38,-159.13 V 3417.16 3257.67 L 920,3187.8 v 0 0 l 248.54,69.87 v 159.49 159.05 l -18.38,159.13 -20.78,161.2 39.16,160.49 v 160.91 l -23.97,162.2 -15.19,159.41 39.16,159.17 -24.77,160.92 -4,161 28.77,160.9 -23.97,160.64 23.97,159.05 v 161.24 l -28.77,160.69 27.17,161.06 1.6,160.85 v 159.17 159.25 l -16.78,160.47 16.78,161.73 v 162.49 z"
         style="fill:none;stroke:#000000;stroke-width:5;stroke-linecap:butt;stroke-linejoin:miter;stroke-miterlimit:10;stroke-dasharray:none;stroke-opacity:1"
         id="path656"
         inkscape:connector-curvature="0" /><path
         d="m 920,7110 v 0 l 248.54,-161.82 v -162.49 l -16.78,-161.73 16.78,-160.47 v -159.25 -159.17 l -1.6,-160.85 -27.17,-161.06 28.77,-160.69 v -161.24 l -23.97,-159.05 23.97,-160.64 -28.77,-160.9 4,-161 24.77,-160.92 -39.16,-159.17 15.19,-159.41 23.97,-162.2 v -160.91 l -39.16,-160.49 20.78,-161.2 18.38,-159.13 V 3417.16 3257.67 L 920,3187.8 v 0 0 l 270.92,69.87 v 159.49 159.05 l -18.38,159.13 -20.78,161.2 39.16,160.49 v 160.91 l -23.98,162.2 -15.18,159.41 39.16,159.17 -24.78,160.92 -4,161 28.78,160.9 -23.98,160.64 23.98,159.05 v 161.24 l -28.78,160.69 27.18,161.06 1.6,160.85 v 159.17 159.25 l -16.79,160.47 16.79,161.73 v 162.49 L 920,7110"
         style="fill:#800000;fill-opacity:1;fill-rule:nonzero;stroke:none"
         id="path658"
         inkscape:connector-curvature="0" /><path
         d="m 920,7110 v 0 l 248.54,-161.82 v -162.49 l -16.78,-161.73 16.78,-160.47 v -159.25 -159.17 l -1.6,-160.85 -27.17,-161.06 28.77,-160.69 v -161.24 l -23.97,-159.05 23.97,-160.64 -28.77,-160.9 4,-161 24.77,-160.92 -39.16,-159.17 15.19,-159.41 23.97,-162.2 v -160.91 l -39.16,-160.49 20.78,-161.2 18.38,-159.13 V 3417.16 3257.67 L 920,3187.8 v 0 0 l 270.92,69.87 v 159.49 159.05 l -18.38,159.13 -20.78,161.2 39.16,160.49 v 160.91 l -23.98,162.2 -15.18,159.41 39.16,159.17 -24.78,160.92 -4,161 28.78,160.9 -23.98,160.64 23.98,159.05 v 161.24 l -28.78,160.69 27.18,161.06 1.6,160.85 v 159.17 159.25 l -16.79,160.47 16.79,161.73 v 162.49 z"
         style="fill:none;stroke:#000000;stroke-width:5;stroke-linecap:butt;stroke-linejoin:miter;stroke-miterlimit:10;stroke-dasharray:none;stroke-opacity:1"
         id="path660"
         inkscape:connector-curvature="0" /><path
         d="m 920,7110 v 0 l 270.92,-161.82 v -162.49 l -16.79,-161.73 16.79,-160.47 v -159.25 -159.17 l -1.6,-160.85 -27.18,-161.06 28.78,-160.69 v -161.24 l -23.98,-159.05 23.98,-160.64 -28.78,-160.9 4,-161 24.78,-160.92 -39.16,-159.17 15.18,-159.41 23.98,-162.2 v -160.91 l -39.16,-160.49 20.78,-161.2 18.38,-159.13 V 3417.16 3257.67 L 920,3187.8 v 0 0 l 297.29,69.87 v 159.49 159.05 l -18.38,159.13 -20.78,161.2 39.16,160.49 v 160.91 l -23.98,162.2 -15.18,159.41 39.16,159.17 -24.77,160.92 -4,161 28.77,160.9 -23.98,160.64 23.98,159.05 v 161.24 l -28.77,160.69 27.17,161.06 1.6,160.85 v 159.17 159.25 l -16.78,160.47 16.78,161.73 v 162.49 L 920,7110"
         style="fill:#8000ff;fill-opacity:1;fill-rule:nonzero;stroke:none"
         id="path662"
         inkscape:connector-curvature="0" /><path
         d="m 920,7110 v 0 l 270.92,-161.82 v -162.49 l -16.79,-161.73 16.79,-160.47 v -159.25 -159.17 l -1.6,-160.85 -27.18,-161.06 28.78,-160.69 v -161.24 l -23.98,-159.05 23.98,-160.64 -28.78,-160.9 4,-161 24.78,-160.92 -39.16,-159.17 15.18,-159.41 23.98,-162.2 v -160.91 l -39.16,-160.49 20.78,-161.2 18.38,-159.13 V 3417.16 3257.67 L 920,3187.8 v 0 0 l 297.29,69.87 v 159.49 159.05 l -18.38,159.13 -20.78,161.2 39.16,160.49 v 160.91 l -23.98,162.2 -15.18,159.41 39.16,159.17 -24.77,160.92 -4,161 28.77,160.9 -23.98,160.64 23.98,159.05 v 161.24 l -28.77,160.69 27.17,161.06 1.6,160.85 v 159.17 159.25 l -16.78,160.47 16.78,161.73 v 162.49 z"
         style="fill:none;stroke:#000000;stroke-width:5;stroke-linecap:butt;stroke-linejoin:miter;stroke-miterlimit:10;stroke-dasharray:none;stroke-opacity:1"
         id="path664"
         inkscape:connector-curvature="0" /><path
         d="m 920,7110 v 0 l 297.29,-161.82 v -162.49 l -16.78,-161.73 16.78,-160.47 v -159.25 -159.17 l -1.6,-160.85 -27.17,-161.06 28.77,-160.69 v -161.24 l -23.98,-159.05 23.98,-160.64 -28.77,-160.9 4,-161 24.77,-160.92 -39.16,-159.17 15.18,-159.41 23.98,-162.2 v -160.91 l -39.16,-160.49 20.78,-161.2 18.38,-159.13 V 3417.16 3257.67 L 920,3187.8 v 0 0 l 324.46,69.87 v 159.49 159.05 l -18.38,159.13 -20.78,161.2 39.16,160.49 v 160.91 l -23.98,162.2 -15.18,159.41 39.16,159.17 -24.77,160.92 -4,161 28.77,160.9 -23.98,160.64 23.98,159.05 v 161.24 l -28.77,160.69 27.17,161.06 1.6,160.85 v 159.17 159.25 l -16.78,160.47 16.78,161.73 v 162.49 L 920,7110"
         style="fill:#80e600;fill-opacity:1;fill-rule:nonzero;stroke:none"
         id="path666"
         inkscape:connector-curvature="0" /><path
         d="m 920,7110 v 0 l 297.29,-161.82 v -162.49 l -16.78,-161.73 16.78,-160.47 v -159.25 -159.17 l -1.6,-160.85 -27.17,-161.06 28.77,-160.69 v -161.24 l -23.98,-159.05 23.98,-160.64 -28.77,-160.9 4,-161 24.77,-160.92 -39.16,-159.17 15.18,-159.41 23.98,-162.2 v -160.91 l -39.16,-160.49 20.78,-161.2 18.38,-159.13 V 3417.16 3257.67 L 920,3187.8 v 0 0 l 324.46,69.87 v 159.49 159.05 l -18.38,159.13 -20.78,161.2 39.16,160.49 v 160.91 l -23.98,162.2 -15.18,159.41 39.16,159.17 -24.77,160.92 -4,161 28.77,160.9 -23.98,160.64 23.98,159.05 v 161.24 l -28.77,160.69 27.17,161.06 1.6,160.85 v 159.17 159.25 l -16.78,160.47 16.78,161.73 v 162.49 z"
         style="fill:none;stroke:#000000;stroke-width:5;stroke-linecap:butt;stroke-linejoin:miter;stroke-miterlimit:10;stroke-dasharray:none;stroke-opacity:1"
         id="path668"
         inkscape:connector-curvature="0" /><path
         d="m 920,7110 v 0 l 324.46,-161.82 v -162.49 l -16.78,-161.73 16.78,-160.47 v -159.25 -159.17 l -1.6,-160.85 -27.17,-161.06 28.77,-160.69 v -161.24 l -23.98,-159.05 23.98,-160.64 -28.77,-160.9 4,-161 24.77,-160.92 -39.16,-159.17 15.18,-159.41 23.98,-162.2 v -160.91 l -39.16,-160.49 20.78,-161.2 18.38,-159.13 V 3417.16 3257.67 L 920,3187.8 v 0 0 l 366.02,69.87 v 159.49 159.05 l -18.38,159.13 -20.78,161.2 39.16,160.49 v 160.91 l -23.98,162.2 -15.18,159.41 39.16,159.17 -24.78,160.92 -3.99,161 28.77,160.9 -23.98,160.64 23.98,159.05 v 161.24 l -28.77,160.69 27.17,161.06 1.6,160.85 v 159.17 159.25 l -16.79,160.47 16.79,161.73 v 162.49 L 920,7110"
         style="fill:#80ffff;fill-opacity:1;fill-rule:nonzero;stroke:none"
         id="path670"
         inkscape:connector-curvature="0" /><path
         d="m 920,7110 v 0 l 324.46,-161.82 v -162.49 l -16.78,-161.73 16.78,-160.47 v -159.25 -159.17 l -1.6,-160.85 -27.17,-161.06 28.77,-160.69 v -161.24 l -23.98,-159.05 23.98,-160.64 -28.77,-160.9 4,-161 24.77,-160.92 -39.16,-159.17 15.18,-159.41 23.98,-162.2 v -160.91 l -39.16,-160.49 20.78,-161.2 18.38,-159.13 V 3417.16 3257.67 L 920,3187.8 v 0 0 l 366.02,69.87 v 159.49 159.05 l -18.38,159.13 -20.78,161.2 39.16,160.49 v 160.91 l -23.98,162.2 -15.18,159.41 39.16,159.17 -24.78,160.92 -3.99,161 28.77,160.9 -23.98,160.64 23.98,159.05 v 161.24 l -28.77,160.69 27.17,161.06 1.6,160.85 v 159.17 159.25 l -16.79,160.47 16.79,161.73 v 162.49 z"
         style="fill:none;stroke:#000000;stroke-width:5;stroke-linecap:butt;stroke-linejoin:miter;stroke-miterlimit:10;stroke-dasharray:none;stroke-opacity:1"
         id="path672"
         inkscape:connector-curvature="0" /><path
         d="m 920,7110 v 0 l 366.02,-161.82 v -162.49 l -16.79,-161.73 16.79,-160.47 v -159.25 -159.17 l -1.6,-160.85 -27.17,-161.06 28.77,-160.69 v -161.24 l -23.98,-159.05 23.98,-160.64 -28.77,-160.9 3.99,-161 24.78,-160.92 -39.16,-159.17 15.18,-159.41 23.98,-162.2 v -160.91 l -39.16,-160.49 20.78,-161.2 18.38,-159.13 V 3417.16 3257.67 L 920,3187.8 v 0 0 l 414.77,69.87 v 159.49 159.05 l -18.38,159.13 -20.78,161.2 39.16,160.49 v 160.91 l -23.98,162.2 -15.18,159.41 39.16,159.17 -24.78,160.92 -3.99,161 28.77,160.9 -23.98,160.64 23.98,159.05 v 161.24 l -28.77,160.69 27.17,161.06 1.6,160.85 v 159.17 159.25 l -16.79,160.47 16.79,161.73 v 162.49 L 920,7110"
         style="fill:#ff0080;fill-opacity:1;fill-rule:nonzero;stroke:none"
         id="path674"
         inkscape:connector-curvature="0" /><path
         d="m 920,7110 v 0 l 366.02,-161.82 v -162.49 l -16.79,-161.73 16.79,-160.47 v -159.25 -159.17 l -1.6,-160.85 -27.17,-161.06 28.77,-160.69 v -161.24 l -23.98,-159.05 23.98,-160.64 -28.77,-160.9 3.99,-161 24.78,-160.92 -39.16,-159.17 15.18,-159.41 23.98,-162.2 v -160.91 l -39.16,-160.49 20.78,-161.2 18.38,-159.13 V 3417.16 3257.67 L 920,3187.8 v 0 0 l 414.77,69.87 v 159.49 159.05 l -18.38,159.13 -20.78,161.2 39.16,160.49 v 160.91 l -23.98,162.2 -15.18,159.41 39.16,159.17 -24.78,160.92 -3.99,161 28.77,160.9 -23.98,160.64 23.98,159.05 v 161.24 l -28.77,160.69 27.17,161.06 1.6,160.85 v 159.17 159.25 l -16.79,160.47 16.79,161.73 v 162.49 z"
         style="fill:none;stroke:#000000;stroke-width:5;stroke-linecap:butt;stroke-linejoin:miter;stroke-miterlimit:10;stroke-dasharray:none;stroke-opacity:1"
         id="path676"
         inkscape:connector-curvature="0" /><path
         d="m 920,7110 v 0 l 414.77,-161.82 v -162.49 l -16.79,-161.73 16.79,-160.47 v -159.25 -159.17 l -1.6,-160.85 -27.17,-161.06 28.77,-160.69 v -161.24 l -23.98,-159.05 23.98,-160.64 -28.77,-160.9 3.99,-161 24.78,-160.92 -39.16,-159.17 15.18,-159.41 23.98,-162.2 v -160.91 l -39.16,-160.49 20.78,-161.2 18.38,-159.13 V 3417.16 3257.67 L 920,3187.8 v 0 0 l 478.7,69.87 v 159.49 159.05 l -18.38,159.13 -20.78,161.2 39.16,160.49 v 160.91 l -23.98,162.2 -15.18,159.41 39.16,159.17 -24.77,160.92 -4,161 28.77,160.9 -23.98,160.64 23.98,159.05 v 161.24 l -28.77,160.69 27.17,161.06 1.6,160.85 v 159.17 159.25 l -16.78,160.47 16.78,161.73 v 162.49 L 920,7110"
         style="fill:#ff8000;fill-opacity:1;fill-rule:nonzero;stroke:none"
         id="path678"
         inkscape:connector-curvature="0" /><path
         d="m 920,7110 v 0 l 414.77,-161.82 v -162.49 l -16.79,-161.73 16.79,-160.47 v -159.25 -159.17 l -1.6,-160.85 -27.17,-161.06 28.77,-160.69 v -161.24 l -23.98,-159.05 23.98,-160.64 -28.77,-160.9 3.99,-161 24.78,-160.92 -39.16,-159.17 15.18,-159.41 23.98,-162.2 v -160.91 l -39.16,-160.49 20.78,-161.2 18.38,-159.13 V 3417.16 3257.67 L 920,3187.8 v 0 0 l 478.7,69.87 v 159.49 159.05 l -18.38,159.13 -20.78,161.2 39.16,160.49 v 160.91 l -23.98,162.2 -15.18,159.41 39.16,159.17 -24.77,160.92 -4,161 28.77,160.9 -23.98,160.64 23.98,159.05 v 161.24 l -28.77,160.69 27.17,161.06 1.6,160.85 v 159.17 159.25 l -16.78,160.47 16.78,161.73 v 162.49 z"
         style="fill:none;stroke:#000000;stroke-width:5;stroke-linecap:butt;stroke-linejoin:miter;stroke-miterlimit:10;stroke-dasharray:none;stroke-opacity:1"
         id="path680"
         inkscape:connector-curvature="0" /><path
         d="m 920,7110 v 0 l 478.7,-161.82 v -162.49 l -16.78,-161.73 16.78,-160.47 v -159.25 -159.17 l -1.6,-160.85 -27.17,-161.06 28.77,-160.69 v -161.24 l -23.98,-159.05 23.98,-160.64 -28.77,-160.9 4,-161 24.77,-160.92 -39.16,-159.17 15.18,-159.41 23.98,-162.2 v -160.91 l -39.16,-160.49 20.78,-161.2 18.38,-159.13 V 3417.16 3257.67 L 920,3187.8 v 0 0 l 551.42,69.87 v 159.49 159.05 l -18.38,159.13 -20.78,161.2 39.16,160.49 v 160.91 l -23.97,162.2 -15.19,159.41 39.16,159.17 -24.77,160.92 -4,161 28.77,160.9 -23.97,160.64 23.97,159.05 v 161.24 l -28.77,160.69 27.17,161.06 1.6,160.85 v 159.17 159.25 l -16.78,160.47 16.78,161.73 v 162.49 L 920,7110"
         style="fill:#ff80ff;fill-opacity:1;fill-rule:nonzero;stroke:none"
         id="path682"
         inkscape:connector-curvature="0" /><path
         d="m 920,7110 v 0 l 478.7,-161.82 v -162.49 l -16.78,-161.73 16.78,-160.47 v -159.25 -159.17 l -1.6,-160.85 -27.17,-161.06 28.77,-160.69 v -161.24 l -23.98,-159.05 23.98,-160.64 -28.77,-160.9 4,-161 24.77,-160.92 -39.16,-159.17 15.18,-159.41 23.98,-162.2 v -160.91 l -39.16,-160.49 20.78,-161.2 18.38,-159.13 V 3417.16 3257.67 L 920,3187.8 v 0 0 l 551.42,69.87 v 159.49 159.05 l -18.38,159.13 -20.78,161.2 39.16,160.49 v 160.91 l -23.97,162.2 -15.19,159.41 39.16,159.17 -24.77,160.92 -4,161 28.77,160.9 -23.97,160.64 23.97,159.05 v 161.24 l -28.77,160.69 27.17,161.06 1.6,160.85 v 159.17 159.25 l -16.78,160.47 16.78,161.73 v 162.49 z"
         style="fill:none;stroke:#000000;stroke-width:5;stroke-linecap:butt;stroke-linejoin:miter;stroke-miterlimit:10;stroke-dasharray:none;stroke-opacity:1"
         id="path684"
         inkscape:connector-curvature="0" /><path
         d="m 920,7110 v 0 l 551.42,-161.82 v -162.49 l -16.78,-161.73 16.78,-160.47 v -159.25 -159.17 l -1.6,-160.85 -27.17,-161.06 28.77,-160.69 v -161.24 l -23.97,-159.05 23.97,-160.64 -28.77,-160.9 4,-161 24.77,-160.92 -39.16,-159.17 15.19,-159.41 23.97,-162.2 v -160.91 l -39.16,-160.49 20.78,-161.2 18.38,-159.13 V 3417.16 3257.67 L 920,3187.8 v 0 0 l 3820,69.87 v 159.49 159.05 l -18.38,159.13 -20.78,161.2 39.16,160.49 v 160.91 l -23.98,162.2 -15.18,159.41 39.16,159.17 -24.77,160.92 -4,161 28.77,160.9 -23.98,160.64 23.98,159.05 v 161.24 l -28.77,160.69 27.17,161.06 1.6,160.85 v 159.17 159.25 l -16.78,160.47 16.78,161.73 v 162.49 L 920,7110"
         style="fill:#ffff80;fill-opacity:1;fill-rule:nonzero;stroke:none"
         id="path686"
         inkscape:connector-curvature="0" /><path
         d="m 920,7110 v 0 l 551.42,-161.82 v -162.49 l -16.78,-161.73 16.78,-160.47 v -159.25 -159.17 l -1.6,-160.85 -27.17,-161.06 28.77,-160.69 v -161.24 l -23.97,-159.05 23.97,-160.64 -28.77,-160.9 4,-161 24.77,-160.92 -39.16,-159.17 15.19,-159.41 23.97,-162.2 v -160.91 l -39.16,-160.49 20.78,-161.2 18.38,-159.13 V 3417.16 3257.67 L 920,3187.8 v 0 0 l 3820,69.87 v 159.49 159.05 l -18.38,159.13 -20.78,161.2 39.16,160.49 v 160.91 l -23.98,162.2 -15.18,159.41 39.16,159.17 -24.77,160.92 -4,161 28.77,160.9 -23.98,160.64 23.98,159.05 v 161.24 l -28.77,160.69 27.17,161.06 1.6,160.85 v 159.17 159.25 l -16.78,160.47 16.78,161.73 v 162.49 z"
         style="fill:none;stroke:#000000;stroke-width:5;stroke-linecap:butt;stroke-linejoin:miter;stroke-miterlimit:10;stroke-dasharray:none;stroke-opacity:1"
         id="path688"
         inkscape:connector-curvature="0" /></g></g></svg>