<?xml version="1.0" encoding="UTF-8" standalone="no"?>
<!-- Created with Inkscape (http://www.inkscape.org/) -->

<svg
   xmlns:dc="http://purl.org/dc/elements/1.1/"
   xmlns:cc="http://creativecommons.org/ns#"
   xmlns:rdf="http://www.w3.org/1999/02/22-rdf-syntax-ns#"
   xmlns:svg="http://www.w3.org/2000/svg"
   xmlns="http://www.w3.org/2000/svg"
   xmlns:sodipodi="http://sodipodi.sourceforge.net/DTD/sodipodi-0.dtd"
   xmlns:inkscape="http://www.inkscape.org/namespaces/inkscape"
   version="1.1"
   id="svg2"
   xml:space="preserve"
   width="864.66663"
   height="576.66663"
   viewBox="0 0 864.66663 576.66663"
   sodipodi:docname="attempt3.svg"
   inkscape:version="0.92.1 r"><metadata
     id="metadata8"><rdf:RDF><cc:Work
         rdf:about=""><dc:format>image/svg+xml</dc:format><dc:type
           rdf:resource="http://purl.org/dc/dcmitype/StillImage" /><dc:title></dc:title></cc:Work></rdf:RDF></metadata><defs
     id="defs6" /><sodipodi:namedview
     pagecolor="#ffffff"
     bordercolor="#666666"
     borderopacity="1"
     objecttolerance="10"
     gridtolerance="10"
     guidetolerance="10"
     inkscape:pageopacity="0"
     inkscape:pageshadow="2"
     inkscape:window-width="640"
     inkscape:window-height="480"
     id="namedview4"
     showgrid="false"
     fit-margin-top="0"
     fit-margin-left="0"
     fit-margin-right="0"
     fit-margin-bottom="0"
     inkscape:zoom="0.28921569"
     inkscape:cx="480.33331"
     inkscape:cy="312.33334"
     inkscape:window-x="0"
     inkscape:window-y="0"
     inkscape:window-maximized="0"
     inkscape:current-layer="g10" /><g
     id="g10"
     inkscape:groupmode="layer"
     inkscape:label="ink_ext_XXXXXX"
     transform="matrix(0,-1.3333333,-1.3333333,0,1008.3333,672.33332)"><g
       id="g12"
       transform="scale(0.1)"><path
         d="M 720,1080 H 5040 V 7560 H 720 Z"
         style="fill:none;stroke:#000000;stroke-width:5;stroke-linecap:butt;stroke-linejoin:miter;stroke-miterlimit:10;stroke-dasharray:none;stroke-opacity:1"
         id="path14"
         inkscape:connector-curvature="0" /><path
         d="m 4790,1130 h 200 v 6380 h -200 z"
         style="fill:none;stroke:#000000;stroke-width:5;stroke-linecap:butt;stroke-linejoin:miter;stroke-miterlimit:10;stroke-dasharray:none;stroke-opacity:1"
         id="path16"
         inkscape:connector-curvature="0" /><g
         id="g18"
         transform="scale(10)"><text
           transform="matrix(0,-1,-1,0,485,745)"
           style="font-variant:normal;font-weight:normal;font-size:12px;font-family:Helvetica;-inkscape-font-specification:Helvetica;writing-mode:lr-tb;fill:#000000;fill-opacity:1;fill-rule:nonzero;stroke:none"
           id="text22"><tspan
             x="0 6.6719999 10.008 13.344 20.016001 30.011999 36.683998 40.02 46.692001 50.028 56.700001 63.372002 66.708 73.379997 80.052002 83.388 90.059998 96.732002 100.068 107.076 115.74 123.072 131.076 134.412 138.408 145.08 233.28912 239.96112 246.63312 249.96912 256.64111 263.31311 269.98511 273.32111 279.99313 286.66513 293.33713 296.67313 303.34512 309.34512 312.68112 319.35312 325.35312 328.68912 334.68912 338.02512 344.02512 350.69711 356.69711 363.36911 370.04111 376.71313 502.58243 510.58643 517.25842 523.93042 527.26642 535.27045 541.94244 545.93842 549.27441 555.94641 562.61847 565.95447 572.62646 579.29846 582.63446 589.30646 595.97845 599.31445 605.98645 612.65845 619.33044"
             y="0"
             sodipodi:role="line"
             id="tspan20">attempt3 10 90 30 +RTS -hc87,645,621 bytes x secondsSun Apr 23 22:09 2017</tspan></text>
</g><path
         d="M 920,7110 V 3051.73"
         style="fill:none;stroke:#000000;stroke-width:5;stroke-linecap:butt;stroke-linejoin:miter;stroke-miterlimit:10;stroke-dasharray:none;stroke-opacity:1"
         id="path24"
         inkscape:connector-curvature="0" /><g
         id="g26"
         transform="scale(10)"><text
           transform="matrix(0,-1,-1,0,77,342.413)"
           style="font-variant:normal;font-weight:normal;font-size:10px;font-family:Helvetica;-inkscape-font-specification:Helvetica;writing-mode:lr-tb;fill:#000000;fill-opacity:1;fill-rule:nonzero;stroke:none"
           id="text30"><tspan
             x="0 5 10.56 15.56 21.120001 26.68 32.240002"
             y="0"
             sodipodi:role="line"
             id="tspan28">seconds</tspan></text>
</g><path
         d="M 920,7110 H 880"
         style="fill:none;stroke:#000000;stroke-width:5;stroke-linecap:butt;stroke-linejoin:miter;stroke-miterlimit:10;stroke-dasharray:none;stroke-opacity:1"
         id="path32"
         inkscape:connector-curvature="0" /><g
         id="g34"
         transform="scale(10)"><text
           transform="matrix(0,-1,-1,0,77,717.95)"
           style="font-variant:normal;font-weight:normal;font-size:10px;font-family:Helvetica;-inkscape-font-specification:Helvetica;writing-mode:lr-tb;fill:#000000;fill-opacity:1;fill-rule:nonzero;stroke:none"
           id="text38"><tspan
             x="0 5.5599999 8.3400002"
             y="0"
             sodipodi:role="line"
             id="tspan36">0.0</tspan></text>
</g><path
         d="M 920,6621.02 H 880"
         style="fill:none;stroke:#000000;stroke-width:5;stroke-linecap:butt;stroke-linejoin:miter;stroke-miterlimit:10;stroke-dasharray:none;stroke-opacity:1"
         id="path40"
         inkscape:connector-curvature="0" /><g
         id="g42"
         transform="scale(10)"><text
           transform="matrix(0,-1,-1,0,77,669.052)"
           style="font-variant:normal;font-weight:normal;font-size:10px;font-family:Helvetica;-inkscape-font-specification:Helvetica;writing-mode:lr-tb;fill:#000000;fill-opacity:1;fill-rule:nonzero;stroke:none"
           id="text46"><tspan
             x="0 5.5599999 8.3400002"
             y="0"
             sodipodi:role="line"
             id="tspan44">0.2</tspan></text>
</g><path
         d="M 920,6132.04 H 880"
         style="fill:none;stroke:#000000;stroke-width:5;stroke-linecap:butt;stroke-linejoin:miter;stroke-miterlimit:10;stroke-dasharray:none;stroke-opacity:1"
         id="path48"
         inkscape:connector-curvature="0" /><g
         id="g50"
         transform="scale(10)"><text
           transform="matrix(0,-1,-1,0,77,620.154)"
           style="font-variant:normal;font-weight:normal;font-size:10px;font-family:Helvetica;-inkscape-font-specification:Helvetica;writing-mode:lr-tb;fill:#000000;fill-opacity:1;fill-rule:nonzero;stroke:none"
           id="text54"><tspan
             x="0 5.5599999 8.3400002"
             y="0"
             sodipodi:role="line"
             id="tspan52">0.4</tspan></text>
</g><path
         d="M 920,5643.07 H 880"
         style="fill:none;stroke:#000000;stroke-width:5;stroke-linecap:butt;stroke-linejoin:miter;stroke-miterlimit:10;stroke-dasharray:none;stroke-opacity:1"
         id="path56"
         inkscape:connector-curvature="0" /><g
         id="g58"
         transform="scale(10)"><text
           transform="matrix(0,-1,-1,0,77,571.256)"
           style="font-variant:normal;font-weight:normal;font-size:10px;font-family:Helvetica;-inkscape-font-specification:Helvetica;writing-mode:lr-tb;fill:#000000;fill-opacity:1;fill-rule:nonzero;stroke:none"
           id="text62"><tspan
             x="0 5.5599999 8.3400002"
             y="0"
             sodipodi:role="line"
             id="tspan60">0.6</tspan></text>
</g><path
         d="M 920,5154.09 H 880"
         style="fill:none;stroke:#000000;stroke-width:5;stroke-linecap:butt;stroke-linejoin:miter;stroke-miterlimit:10;stroke-dasharray:none;stroke-opacity:1"
         id="path64"
         inkscape:connector-curvature="0" /><g
         id="g66"
         transform="scale(10)"><text
           transform="matrix(0,-1,-1,0,77,522.359)"
           style="font-variant:normal;font-weight:normal;font-size:10px;font-family:Helvetica;-inkscape-font-specification:Helvetica;writing-mode:lr-tb;fill:#000000;fill-opacity:1;fill-rule:nonzero;stroke:none"
           id="text70"><tspan
             x="0 5.5599999 8.3400002"
             y="0"
             sodipodi:role="line"
             id="tspan68">0.8</tspan></text>
</g><path
         d="M 920,4665.11 H 880"
         style="fill:none;stroke:#000000;stroke-width:5;stroke-linecap:butt;stroke-linejoin:miter;stroke-miterlimit:10;stroke-dasharray:none;stroke-opacity:1"
         id="path72"
         inkscape:connector-curvature="0" /><g
         id="g74"
         transform="scale(10)"><text
           transform="matrix(0,-1,-1,0,77,473.461)"
           style="font-variant:normal;font-weight:normal;font-size:10px;font-family:Helvetica;-inkscape-font-specification:Helvetica;writing-mode:lr-tb;fill:#000000;fill-opacity:1;fill-rule:nonzero;stroke:none"
           id="text78"><tspan
             x="0 5.5599999 8.3400002"
             y="0"
             sodipodi:role="line"
             id="tspan76">1.0</tspan></text>
</g><path
         d="M 920,4176.13 H 880"
         style="fill:none;stroke:#000000;stroke-width:5;stroke-linecap:butt;stroke-linejoin:miter;stroke-miterlimit:10;stroke-dasharray:none;stroke-opacity:1"
         id="path80"
         inkscape:connector-curvature="0" /><g
         id="g82"
         transform="scale(10)"><text
           transform="matrix(0,-1,-1,0,77,424.563)"
           style="font-variant:normal;font-weight:normal;font-size:10px;font-family:Helvetica;-inkscape-font-specification:Helvetica;writing-mode:lr-tb;fill:#000000;fill-opacity:1;fill-rule:nonzero;stroke:none"
           id="text86"><tspan
             x="0 5.5599999 8.3400002"
             y="0"
             sodipodi:role="line"
             id="tspan84">1.2</tspan></text>
</g><path
         d="M 920,3687.16 H 880"
         style="fill:none;stroke:#000000;stroke-width:5;stroke-linecap:butt;stroke-linejoin:miter;stroke-miterlimit:10;stroke-dasharray:none;stroke-opacity:1"
         id="path88"
         inkscape:connector-curvature="0" /><g
         id="g90"
         transform="scale(10)"><text
           transform="matrix(0,-1,-1,0,77,375.665)"
           style="font-variant:normal;font-weight:normal;font-size:10px;font-family:Helvetica;-inkscape-font-specification:Helvetica;writing-mode:lr-tb;fill:#000000;fill-opacity:1;fill-rule:nonzero;stroke:none"
           id="text94"><tspan
             x="0 5.5599999 8.3400002"
             y="0"
             sodipodi:role="line"
             id="tspan92">1.4</tspan></text>
</g><path
         d="M 920,7110 H 4740"
         style="fill:none;stroke:#000000;stroke-width:5;stroke-linecap:butt;stroke-linejoin:miter;stroke-miterlimit:10;stroke-dasharray:none;stroke-opacity:1"
         id="path96"
         inkscape:connector-curvature="0" /><g
         id="g98"
         transform="scale(10)"><text
           transform="matrix(1,0,0,-1,450.101,716)"
           style="font-variant:normal;font-weight:normal;font-size:10px;font-family:Helvetica;-inkscape-font-specification:Helvetica;writing-mode:lr-tb;fill:#000000;fill-opacity:1;fill-rule:nonzero;stroke:none"
           id="text102"><tspan
             x="0 5.5599999 10.56 13.34 18.9"
             y="0"
             sodipodi:role="line"
             id="tspan100">bytes</tspan></text>
</g><path
         d="m 920,7110 v 40"
         style="fill:none;stroke:#000000;stroke-width:5;stroke-linecap:butt;stroke-linejoin:miter;stroke-miterlimit:10;stroke-dasharray:none;stroke-opacity:1"
         id="path104"
         inkscape:connector-curvature="0" /><g
         id="g106"
         transform="scale(10)"><text
           transform="matrix(0,-1,-1,0,92,729.889)"
           style="font-variant:normal;font-weight:normal;font-size:10px;font-family:Helvetica;-inkscape-font-specification:Helvetica;writing-mode:lr-tb;fill:#000000;fill-opacity:1;fill-rule:nonzero;stroke:none"
           id="text110"><tspan
             x="0 5.5599999"
             y="0"
             sodipodi:role="line"
             id="tspan108">0M</tspan></text>
</g><path
         d="m 1666.75,7110 v 40"
         style="fill:none;stroke:#000000;stroke-width:5;stroke-linecap:butt;stroke-linejoin:miter;stroke-miterlimit:10;stroke-dasharray:none;stroke-opacity:1"
         id="path112"
         inkscape:connector-curvature="0" /><g
         id="g114"
         transform="scale(10)"><text
           transform="matrix(0,-1,-1,0,166.675,735.449)"
           style="font-variant:normal;font-weight:normal;font-size:10px;font-family:Helvetica;-inkscape-font-specification:Helvetica;writing-mode:lr-tb;fill:#000000;fill-opacity:1;fill-rule:nonzero;stroke:none"
           id="text118"><tspan
             x="0 5.5599999 11.12"
             y="0"
             sodipodi:role="line"
             id="tspan116">20M</tspan></text>
</g><path
         d="m 2413.5,7110 v 40"
         style="fill:none;stroke:#000000;stroke-width:5;stroke-linecap:butt;stroke-linejoin:miter;stroke-miterlimit:10;stroke-dasharray:none;stroke-opacity:1"
         id="path120"
         inkscape:connector-curvature="0" /><g
         id="g122"
         transform="scale(10)"><text
           transform="matrix(0,-1,-1,0,241.35,735.449)"
           style="font-variant:normal;font-weight:normal;font-size:10px;font-family:Helvetica;-inkscape-font-specification:Helvetica;writing-mode:lr-tb;fill:#000000;fill-opacity:1;fill-rule:nonzero;stroke:none"
           id="text126"><tspan
             x="0 5.5599999 11.12"
             y="0"
             sodipodi:role="line"
             id="tspan124">40M</tspan></text>
</g><path
         d="m 3160.25,7110 v 40"
         style="fill:none;stroke:#000000;stroke-width:5;stroke-linecap:butt;stroke-linejoin:miter;stroke-miterlimit:10;stroke-dasharray:none;stroke-opacity:1"
         id="path128"
         inkscape:connector-curvature="0" /><g
         id="g130"
         transform="scale(10)"><text
           transform="matrix(0,-1,-1,0,316.025,735.449)"
           style="font-variant:normal;font-weight:normal;font-size:10px;font-family:Helvetica;-inkscape-font-specification:Helvetica;writing-mode:lr-tb;fill:#000000;fill-opacity:1;fill-rule:nonzero;stroke:none"
           id="text134"><tspan
             x="0 5.5599999 11.12"
             y="0"
             sodipodi:role="line"
             id="tspan132">60M</tspan></text>
</g><path
         d="m 3907,7110 v 40"
         style="fill:none;stroke:#000000;stroke-width:5;stroke-linecap:butt;stroke-linejoin:miter;stroke-miterlimit:10;stroke-dasharray:none;stroke-opacity:1"
         id="path136"
         inkscape:connector-curvature="0" /><g
         id="g138"
         transform="scale(10)"><text
           transform="matrix(0,-1,-1,0,390.7,735.449)"
           style="font-variant:normal;font-weight:normal;font-size:10px;font-family:Helvetica;-inkscape-font-specification:Helvetica;writing-mode:lr-tb;fill:#000000;fill-opacity:1;fill-rule:nonzero;stroke:none"
           id="text142"><tspan
             x="0 5.5599999 11.12"
             y="0"
             sodipodi:role="line"
             id="tspan140">80M</tspan></text>
</g><path
         d="m 1395.71,2861.73 h 140 v 140 h -140 z"
         style="fill:#000000;fill-opacity:1;fill-rule:nonzero;stroke:none"
         id="path144"
         inkscape:connector-curvature="0" /><path
         d="m 1395.71,2861.73 h 140 v 140 h -140 z"
         style="fill:none;stroke:#000000;stroke-width:5;stroke-linecap:butt;stroke-linejoin:miter;stroke-miterlimit:10;stroke-dasharray:none;stroke-opacity:1"
         id="path146"
         inkscape:connector-curvature="0" /><g
         id="g148"
         transform="scale(10)"><text
           transform="matrix(0,-1,-1,0,141.571,281.173)"
           style="font-variant:normal;font-weight:normal;font-size:10px;font-family:Helvetica;-inkscape-font-specification:Helvetica;writing-mode:lr-tb;fill:#000000;fill-opacity:1;fill-rule:nonzero;stroke:none"
           id="text152"><tspan
             x="0 3.3299999 8.8900003 14.45 20.01 25.57 31.129999 34.459999 40.02 45.580002 48.91 53.91 59.470001 66.139999 68.919998 74.760002 80.599998 86.440002 89.220001 92 94.779999 97.559998 100.34 106.18 112.02 117.86 120.64 123.42 126.2 128.98 131.75999"
             y="0"
             sodipodi:role="line"
             id="tspan150">(12173)parseS/&gt;&gt;=.\.\/&gt;&gt;=.\/...</tspan></text>
</g><path
         d="m 1941.43,2861.73 h 140 v 140 h -140 z"
         style="fill:#0000ff;fill-opacity:1;fill-rule:nonzero;stroke:none"
         id="path154"
         inkscape:connector-curvature="0" /><path
         d="m 1941.43,2861.73 h 140 v 140 h -140 z"
         style="fill:none;stroke:#000000;stroke-width:5;stroke-linecap:butt;stroke-linejoin:miter;stroke-miterlimit:10;stroke-dasharray:none;stroke-opacity:1"
         id="path156"
         inkscape:connector-curvature="0" /><g
         id="g158"
         transform="scale(10)"><text
           transform="matrix(0,-1,-1,0,196.143,281.173)"
           style="font-variant:normal;font-weight:normal;font-size:10px;font-family:Helvetica;-inkscape-font-specification:Helvetica;writing-mode:lr-tb;fill:#000000;fill-opacity:1;fill-rule:nonzero;stroke:none"
           id="text162"><tspan
             x="0 3.3299999 8.8900003 14.45 20.01 25.57 31.129999 34.459999 40.02 45.580002 48.91 53.91 59.470001 66.139999 71.139999 76.699997 78.919998 84.480003 87.809998 90.589996 93.370003 101.7 107.26 112.82 115.6 118.38 121.16 123.94 132.27 135.05 137.83"
             y="0"
             sodipodi:role="line"
             id="tspan160">(12170)parseScalar/fmap.\/fm...</tspan></text>
</g><path
         d="m 2487.14,2861.73 h 140 v 140 h -140 z"
         style="fill:#00ff00;fill-opacity:1;fill-rule:nonzero;stroke:none"
         id="path164"
         inkscape:connector-curvature="0" /><path
         d="m 2487.14,2861.73 h 140 v 140 h -140 z"
         style="fill:none;stroke:#000000;stroke-width:5;stroke-linecap:butt;stroke-linejoin:miter;stroke-miterlimit:10;stroke-dasharray:none;stroke-opacity:1"
         id="path166"
         inkscape:connector-curvature="0" /><g
         id="g168"
         transform="scale(10)"><text
           transform="matrix(0,-1,-1,0,250.714,281.173)"
           style="font-variant:normal;font-weight:normal;font-size:10px;font-family:Helvetica;-inkscape-font-specification:Helvetica;writing-mode:lr-tb;fill:#000000;fill-opacity:1;fill-rule:nonzero;stroke:none"
           id="text172"><tspan
             x="0 3.3299999 8.8900003 14.45 20.01 25.57 31.129999 34.459999 40.02 45.580002 48.91 54.470001 57.25 62.810001 68.370003 71.699997 76.699997 82.260002 88.93 93.93 99.489998 101.71 107.27 110.6 113.38 116.16 124.49 130.05 135.61 138.39 141.17"
             y="0"
             sodipodi:role="line"
             id="tspan170">(12171)pure/parseScalar/fmap...</tspan></text>
</g><path
         d="m 3032.86,2861.73 h 140 v 140 h -140 z"
         style="fill:#00ffff;fill-opacity:1;fill-rule:nonzero;stroke:none"
         id="path174"
         inkscape:connector-curvature="0" /><path
         d="m 3032.86,2861.73 h 140 v 140 h -140 z"
         style="fill:none;stroke:#000000;stroke-width:5;stroke-linecap:butt;stroke-linejoin:miter;stroke-miterlimit:10;stroke-dasharray:none;stroke-opacity:1"
         id="path176"
         inkscape:connector-curvature="0" /><g
         id="g178"
         transform="scale(10)"><text
           transform="matrix(0,-1,-1,0,305.286,281.173)"
           style="font-variant:normal;font-weight:normal;font-size:10px;font-family:Helvetica;-inkscape-font-specification:Helvetica;writing-mode:lr-tb;fill:#000000;fill-opacity:1;fill-rule:nonzero;stroke:none"
           id="text182"><tspan
             x="0 3.3299999 8.8900003 14.45 20.01 25.57 31.129999 34.459999 40.299999 46.139999 51.98 54.759998 57.540001 60.32 63.099998 65.879997 71.720001 77.559998 83.400002 86.18 88.959999 91.739998 97.580002 103.42 109.26 112.04 117.6 123.16 126.49 129.27 132.05"
             y="0"
             sodipodi:role="line"
             id="tspan180">(12140)&gt;&gt;=.\.\/&gt;&gt;=.\/&gt;&gt;=/par...</tspan></text>
</g><path
         d="m 3578.57,2861.73 h 140 v 140 h -140 z"
         style="fill:#ff0000;fill-opacity:1;fill-rule:nonzero;stroke:none"
         id="path184"
         inkscape:connector-curvature="0" /><path
         d="m 3578.57,2861.73 h 140 v 140 h -140 z"
         style="fill:none;stroke:#000000;stroke-width:5;stroke-linecap:butt;stroke-linejoin:miter;stroke-miterlimit:10;stroke-dasharray:none;stroke-opacity:1"
         id="path186"
         inkscape:connector-curvature="0" /><g
         id="g188"
         transform="scale(10)"><text
           transform="matrix(0,-1,-1,0,359.857,281.173)"
           style="font-variant:normal;font-weight:normal;font-size:10px;font-family:Helvetica;-inkscape-font-specification:Helvetica;writing-mode:lr-tb;fill:#000000;fill-opacity:1;fill-rule:nonzero;stroke:none"
           id="text192"><tspan
             x="0 3.3299999 8.8900003 14.45 20.01 25.57 31.129999 34.459999 40.02 45.580002 48.360001 55.029999 60.029999 65.589996 71.150002 73.93 76.709999 82.269997 87.830002 91.160004 96.160004 101.72 105.05 111.72 117.28 120.61 125.61 131.17 138.95 141.73 144.50999"
             y="0"
             sodipodi:role="line"
             id="tspan190">(12106)getEvent/parserParseO...</tspan></text>
</g><path
         d="m 4124.29,2861.73 h 140 v 140 h -140 z"
         style="fill:#ff00ff;fill-opacity:1;fill-rule:nonzero;stroke:none"
         id="path194"
         inkscape:connector-curvature="0" /><path
         d="m 4124.29,2861.73 h 140 v 140 h -140 z"
         style="fill:none;stroke:#000000;stroke-width:5;stroke-linecap:butt;stroke-linejoin:miter;stroke-miterlimit:10;stroke-dasharray:none;stroke-opacity:1"
         id="path196"
         inkscape:connector-curvature="0" /><g
         id="g198"
         transform="scale(10)"><text
           transform="matrix(0,-1,-1,0,414.429,281.173)"
           style="font-variant:normal;font-weight:normal;font-size:10px;font-family:Helvetica;-inkscape-font-specification:Helvetica;writing-mode:lr-tb;fill:#000000;fill-opacity:1;fill-rule:nonzero;stroke:none"
           id="text202"><tspan
             x="0 3.3299999 8.8900003 14.45 20.01 25.57 28.9 35.57 38.349998 45.57 52.790001 59.459999"
             y="0"
             sodipodi:role="line"
             id="tspan200">(5970)PINNED</tspan></text>
</g><path
         d="m 920,7110 v 0 -4058.27 l 95,117.81 -6.11,244.91 -6.06,243.85 -6.131,245.41 -6.097,252.63 -6.219,248.19 -6.008,242.66 -6.012,242.46 -6.246,250.65 -6.07,243.68 -6.039,243.57 -5.438,245.77 -6.07,243.38 -6.066,242.94 -6.282,251.59 -6.035,245.14 L 920,7110"
         style="fill:#000000;fill-opacity:1;fill-rule:nonzero;stroke:none"
         id="path204"
         inkscape:connector-curvature="0" /><path
         d="m 920,7110 v 0 -4058.27 l 95,117.81 -6.11,244.91 -6.06,243.85 -6.131,245.41 -6.097,252.63 -6.219,248.19 -6.008,242.66 -6.012,242.46 -6.246,250.65 -6.07,243.68 -6.039,243.57 -5.438,245.77 -6.07,243.38 -6.066,242.94 -6.282,251.59 -6.035,245.14 z"
         style="fill:none;stroke:#000000;stroke-width:5;stroke-linecap:butt;stroke-linejoin:miter;stroke-miterlimit:10;stroke-dasharray:none;stroke-opacity:1"
         id="path206"
         inkscape:connector-curvature="0" /><path
         d="m 920,7110 v 0 l 4.117,-253.63 6.035,-245.14 6.282,-251.59 6.066,-242.94 6.07,-243.38 5.438,-245.77 6.039,-243.57 6.07,-243.68 6.246,-250.65 6.012,-242.46 6.008,-242.66 6.219,-248.19 6.097,-252.63 6.131,-245.41 6.06,-243.85 6.11,-244.91 -95,-117.81 v 0 0 l 238.04,117.81 -15.23,244.91 -15.14,243.85 -15.3,245.41 -15.22,252.63 -15.52,248.19 -15,242.66 -15,242.46 -15.59,250.65 -15.15,243.68 -15.07,243.57 -13.578,245.77 -15.148,243.38 -15.145,242.94 -15.672,251.59 -15.07,245.14 L 920,7110"
         style="fill:#0000ff;fill-opacity:1;fill-rule:nonzero;stroke:none"
         id="path208"
         inkscape:connector-curvature="0" /><path
         d="m 920,7110 v 0 l 4.117,-253.63 6.035,-245.14 6.282,-251.59 6.066,-242.94 6.07,-243.38 5.438,-245.77 6.039,-243.57 6.07,-243.68 6.246,-250.65 6.012,-242.46 6.008,-242.66 6.219,-248.19 6.097,-252.63 6.131,-245.41 6.06,-243.85 6.11,-244.91 -95,-117.81 v 0 0 l 238.04,117.81 -15.23,244.91 -15.14,243.85 -15.3,245.41 -15.22,252.63 -15.52,248.19 -15,242.66 -15,242.46 -15.59,250.65 -15.15,243.68 -15.07,243.57 -13.578,245.77 -15.148,243.38 -15.145,242.94 -15.672,251.59 -15.07,245.14 z"
         style="fill:none;stroke:#000000;stroke-width:5;stroke-linecap:butt;stroke-linejoin:miter;stroke-miterlimit:10;stroke-dasharray:none;stroke-opacity:1"
         id="path210"
         inkscape:connector-curvature="0" /><path
         d="m 920,7110 v 0 l 11.207,-253.63 15.07,-245.14 15.672,-251.59 15.145,-242.94 15.148,-243.38 13.578,-245.77 15.07,-243.57 15.15,-243.68 15.59,-250.65 15,-242.46 15,-242.66 15.52,-248.19 15.22,-252.63 15.3,-245.41 15.14,-243.85 15.23,-244.91 L 920,3051.73 v 0 0 l 476.44,117.81 -30.44,244.91 -30.27,243.85 -30.57,245.41 -30.43,252.63 -31.02,248.19 -29.98,242.66 -29.98,242.46 -31.17,250.65 -30.28,243.68 -30.13,243.57 -27.14,245.77 -30.28,243.38 -30.27,242.94 -31.332,251.59 -30.125,245.14 L 920,7110"
         style="fill:#00ff00;fill-opacity:1;fill-rule:nonzero;stroke:none"
         id="path212"
         inkscape:connector-curvature="0" /><path
         d="m 920,7110 v 0 l 11.207,-253.63 15.07,-245.14 15.672,-251.59 15.145,-242.94 15.148,-243.38 13.578,-245.77 15.07,-243.57 15.15,-243.68 15.59,-250.65 15,-242.46 15,-242.66 15.52,-248.19 15.22,-252.63 15.3,-245.41 15.14,-243.85 15.23,-244.91 L 920,3051.73 v 0 0 l 476.44,117.81 -30.44,244.91 -30.27,243.85 -30.57,245.41 -30.43,252.63 -31.02,248.19 -29.98,242.66 -29.98,242.46 -31.17,250.65 -30.28,243.68 -30.13,243.57 -27.14,245.77 -30.28,243.38 -30.27,242.94 -31.332,251.59 -30.125,245.14 z"
         style="fill:none;stroke:#000000;stroke-width:5;stroke-linecap:butt;stroke-linejoin:miter;stroke-miterlimit:10;stroke-dasharray:none;stroke-opacity:1"
         id="path214"
         inkscape:connector-curvature="0" /><path
         d="m 920,7110 v 0 l 23.023,-253.63 30.125,-245.14 31.332,-251.59 30.27,-242.94 30.28,-243.38 27.14,-245.77 30.13,-243.57 30.28,-243.68 31.17,-250.65 29.98,-242.46 29.98,-242.66 31.02,-248.19 30.43,-252.63 30.57,-245.41 30.27,-243.85 30.44,-244.91 L 920,3051.73 v 0 0 l 721.09,117.81 -45.94,244.91 -45.71,243.85 -46.16,245.41 -45.94,252.63 -46.84,248.19 -45.26,242.66 -45.26,242.46 -47.07,250.65 -45.71,243.68 -45.49,243.57 -40.98,245.77 -45.71,243.38 -45.72,242.94 -47.29,251.59 -45.483,245.14 L 920,7110"
         style="fill:#00ffff;fill-opacity:1;fill-rule:nonzero;stroke:none"
         id="path216"
         inkscape:connector-curvature="0" /><path
         d="m 920,7110 v 0 l 23.023,-253.63 30.125,-245.14 31.332,-251.59 30.27,-242.94 30.28,-243.38 27.14,-245.77 30.13,-243.57 30.28,-243.68 31.17,-250.65 29.98,-242.46 29.98,-242.66 31.02,-248.19 30.43,-252.63 30.57,-245.41 30.27,-243.85 30.44,-244.91 L 920,3051.73 v 0 0 l 721.09,117.81 -45.94,244.91 -45.71,243.85 -46.16,245.41 -45.94,252.63 -46.84,248.19 -45.26,242.66 -45.26,242.46 -47.07,250.65 -45.71,243.68 -45.49,243.57 -40.98,245.77 -45.71,243.38 -45.72,242.94 -47.29,251.59 -45.483,245.14 z"
         style="fill:none;stroke:#000000;stroke-width:5;stroke-linecap:butt;stroke-linejoin:miter;stroke-miterlimit:10;stroke-dasharray:none;stroke-opacity:1"
         id="path218"
         inkscape:connector-curvature="0" /><path
         d="m 920,7110 v 0 l 36.527,-253.63 45.483,-245.14 47.29,-251.59 45.72,-242.94 45.71,-243.38 40.98,-245.77 45.49,-243.57 45.71,-243.68 47.07,-250.65 45.26,-242.46 45.26,-242.66 46.84,-248.19 45.94,-252.63 46.16,-245.41 45.71,-243.85 45.94,-244.91 L 920,3051.73 v 0 0 l 1060.42,117.81 -67.47,244.91 -67.13,243.85 -67.79,245.41 -67.46,252.63 -68.79,248.19 -66.48,242.66 -66.46,242.46 -69.12,250.65 -67.13,243.68 -66.81,243.57 -60.19,245.77 -67.13,243.38 -67.13,242.94 -69.45,251.59 -66.802,245.14 L 920,7110"
         style="fill:#ff0000;fill-opacity:1;fill-rule:nonzero;stroke:none"
         id="path220"
         inkscape:connector-curvature="0" /><path
         d="m 920,7110 v 0 l 36.527,-253.63 45.483,-245.14 47.29,-251.59 45.72,-242.94 45.71,-243.38 40.98,-245.77 45.49,-243.57 45.71,-243.68 47.07,-250.65 45.26,-242.46 45.26,-242.66 46.84,-248.19 45.94,-252.63 46.16,-245.41 45.71,-243.85 45.94,-244.91 L 920,3051.73 v 0 0 l 1060.42,117.81 -67.47,244.91 -67.13,243.85 -67.79,245.41 -67.46,252.63 -68.79,248.19 -66.48,242.66 -66.46,242.46 -69.12,250.65 -67.13,243.68 -66.81,243.57 -60.19,245.77 -67.13,243.38 -67.13,242.94 -69.45,251.59 -66.802,245.14 z"
         style="fill:none;stroke:#000000;stroke-width:5;stroke-linecap:butt;stroke-linejoin:miter;stroke-miterlimit:10;stroke-dasharray:none;stroke-opacity:1"
         id="path222"
         inkscape:connector-curvature="0" /><path
         d="m 920,7110 v 0 l 55.078,-253.63 66.802,-245.14 69.45,-251.59 67.13,-242.94 67.13,-243.38 60.19,-245.77 66.81,-243.57 67.13,-243.68 69.12,-250.65 66.46,-242.46 66.48,-242.66 68.79,-248.19 67.46,-252.63 67.79,-245.41 67.13,-243.85 67.47,-244.91 L 920,3051.73 v 0 0 l 3820,117.81 -230.92,244.91 -229.67,243.85 -231.86,245.41 -230.77,252.63 -235.44,248.19 -227.35,242.66 -227.49,242.46 -236.38,250.65 -229.68,243.68 -228.58,243.57 -205.98,245.77 -229.67,243.38 -229.67,242.94 -237.64,251.59 -228.58,245.14 L 920,7110"
         style="fill:#ff00ff;fill-opacity:1;fill-rule:nonzero;stroke:none"
         id="path224"
         inkscape:connector-curvature="0" /><path
         d="m 920,7110 v 0 l 55.078,-253.63 66.802,-245.14 69.45,-251.59 67.13,-242.94 67.13,-243.38 60.19,-245.77 66.81,-243.57 67.13,-243.68 69.12,-250.65 66.46,-242.46 66.48,-242.66 68.79,-248.19 67.46,-252.63 67.79,-245.41 67.13,-243.85 67.47,-244.91 L 920,3051.73 v 0 0 l 3820,117.81 -230.92,244.91 -229.67,243.85 -231.86,245.41 -230.77,252.63 -235.44,248.19 -227.35,242.66 -227.49,242.46 -236.38,250.65 -229.68,243.68 -228.58,243.57 -205.98,245.77 -229.67,243.38 -229.67,242.94 -237.64,251.59 -228.58,245.14 z"
         style="fill:none;stroke:#000000;stroke-width:5;stroke-linecap:butt;stroke-linejoin:miter;stroke-miterlimit:10;stroke-dasharray:none;stroke-opacity:1"
         id="path226"
         inkscape:connector-curvature="0" /></g></g></svg>