<?xml version="1.0" encoding="UTF-8" standalone="no"?>
<!-- Created with Inkscape (http://www.inkscape.org/) -->

<svg
   xmlns:dc="http://purl.org/dc/elements/1.1/"
   xmlns:cc="http://creativecommons.org/ns#"
   xmlns:rdf="http://www.w3.org/1999/02/22-rdf-syntax-ns#"
   xmlns:svg="http://www.w3.org/2000/svg"
   xmlns="http://www.w3.org/2000/svg"
   xmlns:sodipodi="http://sodipodi.sourceforge.net/DTD/sodipodi-0.dtd"
   xmlns:inkscape="http://www.inkscape.org/namespaces/inkscape"
   version="1.1"
   id="svg2"
   xml:space="preserve"
   width="864.66663"
   height="576.66663"
   viewBox="0 0 864.66663 576.66663"
   sodipodi:docname="winner.svg"
   inkscape:version="0.92.1 r"><metadata
     id="metadata8"><rdf:RDF><cc:Work
         rdf:about=""><dc:format>image/svg+xml</dc:format><dc:type
           rdf:resource="http://purl.org/dc/dcmitype/StillImage" /><dc:title></dc:title></cc:Work></rdf:RDF></metadata><defs
     id="defs6" /><sodipodi:namedview
     pagecolor="#ffffff"
     bordercolor="#666666"
     borderopacity="1"
     objecttolerance="10"
     gridtolerance="10"
     guidetolerance="10"
     inkscape:pageopacity="0"
     inkscape:pageshadow="2"
     inkscape:window-width="640"
     inkscape:window-height="480"
     id="namedview4"
     showgrid="false"
     fit-margin-top="0"
     fit-margin-left="0"
     fit-margin-right="0"
     fit-margin-bottom="0"
     inkscape:zoom="0.28921569"
     inkscape:cx="480.33331"
     inkscape:cy="312.33334"
     inkscape:window-x="0"
     inkscape:window-y="0"
     inkscape:window-maximized="0"
     inkscape:current-layer="g10" /><g
     id="g10"
     inkscape:groupmode="layer"
     inkscape:label="ink_ext_XXXXXX"
     transform="matrix(0,-1.3333333,-1.3333333,0,1008.3333,672.33332)"><g
       id="g12"
       transform="scale(0.1)"><path
         d="M 720,1080 H 5040 V 7560 H 720 Z"
         style="fill:none;stroke:#000000;stroke-width:5;stroke-linecap:butt;stroke-linejoin:miter;stroke-miterlimit:10;stroke-dasharray:none;stroke-opacity:1"
         id="path14"
         inkscape:connector-curvature="0" /><path
         d="m 4790,1130 h 200 v 6380 h -200 z"
         style="fill:none;stroke:#000000;stroke-width:5;stroke-linecap:butt;stroke-linejoin:miter;stroke-miterlimit:10;stroke-dasharray:none;stroke-opacity:1"
         id="path16"
         inkscape:connector-curvature="0" /><g
         id="g18"
         transform="scale(10)"><text
           transform="matrix(0,-1,-1,0,485,745)"
           style="font-variant:normal;font-weight:normal;font-size:12px;font-family:Helvetica;-inkscape-font-specification:Helvetica;writing-mode:lr-tb;fill:#000000;fill-opacity:1;fill-rule:nonzero;stroke:none"
           id="text22"><tspan
             x="0 6.6719999 10.008 13.344 20.016001 30.011999 36.683998 40.02 46.692001 50.028 56.700001 63.372002 66.708 73.379997 80.052002 83.388 90.059998 96.732002 100.068 107.076 115.74 123.072 131.076 134.412 138.408 145.08 241.62888 248.30087 254.97289 261.64487 264.98087 271.65289 278.32489 284.99689 288.33289 295.00488 301.00488 304.34088 311.01288 317.01288 320.34888 326.34888 329.68488 335.68488 342.35687 348.35687 355.02887 361.70087 368.37289 500.59009 510.58609 517.25806 523.93005 527.26605 535.27008 541.94208 545.93811 549.27411 555.94611 562.6181 565.9541 572.6261 579.2981 582.63409 589.30609 595.97809 599.31409 605.98608 612.65808 619.33008"
             y="0"
             sodipodi:role="line"
             id="tspan20">attempt4 10 90 30 +RTS -hc327,589 bytes x secondsMon Apr 24 11:31 2017</tspan></text>
</g><path
         d="M 920,7110 V 3000.71"
         style="fill:none;stroke:#000000;stroke-width:5;stroke-linecap:butt;stroke-linejoin:miter;stroke-miterlimit:10;stroke-dasharray:none;stroke-opacity:1"
         id="path24"
         inkscape:connector-curvature="0" /><g
         id="g26"
         transform="scale(10)"><text
           transform="matrix(0,-1,-1,0,77,337.31)"
           style="font-variant:normal;font-weight:normal;font-size:10px;font-family:Helvetica;-inkscape-font-specification:Helvetica;writing-mode:lr-tb;fill:#000000;fill-opacity:1;fill-rule:nonzero;stroke:none"
           id="text30"><tspan
             x="0 5 10.56 15.56 21.120001 26.68 32.240002"
             y="0"
             sodipodi:role="line"
             id="tspan28">seconds</tspan></text>
</g><path
         d="M 920,7110 H 880"
         style="fill:none;stroke:#000000;stroke-width:5;stroke-linecap:butt;stroke-linejoin:miter;stroke-miterlimit:10;stroke-dasharray:none;stroke-opacity:1"
         id="path32"
         inkscape:connector-curvature="0" /><g
         id="g34"
         transform="scale(10)"><text
           transform="matrix(0,-1,-1,0,77,717.95)"
           style="font-variant:normal;font-weight:normal;font-size:10px;font-family:Helvetica;-inkscape-font-specification:Helvetica;writing-mode:lr-tb;fill:#000000;fill-opacity:1;fill-rule:nonzero;stroke:none"
           id="text38"><tspan
             x="0 5.5599999 8.3400002"
             y="0"
             sodipodi:role="line"
             id="tspan36">0.0</tspan></text>
</g><path
         d="M 920,6527.38 H 880"
         style="fill:none;stroke:#000000;stroke-width:5;stroke-linecap:butt;stroke-linejoin:miter;stroke-miterlimit:10;stroke-dasharray:none;stroke-opacity:1"
         id="path40"
         inkscape:connector-curvature="0" /><g
         id="g42"
         transform="scale(10)"><text
           transform="matrix(0,-1,-1,0,77,659.688)"
           style="font-variant:normal;font-weight:normal;font-size:10px;font-family:Helvetica;-inkscape-font-specification:Helvetica;writing-mode:lr-tb;fill:#000000;fill-opacity:1;fill-rule:nonzero;stroke:none"
           id="text46"><tspan
             x="0 5.5599999 8.3400002"
             y="0"
             sodipodi:role="line"
             id="tspan44">0.5</tspan></text>
</g><path
         d="M 920,5944.77 H 880"
         style="fill:none;stroke:#000000;stroke-width:5;stroke-linecap:butt;stroke-linejoin:miter;stroke-miterlimit:10;stroke-dasharray:none;stroke-opacity:1"
         id="path48"
         inkscape:connector-curvature="0" /><g
         id="g50"
         transform="scale(10)"><text
           transform="matrix(0,-1,-1,0,77,601.426)"
           style="font-variant:normal;font-weight:normal;font-size:10px;font-family:Helvetica;-inkscape-font-specification:Helvetica;writing-mode:lr-tb;fill:#000000;fill-opacity:1;fill-rule:nonzero;stroke:none"
           id="text54"><tspan
             x="0 5.5599999 8.3400002"
             y="0"
             sodipodi:role="line"
             id="tspan52">1.0</tspan></text>
</g><path
         d="M 920,5362.15 H 880"
         style="fill:none;stroke:#000000;stroke-width:5;stroke-linecap:butt;stroke-linejoin:miter;stroke-miterlimit:10;stroke-dasharray:none;stroke-opacity:1"
         id="path56"
         inkscape:connector-curvature="0" /><g
         id="g58"
         transform="scale(10)"><text
           transform="matrix(0,-1,-1,0,77,543.164)"
           style="font-variant:normal;font-weight:normal;font-size:10px;font-family:Helvetica;-inkscape-font-specification:Helvetica;writing-mode:lr-tb;fill:#000000;fill-opacity:1;fill-rule:nonzero;stroke:none"
           id="text62"><tspan
             x="0 5.5599999 8.3400002"
             y="0"
             sodipodi:role="line"
             id="tspan60">1.5</tspan></text>
</g><path
         d="M 920,4779.53 H 880"
         style="fill:none;stroke:#000000;stroke-width:5;stroke-linecap:butt;stroke-linejoin:miter;stroke-miterlimit:10;stroke-dasharray:none;stroke-opacity:1"
         id="path64"
         inkscape:connector-curvature="0" /><g
         id="g66"
         transform="scale(10)"><text
           transform="matrix(0,-1,-1,0,77,484.903)"
           style="font-variant:normal;font-weight:normal;font-size:10px;font-family:Helvetica;-inkscape-font-specification:Helvetica;writing-mode:lr-tb;fill:#000000;fill-opacity:1;fill-rule:nonzero;stroke:none"
           id="text70"><tspan
             x="0 5.5599999 8.3400002"
             y="0"
             sodipodi:role="line"
             id="tspan68">2.0</tspan></text>
</g><path
         d="M 920,4196.91 H 880"
         style="fill:none;stroke:#000000;stroke-width:5;stroke-linecap:butt;stroke-linejoin:miter;stroke-miterlimit:10;stroke-dasharray:none;stroke-opacity:1"
         id="path72"
         inkscape:connector-curvature="0" /><g
         id="g74"
         transform="scale(10)"><text
           transform="matrix(0,-1,-1,0,77,426.641)"
           style="font-variant:normal;font-weight:normal;font-size:10px;font-family:Helvetica;-inkscape-font-specification:Helvetica;writing-mode:lr-tb;fill:#000000;fill-opacity:1;fill-rule:nonzero;stroke:none"
           id="text78"><tspan
             x="0 5.5599999 8.3400002"
             y="0"
             sodipodi:role="line"
             id="tspan76">2.5</tspan></text>
</g><path
         d="M 920,3614.3 H 880"
         style="fill:none;stroke:#000000;stroke-width:5;stroke-linecap:butt;stroke-linejoin:miter;stroke-miterlimit:10;stroke-dasharray:none;stroke-opacity:1"
         id="path80"
         inkscape:connector-curvature="0" /><g
         id="g82"
         transform="scale(10)"><text
           transform="matrix(0,-1,-1,0,77,368.379)"
           style="font-variant:normal;font-weight:normal;font-size:10px;font-family:Helvetica;-inkscape-font-specification:Helvetica;writing-mode:lr-tb;fill:#000000;fill-opacity:1;fill-rule:nonzero;stroke:none"
           id="text86"><tspan
             x="0 5.5599999 8.3400002"
             y="0"
             sodipodi:role="line"
             id="tspan84">3.0</tspan></text>
</g><path
         d="M 920,7110 H 4740"
         style="fill:none;stroke:#000000;stroke-width:5;stroke-linecap:butt;stroke-linejoin:miter;stroke-miterlimit:10;stroke-dasharray:none;stroke-opacity:1"
         id="path88"
         inkscape:connector-curvature="0" /><g
         id="g90"
         transform="scale(10)"><text
           transform="matrix(1,0,0,-1,450.101,716)"
           style="font-variant:normal;font-weight:normal;font-size:10px;font-family:Helvetica;-inkscape-font-specification:Helvetica;writing-mode:lr-tb;fill:#000000;fill-opacity:1;fill-rule:nonzero;stroke:none"
           id="text94"><tspan
             x="0 5.5599999 10.56 13.34 18.9"
             y="0"
             sodipodi:role="line"
             id="tspan92">bytes</tspan></text>
</g><path
         d="m 920,7110 v 40"
         style="fill:none;stroke:#000000;stroke-width:5;stroke-linecap:butt;stroke-linejoin:miter;stroke-miterlimit:10;stroke-dasharray:none;stroke-opacity:1"
         id="path96"
         inkscape:connector-curvature="0" /><g
         id="g98"
         transform="scale(10)"><text
           transform="matrix(0,-1,-1,0,92,726.56)"
           style="font-variant:normal;font-weight:normal;font-size:10px;font-family:Helvetica;-inkscape-font-specification:Helvetica;writing-mode:lr-tb;fill:#000000;fill-opacity:1;fill-rule:nonzero;stroke:none"
           id="text102"><tspan
             x="0 5.5599999"
             y="0"
             sodipodi:role="line"
             id="tspan100">0k</tspan></text>
</g><path
         d="m 1649.12,7110 v 40"
         style="fill:none;stroke:#000000;stroke-width:5;stroke-linecap:butt;stroke-linejoin:miter;stroke-miterlimit:10;stroke-dasharray:none;stroke-opacity:1"
         id="path104"
         inkscape:connector-curvature="0" /><g
         id="g106"
         transform="scale(10)"><text
           transform="matrix(0,-1,-1,0,164.912,732.12)"
           style="font-variant:normal;font-weight:normal;font-size:10px;font-family:Helvetica;-inkscape-font-specification:Helvetica;writing-mode:lr-tb;fill:#000000;fill-opacity:1;fill-rule:nonzero;stroke:none"
           id="text110"><tspan
             x="0 5.5599999 11.12"
             y="0"
             sodipodi:role="line"
             id="tspan108">20k</tspan></text>
</g><path
         d="m 2378.24,7110 v 40"
         style="fill:none;stroke:#000000;stroke-width:5;stroke-linecap:butt;stroke-linejoin:miter;stroke-miterlimit:10;stroke-dasharray:none;stroke-opacity:1"
         id="path112"
         inkscape:connector-curvature="0" /><g
         id="g114"
         transform="scale(10)"><text
           transform="matrix(0,-1,-1,0,237.824,732.12)"
           style="font-variant:normal;font-weight:normal;font-size:10px;font-family:Helvetica;-inkscape-font-specification:Helvetica;writing-mode:lr-tb;fill:#000000;fill-opacity:1;fill-rule:nonzero;stroke:none"
           id="text118"><tspan
             x="0 5.5599999 11.12"
             y="0"
             sodipodi:role="line"
             id="tspan116">40k</tspan></text>
</g><path
         d="m 3107.36,7110 v 40"
         style="fill:none;stroke:#000000;stroke-width:5;stroke-linecap:butt;stroke-linejoin:miter;stroke-miterlimit:10;stroke-dasharray:none;stroke-opacity:1"
         id="path120"
         inkscape:connector-curvature="0" /><g
         id="g122"
         transform="scale(10)"><text
           transform="matrix(0,-1,-1,0,310.736,732.12)"
           style="font-variant:normal;font-weight:normal;font-size:10px;font-family:Helvetica;-inkscape-font-specification:Helvetica;writing-mode:lr-tb;fill:#000000;fill-opacity:1;fill-rule:nonzero;stroke:none"
           id="text126"><tspan
             x="0 5.5599999 11.12"
             y="0"
             sodipodi:role="line"
             id="tspan124">60k</tspan></text>
</g><path
         d="m 3836.48,7110 v 40"
         style="fill:none;stroke:#000000;stroke-width:5;stroke-linecap:butt;stroke-linejoin:miter;stroke-miterlimit:10;stroke-dasharray:none;stroke-opacity:1"
         id="path128"
         inkscape:connector-curvature="0" /><g
         id="g130"
         transform="scale(10)"><text
           transform="matrix(0,-1,-1,0,383.648,732.12)"
           style="font-variant:normal;font-weight:normal;font-size:10px;font-family:Helvetica;-inkscape-font-specification:Helvetica;writing-mode:lr-tb;fill:#000000;fill-opacity:1;fill-rule:nonzero;stroke:none"
           id="text134"><tspan
             x="0 5.5599999 11.12"
             y="0"
             sodipodi:role="line"
             id="tspan132">80k</tspan></text>
</g><path
         d="m 1031.91,2810.71 h 140 v 140 h -140 z"
         style="fill:#000000;fill-opacity:1;fill-rule:nonzero;stroke:none"
         id="path136"
         inkscape:connector-curvature="0" /><path
         d="m 1031.91,2810.71 h 140 v 140 h -140 z"
         style="fill:none;stroke:#000000;stroke-width:5;stroke-linecap:butt;stroke-linejoin:miter;stroke-miterlimit:10;stroke-dasharray:none;stroke-opacity:1"
         id="path138"
         inkscape:connector-curvature="0" /><g
         id="g140"
         transform="scale(10)"><text
           transform="matrix(0,-1,-1,0,105.191,276.071)"
           style="font-variant:normal;font-weight:normal;font-size:10px;font-family:Helvetica;-inkscape-font-specification:Helvetica;writing-mode:lr-tb;fill:#000000;fill-opacity:1;fill-rule:nonzero;stroke:none"
           id="text144"><tspan
             x="0 7.7800002 13.89 21.110001 27.780001"
             y="0"
             sodipodi:role="line"
             id="tspan142">OTHER</tspan></text>
</g><path
         d="m 1213.81,2810.71 h 140 v 140 h -140 z"
         style="fill:#0000ff;fill-opacity:1;fill-rule:nonzero;stroke:none"
         id="path146"
         inkscape:connector-curvature="0" /><path
         d="m 1213.81,2810.71 h 140 v 140 h -140 z"
         style="fill:none;stroke:#000000;stroke-width:5;stroke-linecap:butt;stroke-linejoin:miter;stroke-miterlimit:10;stroke-dasharray:none;stroke-opacity:1"
         id="path148"
         inkscape:connector-curvature="0" /><g
         id="g150"
         transform="scale(10)"><text
           transform="matrix(0,-1,-1,0,123.381,276.071)"
           style="font-variant:normal;font-weight:normal;font-size:10px;font-family:Helvetica;-inkscape-font-specification:Helvetica;writing-mode:lr-tb;fill:#000000;fill-opacity:1;fill-rule:nonzero;stroke:none"
           id="text154"><tspan
             x="0 3.3299999 8.8900003 14.45 20.01 25.57 28.9 31.68 40.009998 45.57 51.130001 53.91 58.91 64.470001 67.25 69.470001 74.470001 77.25 82.25 87.809998 90.589996 96.150002 98.370003 100.59 106.15 111.15 116.71 119.49 122.27 125.05"
             y="0"
             sodipodi:role="line"
             id="tspan152">(9109)fmap/satisfy_/alias_/...</tspan></text>
</g><path
         d="m 1395.71,2810.71 h 140 v 140 h -140 z"
         style="fill:#00ff00;fill-opacity:1;fill-rule:nonzero;stroke:none"
         id="path156"
         inkscape:connector-curvature="0" /><path
         d="m 1395.71,2810.71 h 140 v 140 h -140 z"
         style="fill:none;stroke:#000000;stroke-width:5;stroke-linecap:butt;stroke-linejoin:miter;stroke-miterlimit:10;stroke-dasharray:none;stroke-opacity:1"
         id="path158"
         inkscape:connector-curvature="0" /><g
         id="g160"
         transform="scale(10)"><text
           transform="matrix(0,-1,-1,0,141.571,276.071)"
           style="font-variant:normal;font-weight:normal;font-size:10px;font-family:Helvetica;-inkscape-font-specification:Helvetica;writing-mode:lr-tb;fill:#000000;fill-opacity:1;fill-rule:nonzero;stroke:none"
           id="text164"><tspan
             x="0 3.3299999 8.8900003 14.45 20.01 25.57 28.9 36.68 43.900002 51.119999 53.900002 56.68 64.459999 67.239998 74.459999 80.019997 85.580002 91.139999 93.360001 98.919998 101.7 107.81 115.03 117.81 125.03 131.7"
             y="0"
             sodipodi:role="line"
             id="tspan162">(4402)GHC.IO.Handle.FD.CAF</tspan></text>
</g><path
         d="m 1577.62,2810.71 h 140 v 140 h -140 z"
         style="fill:#00ffff;fill-opacity:1;fill-rule:nonzero;stroke:none"
         id="path166"
         inkscape:connector-curvature="0" /><path
         d="m 1577.62,2810.71 h 140 v 140 h -140 z"
         style="fill:none;stroke:#000000;stroke-width:5;stroke-linecap:butt;stroke-linejoin:miter;stroke-miterlimit:10;stroke-dasharray:none;stroke-opacity:1"
         id="path168"
         inkscape:connector-curvature="0" /><g
         id="g170"
         transform="scale(10)"><text
           transform="matrix(0,-1,-1,0,159.762,276.071)"
           style="font-variant:normal;font-weight:normal;font-size:10px;font-family:Helvetica;-inkscape-font-specification:Helvetica;writing-mode:lr-tb;fill:#000000;fill-opacity:1;fill-rule:nonzero;stroke:none"
           id="text174"><tspan
             x="0 3.3299999 8.8900003 14.45 20.01 25.57 28.9 33.900002 39.459999 42.240002 44.459999 49.459999 52.240002 57.240002 60.02 65.019997 70.580002 73.360001 75.580002 80.580002 83.360001 88.360001 93.919998 96.699997 101.7 107.26 110.04 112.26 115.04 117.82"
             y="0"
             sodipodi:role="line"
             id="tspan172">(9455)satisfy/satisfy_/sati...</tspan></text>
</g><path
         d="m 1759.52,2810.71 h 140 v 140 h -140 z"
         style="fill:#ff0000;fill-opacity:1;fill-rule:nonzero;stroke:none"
         id="path176"
         inkscape:connector-curvature="0" /><path
         d="m 1759.52,2810.71 h 140 v 140 h -140 z"
         style="fill:none;stroke:#000000;stroke-width:5;stroke-linecap:butt;stroke-linejoin:miter;stroke-miterlimit:10;stroke-dasharray:none;stroke-opacity:1"
         id="path178"
         inkscape:connector-curvature="0" /><g
         id="g180"
         transform="scale(10)"><text
           transform="matrix(0,-1,-1,0,177.952,276.071)"
           style="font-variant:normal;font-weight:normal;font-size:10px;font-family:Helvetica;-inkscape-font-specification:Helvetica;writing-mode:lr-tb;fill:#000000;fill-opacity:1;fill-rule:nonzero;stroke:none"
           id="text184"><tspan
             x="0 3.3299999 8.8900003 14.45 20.01 25.57 28.9 34.740002 40.580002 46.419998 49.200001 54.200001 59.759998 65.32 70.879997 76.440002 82 87 92.559998 98.120003 100.9 106.46 112.02 117.58 123.14 128.7 131.48 137.03999 139.82001 142.60001"
             y="0"
             sodipodi:role="line"
             id="tspan182">(9125)&gt;&gt;=/sequence_/node_/d...</tspan></text>
</g><path
         d="m 1941.43,2810.71 h 140 v 140 h -140 z"
         style="fill:#ff00ff;fill-opacity:1;fill-rule:nonzero;stroke:none"
         id="path186"
         inkscape:connector-curvature="0" /><path
         d="m 1941.43,2810.71 h 140 v 140 h -140 z"
         style="fill:none;stroke:#000000;stroke-width:5;stroke-linecap:butt;stroke-linejoin:miter;stroke-miterlimit:10;stroke-dasharray:none;stroke-opacity:1"
         id="path188"
         inkscape:connector-curvature="0" /><g
         id="g190"
         transform="scale(10)"><text
           transform="matrix(0,-1,-1,0,196.143,276.071)"
           style="font-variant:normal;font-weight:normal;font-size:10px;font-family:Helvetica;-inkscape-font-specification:Helvetica;writing-mode:lr-tb;fill:#000000;fill-opacity:1;fill-rule:nonzero;stroke:none"
           id="text194"><tspan
             x="0 3.3299999 8.8900003 14.45 20.01 25.57 28.9 33.900002 39.459999 42.240002 44.459999 49.459999 52.240002 57.240002 62.799999 65.580002 71.139999 73.360001 75.580002 81.139999 86.139999 91.699997 94.480003 100.04 105.6 111.16 116.72 122.28 125.06 127.84"
             y="0"
             sodipodi:role="line"
             id="tspan192">(9108)satisfy_/alias_/node_...</tspan></text>
</g><path
         d="m 2123.33,2810.71 h 140 v 140 h -140 z"
         style="fill:#ffff00;fill-opacity:1;fill-rule:nonzero;stroke:none"
         id="path196"
         inkscape:connector-curvature="0" /><path
         d="m 2123.33,2810.71 h 140 v 140 h -140 z"
         style="fill:none;stroke:#000000;stroke-width:5;stroke-linecap:butt;stroke-linejoin:miter;stroke-miterlimit:10;stroke-dasharray:none;stroke-opacity:1"
         id="path198"
         inkscape:connector-curvature="0" /><g
         id="g200"
         transform="scale(10)"><text
           transform="matrix(0,-1,-1,0,214.333,276.071)"
           style="font-variant:normal;font-weight:normal;font-size:10px;font-family:Helvetica;-inkscape-font-specification:Helvetica;writing-mode:lr-tb;fill:#000000;fill-opacity:1;fill-rule:nonzero;stroke:none"
           id="text204"><tspan
             x="0 3.3299999 8.8900003 14.45 20.01 25.57 28.9 34.459999 40.02 45.580002 51.139999 56.700001 59.48 65.040001 70.599998 75.599998 81.160004 89.489998 95.050003 100.61 103.39 108.95 111.73 116.73 119.51 122.84 128.39999 133.96001 136.74001 139.52"
             y="0"
             sodipodi:role="line"
             id="tspan202">(9086)node_/document_/strea...</tspan></text>
</g><path
         d="m 2305.24,2810.71 h 140 v 140 h -140 z"
         style="fill:#ffffff;fill-opacity:1;fill-rule:nonzero;stroke:none"
         id="path206"
         inkscape:connector-curvature="0" /><path
         d="m 2305.24,2810.71 h 140 v 140 h -140 z"
         style="fill:none;stroke:#000000;stroke-width:5;stroke-linecap:butt;stroke-linejoin:miter;stroke-miterlimit:10;stroke-dasharray:none;stroke-opacity:1"
         id="path208"
         inkscape:connector-curvature="0" /><g
         id="g210"
         transform="scale(10)"><text
           transform="matrix(0,-1,-1,0,232.524,276.071)"
           style="font-variant:normal;font-weight:normal;font-size:10px;font-family:Helvetica;-inkscape-font-specification:Helvetica;writing-mode:lr-tb;fill:#000000;fill-opacity:1;fill-rule:nonzero;stroke:none"
           id="text214"><tspan
             x="0 3.3299999 8.8900003 14.45 20.01 25.57 28.9 33.900002 39.459999 42.240002 44.459999 49.459999 52.240002 57.240002 60.02 65.019997 70.580002 73.360001 75.580002 80.580002 83.360001 88.360001 93.919998 96.699997 101.7 107.26 112.82 118.38 121.16 123.94"
             y="0"
             sodipodi:role="line"
             id="tspan212">(9130)satisfy/satisfy_/sequ...</tspan></text>
</g><path
         d="m 2487.14,2810.71 h 140 v 140 h -140 z"
         style="fill:#000080;fill-opacity:1;fill-rule:nonzero;stroke:none"
         id="path216"
         inkscape:connector-curvature="0" /><path
         d="m 2487.14,2810.71 h 140 v 140 h -140 z"
         style="fill:none;stroke:#000000;stroke-width:5;stroke-linecap:butt;stroke-linejoin:miter;stroke-miterlimit:10;stroke-dasharray:none;stroke-opacity:1"
         id="path218"
         inkscape:connector-curvature="0" /><g
         id="g220"
         transform="scale(10)"><text
           transform="matrix(0,-1,-1,0,250.714,276.071)"
           style="font-variant:normal;font-weight:normal;font-size:10px;font-family:Helvetica;-inkscape-font-specification:Helvetica;writing-mode:lr-tb;fill:#000000;fill-opacity:1;fill-rule:nonzero;stroke:none"
           id="text224"><tspan
             x="0 3.3299999 8.8900003 14.45 20.01 25.57 28.9 33.900002 39.459999 42.240002 44.459999 49.459999 52.240002 57.240002 60.02 65.019997 70.580002 73.360001 75.580002 80.580002 83.360001 88.360001 93.919998 96.699997 101.7 106.7 112.26 114.48 117.26 120.04"
             y="0"
             sodipodi:role="line"
             id="tspan222">(9118)satisfy/satisfy_/scal...</tspan></text>
</g><path
         d="m 2669.05,2810.71 h 140 v 140 h -140 z"
         style="fill:#008000;fill-opacity:1;fill-rule:nonzero;stroke:none"
         id="path226"
         inkscape:connector-curvature="0" /><path
         d="m 2669.05,2810.71 h 140 v 140 h -140 z"
         style="fill:none;stroke:#000000;stroke-width:5;stroke-linecap:butt;stroke-linejoin:miter;stroke-miterlimit:10;stroke-dasharray:none;stroke-opacity:1"
         id="path228"
         inkscape:connector-curvature="0" /><g
         id="g230"
         transform="scale(10)"><text
           transform="matrix(0,-1,-1,0,268.905,276.071)"
           style="font-variant:normal;font-weight:normal;font-size:10px;font-family:Helvetica;-inkscape-font-specification:Helvetica;writing-mode:lr-tb;fill:#000000;fill-opacity:1;fill-rule:nonzero;stroke:none"
           id="text234"><tspan
             x="0 3.3299999 8.8900003 14.45 20.01 25.57 28.9 31.68 40.009998 45.57 51.130001 53.91 56.689999 59.470001 62.25 70.580002 76.139999 81.699997 84.480003 89.480003 95.040001 97.82 100.04 105.04 107.82 112.82 115.6 120.6 123.38 126.16"
             y="0"
             sodipodi:role="line"
             id="tspan232">(9457)fmap.\/fmap/satisfy/s...</tspan></text>
</g><path
         d="m 2850.95,2810.71 h 140 v 140 h -140 z"
         style="fill:#0080ff;fill-opacity:1;fill-rule:nonzero;stroke:none"
         id="path236"
         inkscape:connector-curvature="0" /><path
         d="m 2850.95,2810.71 h 140 v 140 h -140 z"
         style="fill:none;stroke:#000000;stroke-width:5;stroke-linecap:butt;stroke-linejoin:miter;stroke-miterlimit:10;stroke-dasharray:none;stroke-opacity:1"
         id="path238"
         inkscape:connector-curvature="0" /><g
         id="g240"
         transform="scale(10)"><text
           transform="matrix(0,-1,-1,0,287.095,276.071)"
           style="font-variant:normal;font-weight:normal;font-size:10px;font-family:Helvetica;-inkscape-font-specification:Helvetica;writing-mode:lr-tb;fill:#000000;fill-opacity:1;fill-rule:nonzero;stroke:none"
           id="text244"><tspan
             x="0 3.3299999 8.8900003 14.45 20.01 25.57 28.9 31.68 40.009998 45.57 51.130001 53.91 56.689999 59.470001 62.25 70.580002 76.139999 81.699997 84.480003 87.260002 95.589996 101.15 106.71 109.49 114.49 120.05 122.83 125.05 127.83 130.61"
             y="0"
             sodipodi:role="line"
             id="tspan242">(9460)fmap.\/fmap/fmap/sati...</tspan></text>
</g><path
         d="m 3032.86,2810.71 h 140 v 140 h -140 z"
         style="fill:#00ff80;fill-opacity:1;fill-rule:nonzero;stroke:none"
         id="path246"
         inkscape:connector-curvature="0" /><path
         d="m 3032.86,2810.71 h 140 v 140 h -140 z"
         style="fill:none;stroke:#000000;stroke-width:5;stroke-linecap:butt;stroke-linejoin:miter;stroke-miterlimit:10;stroke-dasharray:none;stroke-opacity:1"
         id="path248"
         inkscape:connector-curvature="0" /><g
         id="g250"
         transform="scale(10)"><text
           transform="matrix(0,-1,-1,0,305.286,276.071)"
           style="font-variant:normal;font-weight:normal;font-size:10px;font-family:Helvetica;-inkscape-font-specification:Helvetica;writing-mode:lr-tb;fill:#000000;fill-opacity:1;fill-rule:nonzero;stroke:none"
           id="text254"><tspan
             x="0 3.3299999 8.8900003 14.45 20.01 25.57 28.9 34.740002 40.580002 46.419998 49.200001 55.040001 58.93 64.769997 67.550003 72.550003 77.550003 79.769997 85.330002 93.660004 99.220001 104.78 109.78 112.56 117.56 123.12 128.67999 134.24001 137.02 139.8"
             y="0"
             sodipodi:role="line"
             id="tspan252">(9349)&gt;&gt;=/&lt;*&gt;/skipMany/sequ...</tspan></text>
</g><path
         d="m 3214.76,2810.71 h 140 v 140 h -140 z"
         style="fill:#800000;fill-opacity:1;fill-rule:nonzero;stroke:none"
         id="path256"
         inkscape:connector-curvature="0" /><path
         d="m 3214.76,2810.71 h 140 v 140 h -140 z"
         style="fill:none;stroke:#000000;stroke-width:5;stroke-linecap:butt;stroke-linejoin:miter;stroke-miterlimit:10;stroke-dasharray:none;stroke-opacity:1"
         id="path258"
         inkscape:connector-curvature="0" /><g
         id="g260"
         transform="scale(10)"><text
           transform="matrix(0,-1,-1,0,323.476,276.071)"
           style="font-variant:normal;font-weight:normal;font-size:10px;font-family:Helvetica;-inkscape-font-specification:Helvetica;writing-mode:lr-tb;fill:#000000;fill-opacity:1;fill-rule:nonzero;stroke:none"
           id="text264"><tspan
             x="0 3.3299999 8.8900003 14.45 20.01 25.57 28.9 34.740002 40.580002 46.419998 49.200001 51.98 54.759998 60.599998 66.440002 72.279999 75.059998 80.900002 86.739998 92.580002 95.360001 101.2 105.09 110.93 113.71 118.71 123.71 125.93 128.71001 131.49001"
             y="0"
             sodipodi:role="line"
             id="tspan262">(9374)&gt;&gt;=.\/&gt;&gt;=/&gt;&gt;=/&lt;*&gt;/ski...</tspan></text>
</g><path
         d="m 3396.67,2810.71 h 140 v 140 h -140 z"
         style="fill:#8000ff;fill-opacity:1;fill-rule:nonzero;stroke:none"
         id="path266"
         inkscape:connector-curvature="0" /><path
         d="m 3396.67,2810.71 h 140 v 140 h -140 z"
         style="fill:none;stroke:#000000;stroke-width:5;stroke-linecap:butt;stroke-linejoin:miter;stroke-miterlimit:10;stroke-dasharray:none;stroke-opacity:1"
         id="path268"
         inkscape:connector-curvature="0" /><g
         id="g270"
         transform="scale(10)"><text
           transform="matrix(0,-1,-1,0,341.667,276.071)"
           style="font-variant:normal;font-weight:normal;font-size:10px;font-family:Helvetica;-inkscape-font-specification:Helvetica;writing-mode:lr-tb;fill:#000000;fill-opacity:1;fill-rule:nonzero;stroke:none"
           id="text274"><tspan
             x="0 3.3299999 8.8900003 14.45 20.01 25.57 28.9 34.740002 38.630001 44.470001 47.25 52.25 57.25 59.470001 65.029999 73.360001 78.919998 84.480003 89.480003 92.260002 97.260002 102.82 108.38 113.94 119.5 125.06 130.06 135.62 138.39999 141.17999"
             y="0"
             sodipodi:role="line"
             id="tspan272">(9348)&lt;*&gt;/skipMany/sequence...</tspan></text>
</g><path
         d="m 3578.57,2810.71 h 140 v 140 h -140 z"
         style="fill:#80e600;fill-opacity:1;fill-rule:nonzero;stroke:none"
         id="path276"
         inkscape:connector-curvature="0" /><path
         d="m 3578.57,2810.71 h 140 v 140 h -140 z"
         style="fill:none;stroke:#000000;stroke-width:5;stroke-linecap:butt;stroke-linejoin:miter;stroke-miterlimit:10;stroke-dasharray:none;stroke-opacity:1"
         id="path278"
         inkscape:connector-curvature="0" /><g
         id="g280"
         transform="scale(10)"><text
           transform="matrix(0,-1,-1,0,359.857,276.071)"
           style="font-variant:normal;font-weight:normal;font-size:10px;font-family:Helvetica;-inkscape-font-specification:Helvetica;writing-mode:lr-tb;fill:#000000;fill-opacity:1;fill-rule:nonzero;stroke:none"
           id="text284"><tspan
             x="0 3.3299999 8.8900003 14.45 20.01 25.57 28.9 37.23 42.790001 48.349998 53.91 56.130001 61.689999 67.25 72.809998 75.589996 81.150002 86.709999 92.269997 97.830002 103.39 106.17 111.73 117.29 122.29 127.85 136.17999 141.74001 144.52 147.3"
             y="0"
             sodipodi:role="line"
             id="tspan282">(9137)mapping_/node_/docume...</tspan></text>
</g><path
         d="m 3760.48,2810.71 h 140 v 140 h -140 z"
         style="fill:#80ffff;fill-opacity:1;fill-rule:nonzero;stroke:none"
         id="path286"
         inkscape:connector-curvature="0" /><path
         d="m 3760.48,2810.71 h 140 v 140 h -140 z"
         style="fill:none;stroke:#000000;stroke-width:5;stroke-linecap:butt;stroke-linejoin:miter;stroke-miterlimit:10;stroke-dasharray:none;stroke-opacity:1"
         id="path288"
         inkscape:connector-curvature="0" /><g
         id="g290"
         transform="scale(10)"><text
           transform="matrix(0,-1,-1,0,378.048,276.071)"
           style="font-variant:normal;font-weight:normal;font-size:10px;font-family:Helvetica;-inkscape-font-specification:Helvetica;writing-mode:lr-tb;fill:#000000;fill-opacity:1;fill-rule:nonzero;stroke:none"
           id="text294"><tspan
             x="0 3.3299999 8.8900003 14.45 20.01 25.57 28.9 33.900002 39.459999 45.02 50.580002 56.139999 61.700001 66.699997 72.260002 77.82 80.599998 86.160004 91.720001 97.279999 102.84 108.4 111.18 116.74 122.3 127.3 132.86 141.19 143.97 146.75"
             y="0"
             sodipodi:role="line"
             id="tspan292">(9123)sequence_/node_/docum...</tspan></text>
</g><path
         d="m 3942.38,2810.71 h 140 v 140 h -140 z"
         style="fill:#ff0080;fill-opacity:1;fill-rule:nonzero;stroke:none"
         id="path296"
         inkscape:connector-curvature="0" /><path
         d="m 3942.38,2810.71 h 140 v 140 h -140 z"
         style="fill:none;stroke:#000000;stroke-width:5;stroke-linecap:butt;stroke-linejoin:miter;stroke-miterlimit:10;stroke-dasharray:none;stroke-opacity:1"
         id="path298"
         inkscape:connector-curvature="0" /><g
         id="g300"
         transform="scale(10)"><text
           transform="matrix(0,-1,-1,0,396.238,276.071)"
           style="font-variant:normal;font-weight:normal;font-size:10px;font-family:Helvetica;-inkscape-font-specification:Helvetica;writing-mode:lr-tb;fill:#000000;fill-opacity:1;fill-rule:nonzero;stroke:none"
           id="text304"><tspan
             x="0 3.3299999 8.8900003 14.45 20.01 25.57 28.9 31.68 40.009998 45.57 51.130001 53.91 56.689999 59.470001 62.25 70.580002 76.139999 81.699997 84.480003 87.260002 95.589996 101.15 106.71 109.49 114.49 119.49 121.71 127.27 130.05 132.83"
             y="0"
             sodipodi:role="line"
             id="tspan302">(9370)fmap.\/fmap/fmap/skip...</tspan></text>
</g><path
         d="m 4124.29,2810.71 h 140 v 140 h -140 z"
         style="fill:#ff8000;fill-opacity:1;fill-rule:nonzero;stroke:none"
         id="path306"
         inkscape:connector-curvature="0" /><path
         d="m 4124.29,2810.71 h 140 v 140 h -140 z"
         style="fill:none;stroke:#000000;stroke-width:5;stroke-linecap:butt;stroke-linejoin:miter;stroke-miterlimit:10;stroke-dasharray:none;stroke-opacity:1"
         id="path308"
         inkscape:connector-curvature="0" /><g
         id="g310"
         transform="scale(10)"><text
           transform="matrix(0,-1,-1,0,414.429,276.071)"
           style="font-variant:normal;font-weight:normal;font-size:10px;font-family:Helvetica;-inkscape-font-specification:Helvetica;writing-mode:lr-tb;fill:#000000;fill-opacity:1;fill-rule:nonzero;stroke:none"
           id="text314"><tspan
             x="0 3.3299999 8.8900003 14.45 20.01 25.57 28.9 34.740002 37.34 43.18 45.959999 54.290001 59.849998 65.410004 70.970001 73.190002 78.75 84.309998 87.089996 92.650002 98.209999 103.77 107.1 112.66 115.44 123.77 129.33 134.89 137.67 140.45"
             y="0"
             sodipodi:role="line"
             id="tspan312">(9210)&lt;|&gt;/mappingInner_/map...</tspan></text>
</g><path
         d="m 4306.19,2810.71 h 140 v 140 h -140 z"
         style="fill:#ff80ff;fill-opacity:1;fill-rule:nonzero;stroke:none"
         id="path316"
         inkscape:connector-curvature="0" /><path
         d="m 4306.19,2810.71 h 140 v 140 h -140 z"
         style="fill:none;stroke:#000000;stroke-width:5;stroke-linecap:butt;stroke-linejoin:miter;stroke-miterlimit:10;stroke-dasharray:none;stroke-opacity:1"
         id="path318"
         inkscape:connector-curvature="0" /><g
         id="g320"
         transform="scale(10)"><text
           transform="matrix(0,-1,-1,0,432.619,276.071)"
           style="font-variant:normal;font-weight:normal;font-size:10px;font-family:Helvetica;-inkscape-font-specification:Helvetica;writing-mode:lr-tb;fill:#000000;fill-opacity:1;fill-rule:nonzero;stroke:none"
           id="text324"><tspan
             x="0 3.3299999 8.8900003 14.45 20.01 25.57 28.9 34.740002 37.34 43.18 45.959999 50.959999 56.52 62.080002 67.639999 73.199997 78.760002 83.760002 89.32 92.099998 97.660004 103.22 108.78 112.11 117.67 120.45 125.45 131.00999 133.78999 136.57001"
             y="0"
             sodipodi:role="line"
             id="tspan322">(9343)&lt;|&gt;/sequenceInner_/se...</tspan></text>
</g><path
         d="m 4488.09,2810.71 h 140 v 140 h -140 z"
         style="fill:#ffff80;fill-opacity:1;fill-rule:nonzero;stroke:none"
         id="path326"
         inkscape:connector-curvature="0" /><path
         d="m 4488.09,2810.71 h 140 v 140 h -140 z"
         style="fill:none;stroke:#000000;stroke-width:5;stroke-linecap:butt;stroke-linejoin:miter;stroke-miterlimit:10;stroke-dasharray:none;stroke-opacity:1"
         id="path328"
         inkscape:connector-curvature="0" /><g
         id="g330"
         transform="scale(10)"><text
           transform="matrix(0,-1,-1,0,450.809,276.071)"
           style="font-variant:normal;font-weight:normal;font-size:10px;font-family:Helvetica;-inkscape-font-specification:Helvetica;writing-mode:lr-tb;fill:#000000;fill-opacity:1;fill-rule:nonzero;stroke:none"
           id="text334"><tspan
             x="0 3.3299999 8.8900003 14.45 20.01 25.57 28.9 35.57 38.349998 45.57 52.790001 59.459999"
             y="0"
             sodipodi:role="line"
             id="tspan332">(4347)PINNED</tspan></text>
</g><path
         d="m 920,7110 v 0 -4109.29 l 806.7,42.84 39.66,114.93 -69.99,115.12 5.83,117.73 47.25,114.69 -6.42,116.66 -87.79,115.88 26.25,116.63 70.29,116.91 -69.99,115.48 29.16,114.72 v 116.12 l -6.13,116.37 6.13,116.5 46.66,114.82 -72.62,116.02 36.17,119.07 49.29,115.71 -61.25,115.15 2.91,116.31 24.8,114.87 -32.96,114.95 -9.92,116.72 61.83,118.27 -69.12,116.38 44.33,119.67 -48.41,114.64 49.87,115.24 29.17,115.8 -10.5,117.14 -23.92,114.95 19.83,116.33 -12.83,117.54 -24.5,115.04 22.75,115.77 L 920,7110"
         style="fill:#000000;fill-opacity:1;fill-rule:nonzero;stroke:none"
         id="path336"
         inkscape:connector-curvature="0" /><path
         d="m 920,7110 v 0 -4109.29 l 806.7,42.84 39.66,114.93 -69.99,115.12 5.83,117.73 47.25,114.69 -6.42,116.66 -87.79,115.88 26.25,116.63 70.29,116.91 -69.99,115.48 29.16,114.72 v 116.12 l -6.13,116.37 6.13,116.5 46.66,114.82 -72.62,116.02 36.17,119.07 49.29,115.71 -61.25,115.15 2.91,116.31 24.8,114.87 -32.96,114.95 -9.92,116.72 61.83,118.27 -69.12,116.38 44.33,119.67 -48.41,114.64 49.87,115.24 29.17,115.8 -10.5,117.14 -23.92,114.95 19.83,116.33 -12.83,117.54 -24.5,115.04 22.75,115.77 z"
         style="fill:none;stroke:#000000;stroke-width:5;stroke-linecap:butt;stroke-linejoin:miter;stroke-miterlimit:10;stroke-dasharray:none;stroke-opacity:1"
         id="path338"
         inkscape:connector-curvature="0" /><path
         d="m 920,7110 v 0 l 812.53,-118.32 -22.75,-115.77 24.5,-115.04 12.83,-117.54 -19.83,-116.33 23.92,-114.95 10.5,-117.14 -29.17,-115.8 -49.87,-115.24 48.41,-114.64 -44.33,-119.67 69.12,-116.38 -61.83,-118.27 9.92,-116.72 32.96,-114.95 -24.8,-114.87 -2.91,-116.31 61.25,-115.15 -49.29,-115.71 -36.17,-119.07 72.62,-116.02 -46.66,-114.82 -6.13,-116.5 6.13,-116.37 V 4202.3 l -29.16,-114.72 69.99,-115.48 -70.29,-116.91 -26.25,-116.63 87.79,-115.88 6.42,-116.66 -47.25,-114.69 -5.83,-117.73 69.99,-115.12 -39.66,-114.93 -806.7,-42.84 v 0 0 l 833.24,42.84 39.66,114.93 -69.99,115.12 5.83,117.73 47.24,114.69 -6.41,116.66 -87.78,115.88 26.24,116.63 70.29,116.91 -70,115.48 29.17,114.72 v 116.12 l -6.13,116.37 6.13,116.5 46.66,114.82 -72.62,116.02 36.17,119.07 49.28,115.71 -61.24,115.15 2.92,116.31 24.79,114.87 -32.96,114.95 -9.92,116.72 61.83,118.27 -69.12,116.38 44.33,119.67 -48.41,114.64 49.87,115.24 29.16,115.8 -10.5,117.14 -23.91,114.95 19.83,116.33 -12.83,117.54 -24.5,115.04 22.75,115.77 L 920,7110"
         style="fill:#0000ff;fill-opacity:1;fill-rule:nonzero;stroke:none"
         id="path340"
         inkscape:connector-curvature="0" /><path
         d="m 920,7110 v 0 l 812.53,-118.32 -22.75,-115.77 24.5,-115.04 12.83,-117.54 -19.83,-116.33 23.92,-114.95 10.5,-117.14 -29.17,-115.8 -49.87,-115.24 48.41,-114.64 -44.33,-119.67 69.12,-116.38 -61.83,-118.27 9.92,-116.72 32.96,-114.95 -24.8,-114.87 -2.91,-116.31 61.25,-115.15 -49.29,-115.71 -36.17,-119.07 72.62,-116.02 -46.66,-114.82 -6.13,-116.5 6.13,-116.37 V 4202.3 l -29.16,-114.72 69.99,-115.48 -70.29,-116.91 -26.25,-116.63 87.79,-115.88 6.42,-116.66 -47.25,-114.69 -5.83,-117.73 69.99,-115.12 -39.66,-114.93 -806.7,-42.84 v 0 0 l 833.24,42.84 39.66,114.93 -69.99,115.12 5.83,117.73 47.24,114.69 -6.41,116.66 -87.78,115.88 26.24,116.63 70.29,116.91 -70,115.48 29.17,114.72 v 116.12 l -6.13,116.37 6.13,116.5 46.66,114.82 -72.62,116.02 36.17,119.07 49.28,115.71 -61.24,115.15 2.92,116.31 24.79,114.87 -32.96,114.95 -9.92,116.72 61.83,118.27 -69.12,116.38 44.33,119.67 -48.41,114.64 49.87,115.24 29.16,115.8 -10.5,117.14 -23.91,114.95 19.83,116.33 -12.83,117.54 -24.5,115.04 22.75,115.77 z"
         style="fill:none;stroke:#000000;stroke-width:5;stroke-linecap:butt;stroke-linejoin:miter;stroke-miterlimit:10;stroke-dasharray:none;stroke-opacity:1"
         id="path342"
         inkscape:connector-curvature="0" /><path
         d="m 920,7110 v 0 l 839.07,-118.32 -22.75,-115.77 24.5,-115.04 12.83,-117.54 -19.83,-116.33 23.91,-114.95 10.5,-117.14 -29.16,-115.8 -49.87,-115.24 48.41,-114.64 -44.33,-119.67 69.12,-116.38 -61.83,-118.27 9.92,-116.72 32.96,-114.95 -24.79,-114.87 -2.92,-116.31 61.24,-115.15 -49.28,-115.71 -36.17,-119.07 72.62,-116.02 -46.66,-114.82 -6.13,-116.5 6.13,-116.37 V 4202.3 l -29.17,-114.72 70,-115.48 -70.29,-116.91 -26.24,-116.63 87.78,-115.88 6.41,-116.66 -47.24,-114.69 -5.83,-117.73 69.99,-115.12 -39.66,-114.93 L 920,3000.71 v 0 0 l 859.78,42.84 39.66,114.93 -69.99,115.12 5.83,117.73 47.25,114.69 -6.42,116.66 -87.79,115.88 26.25,116.63 70.29,116.91 -70,115.48 29.17,114.72 v 116.12 l -6.13,116.37 6.13,116.5 46.66,114.82 -72.62,116.02 36.16,119.07 49.29,115.71 -61.24,115.15 2.92,116.31 24.78,114.87 -32.95,114.95 -9.92,116.72 61.83,118.27 -69.12,116.38 44.33,119.67 -48.41,114.64 49.87,115.24 29.16,115.8 -10.49,117.14 -23.92,114.95 19.83,116.33 -12.83,117.54 -24.5,115.04 22.75,115.77 L 920,7110"
         style="fill:#00ff00;fill-opacity:1;fill-rule:nonzero;stroke:none"
         id="path344"
         inkscape:connector-curvature="0" /><path
         d="m 920,7110 v 0 l 839.07,-118.32 -22.75,-115.77 24.5,-115.04 12.83,-117.54 -19.83,-116.33 23.91,-114.95 10.5,-117.14 -29.16,-115.8 -49.87,-115.24 48.41,-114.64 -44.33,-119.67 69.12,-116.38 -61.83,-118.27 9.92,-116.72 32.96,-114.95 -24.79,-114.87 -2.92,-116.31 61.24,-115.15 -49.28,-115.71 -36.17,-119.07 72.62,-116.02 -46.66,-114.82 -6.13,-116.5 6.13,-116.37 V 4202.3 l -29.17,-114.72 70,-115.48 -70.29,-116.91 -26.24,-116.63 87.78,-115.88 6.41,-116.66 -47.24,-114.69 -5.83,-117.73 69.99,-115.12 -39.66,-114.93 L 920,3000.71 v 0 0 l 859.78,42.84 39.66,114.93 -69.99,115.12 5.83,117.73 47.25,114.69 -6.42,116.66 -87.79,115.88 26.25,116.63 70.29,116.91 -70,115.48 29.17,114.72 v 116.12 l -6.13,116.37 6.13,116.5 46.66,114.82 -72.62,116.02 36.16,119.07 49.29,115.71 -61.24,115.15 2.92,116.31 24.78,114.87 -32.95,114.95 -9.92,116.72 61.83,118.27 -69.12,116.38 44.33,119.67 -48.41,114.64 49.87,115.24 29.16,115.8 -10.49,117.14 -23.92,114.95 19.83,116.33 -12.83,117.54 -24.5,115.04 22.75,115.77 z"
         style="fill:none;stroke:#000000;stroke-width:5;stroke-linecap:butt;stroke-linejoin:miter;stroke-miterlimit:10;stroke-dasharray:none;stroke-opacity:1"
         id="path346"
         inkscape:connector-curvature="0" /><path
         d="m 920,7110 v 0 l 865.61,-118.32 -22.75,-115.77 24.5,-115.04 12.83,-117.54 -19.83,-116.33 23.92,-114.95 10.49,-117.14 -29.16,-115.8 -49.87,-115.24 48.41,-114.64 -44.33,-119.67 69.12,-116.38 -61.83,-118.27 9.92,-116.72 32.95,-114.95 -24.78,-114.87 -2.92,-116.31 61.24,-115.15 -49.29,-115.71 -36.16,-119.07 72.62,-116.02 -46.66,-114.82 -6.13,-116.5 6.13,-116.37 V 4202.3 l -29.17,-114.72 70,-115.48 -70.29,-116.91 -26.25,-116.63 87.79,-115.88 6.42,-116.66 -47.25,-114.69 -5.83,-117.73 69.99,-115.12 -39.66,-114.93 L 920,3000.71 v 0 0 l 911.69,42.84 24.5,114.93 -84.58,115.12 -9.33,117.73 83.99,114.69 -21.58,116.66 -102.37,115.88 63,116.63 54.54,116.91 -84.58,115.48 14,114.72 36.74,116.12 -21.29,116.37 -9.03,116.5 83.41,114.82 -87.21,116.02 20.42,119.07 34.12,115.71 -23.91,115.15 -12.25,116.31 9.62,114.87 4.38,114.95 -25.08,116.72 46.07,118.27 -83.7,116.38 80.5,119.67 -63,114.64 34.71,115.24 65.91,115.8 -25.67,117.14 -38.49,114.95 56.58,116.33 -28,117.54 -39.08,115.04 7.58,115.77 L 920,7110"
         style="fill:#00ffff;fill-opacity:1;fill-rule:nonzero;stroke:none"
         id="path348"
         inkscape:connector-curvature="0" /><path
         d="m 920,7110 v 0 l 865.61,-118.32 -22.75,-115.77 24.5,-115.04 12.83,-117.54 -19.83,-116.33 23.92,-114.95 10.49,-117.14 -29.16,-115.8 -49.87,-115.24 48.41,-114.64 -44.33,-119.67 69.12,-116.38 -61.83,-118.27 9.92,-116.72 32.95,-114.95 -24.78,-114.87 -2.92,-116.31 61.24,-115.15 -49.29,-115.71 -36.16,-119.07 72.62,-116.02 -46.66,-114.82 -6.13,-116.5 6.13,-116.37 V 4202.3 l -29.17,-114.72 70,-115.48 -70.29,-116.91 -26.25,-116.63 87.79,-115.88 6.42,-116.66 -47.25,-114.69 -5.83,-117.73 69.99,-115.12 -39.66,-114.93 L 920,3000.71 v 0 0 l 911.69,42.84 24.5,114.93 -84.58,115.12 -9.33,117.73 83.99,114.69 -21.58,116.66 -102.37,115.88 63,116.63 54.54,116.91 -84.58,115.48 14,114.72 36.74,116.12 -21.29,116.37 -9.03,116.5 83.41,114.82 -87.21,116.02 20.42,119.07 34.12,115.71 -23.91,115.15 -12.25,116.31 9.62,114.87 4.38,114.95 -25.08,116.72 46.07,118.27 -83.7,116.38 80.5,119.67 -63,114.64 34.71,115.24 65.91,115.8 -25.67,117.14 -38.49,114.95 56.58,116.33 -28,117.54 -39.08,115.04 7.58,115.77 z"
         style="fill:none;stroke:#000000;stroke-width:5;stroke-linecap:butt;stroke-linejoin:miter;stroke-miterlimit:10;stroke-dasharray:none;stroke-opacity:1"
         id="path350"
         inkscape:connector-curvature="0" /><path
         d="m 920,7110 v 0 l 872.61,-118.32 -7.58,-115.77 39.08,-115.04 28,-117.54 -56.58,-116.33 38.49,-114.95 25.67,-117.14 -65.91,-115.8 -34.71,-115.24 63,-114.64 -80.5,-119.67 83.7,-116.38 -46.07,-118.27 25.08,-116.72 -4.38,-114.95 -9.62,-114.87 12.25,-116.31 23.91,-115.15 -34.12,-115.71 -20.42,-119.07 87.21,-116.02 -83.41,-114.82 9.03,-116.5 21.29,-116.37 -36.74,-116.12 -14,-114.72 84.58,-115.48 -54.54,-116.91 -63,-116.63 102.37,-115.88 21.58,-116.66 -83.99,-114.69 9.33,-117.73 84.58,-115.12 -24.5,-114.93 L 920,3000.71 v 0 0 l 939.69,42.84 24.5,114.93 -84.58,115.12 -9.33,117.73 83.99,114.69 -21.58,116.66 -102.37,115.88 63,116.63 54.54,116.91 -84.58,115.48 14,114.72 36.74,116.12 -21.29,116.37 -9.04,116.5 83.41,114.82 -87.2,116.02 20.42,119.07 34.12,115.71 -23.92,115.15 -12.25,116.31 9.63,114.87 4.37,114.95 -25.08,116.72 46.08,118.27 -83.7,116.38 80.49,119.67 -62.99,114.64 34.7,115.24 65.92,115.8 -25.67,117.14 -38.5,114.95 56.59,116.33 -28,117.54 -39.09,115.04 7.59,115.77 L 920,7110"
         style="fill:#ff0000;fill-opacity:1;fill-rule:nonzero;stroke:none"
         id="path352"
         inkscape:connector-curvature="0" /><path
         d="m 920,7110 v 0 l 872.61,-118.32 -7.58,-115.77 39.08,-115.04 28,-117.54 -56.58,-116.33 38.49,-114.95 25.67,-117.14 -65.91,-115.8 -34.71,-115.24 63,-114.64 -80.5,-119.67 83.7,-116.38 -46.07,-118.27 25.08,-116.72 -4.38,-114.95 -9.62,-114.87 12.25,-116.31 23.91,-115.15 -34.12,-115.71 -20.42,-119.07 87.21,-116.02 -83.41,-114.82 9.03,-116.5 21.29,-116.37 -36.74,-116.12 -14,-114.72 84.58,-115.48 -54.54,-116.91 -63,-116.63 102.37,-115.88 21.58,-116.66 -83.99,-114.69 9.33,-117.73 84.58,-115.12 -24.5,-114.93 L 920,3000.71 v 0 0 l 939.69,42.84 24.5,114.93 -84.58,115.12 -9.33,117.73 83.99,114.69 -21.58,116.66 -102.37,115.88 63,116.63 54.54,116.91 -84.58,115.48 14,114.72 36.74,116.12 -21.29,116.37 -9.04,116.5 83.41,114.82 -87.2,116.02 20.42,119.07 34.12,115.71 -23.92,115.15 -12.25,116.31 9.63,114.87 4.37,114.95 -25.08,116.72 46.08,118.27 -83.7,116.38 80.49,119.67 -62.99,114.64 34.7,115.24 65.92,115.8 -25.67,117.14 -38.5,114.95 56.59,116.33 -28,117.54 -39.09,115.04 7.59,115.77 z"
         style="fill:none;stroke:#000000;stroke-width:5;stroke-linecap:butt;stroke-linejoin:miter;stroke-miterlimit:10;stroke-dasharray:none;stroke-opacity:1"
         id="path354"
         inkscape:connector-curvature="0" /><path
         d="m 920,7110 v 0 l 900.61,-118.32 -7.59,-115.77 39.09,-115.04 28,-117.54 -56.59,-116.33 38.5,-114.95 25.67,-117.14 -65.92,-115.8 -34.7,-115.24 62.99,-114.64 -80.49,-119.67 83.7,-116.38 -46.08,-118.27 25.08,-116.72 -4.37,-114.95 -9.63,-114.87 12.25,-116.31 23.92,-115.15 -34.12,-115.71 -20.42,-119.07 87.2,-116.02 -83.41,-114.82 9.04,-116.5 21.29,-116.37 -36.74,-116.12 -14,-114.72 84.58,-115.48 -54.54,-116.91 -63,-116.63 102.37,-115.88 21.58,-116.66 -83.99,-114.69 9.33,-117.73 84.58,-115.12 -24.5,-114.93 L 920,3000.71 v 0 0 l 970.02,42.84 24.5,114.93 -84.58,115.12 -9.33,117.73 83.99,114.69 -21.58,116.66 -102.37,115.88 63,116.63 54.54,116.91 -84.58,115.48 14,114.72 36.75,116.12 -21.29,116.37 -9.05,116.5 83.41,114.82 -87.2,116.02 20.42,119.07 34.12,115.71 -23.91,115.15 -12.25,116.31 9.62,114.87 4.38,114.95 -25.09,116.72 46.09,118.27 -83.71,116.38 80.49,119.67 -62.99,114.64 34.71,115.24 65.91,115.8 -25.67,117.14 -38.49,114.95 56.57,116.33 -27.99,117.54 -39.08,115.04 7.58,115.77 L 920,7110"
         style="fill:#ff00ff;fill-opacity:1;fill-rule:nonzero;stroke:none"
         id="path356"
         inkscape:connector-curvature="0" /><path
         d="m 920,7110 v 0 l 900.61,-118.32 -7.59,-115.77 39.09,-115.04 28,-117.54 -56.59,-116.33 38.5,-114.95 25.67,-117.14 -65.92,-115.8 -34.7,-115.24 62.99,-114.64 -80.49,-119.67 83.7,-116.38 -46.08,-118.27 25.08,-116.72 -4.37,-114.95 -9.63,-114.87 12.25,-116.31 23.92,-115.15 -34.12,-115.71 -20.42,-119.07 87.2,-116.02 -83.41,-114.82 9.04,-116.5 21.29,-116.37 -36.74,-116.12 -14,-114.72 84.58,-115.48 -54.54,-116.91 -63,-116.63 102.37,-115.88 21.58,-116.66 -83.99,-114.69 9.33,-117.73 84.58,-115.12 -24.5,-114.93 L 920,3000.71 v 0 0 l 970.02,42.84 24.5,114.93 -84.58,115.12 -9.33,117.73 83.99,114.69 -21.58,116.66 -102.37,115.88 63,116.63 54.54,116.91 -84.58,115.48 14,114.72 36.75,116.12 -21.29,116.37 -9.05,116.5 83.41,114.82 -87.2,116.02 20.42,119.07 34.12,115.71 -23.91,115.15 -12.25,116.31 9.62,114.87 4.38,114.95 -25.09,116.72 46.09,118.27 -83.71,116.38 80.49,119.67 -62.99,114.64 34.71,115.24 65.91,115.8 -25.67,117.14 -38.49,114.95 56.57,116.33 -27.99,117.54 -39.08,115.04 7.58,115.77 z"
         style="fill:none;stroke:#000000;stroke-width:5;stroke-linecap:butt;stroke-linejoin:miter;stroke-miterlimit:10;stroke-dasharray:none;stroke-opacity:1"
         id="path358"
         inkscape:connector-curvature="0" /><path
         d="m 920,7110 v 0 l 930.94,-118.32 -7.58,-115.77 39.08,-115.04 27.99,-117.54 -56.57,-116.33 38.49,-114.95 25.67,-117.14 -65.91,-115.8 -34.71,-115.24 62.99,-114.64 -80.49,-119.67 83.71,-116.38 -46.09,-118.27 25.09,-116.72 -4.38,-114.95 -9.62,-114.87 12.25,-116.31 23.91,-115.15 -34.12,-115.71 -20.42,-119.07 87.2,-116.02 -83.41,-114.82 9.05,-116.5 21.29,-116.37 -36.75,-116.12 -14,-114.72 84.58,-115.48 -54.54,-116.91 -63,-116.63 102.37,-115.88 21.58,-116.66 -83.99,-114.69 9.33,-117.73 84.58,-115.12 -24.5,-114.93 L 920,3000.71 v 0 0 l 1003.85,42.84 24.5,114.93 -84.58,115.12 -9.33,117.73 83.99,114.69 -21.58,116.66 -102.37,115.88 63,116.63 54.54,116.91 -84.58,115.48 14,114.72 36.75,116.12 -21.3,116.37 -9.03,116.5 83.41,114.82 -87.21,116.02 20.42,119.07 34.12,115.71 -23.91,115.15 -12.25,116.31 9.62,114.87 4.38,114.95 -25.08,116.72 46.07,118.27 -83.7,116.38 80.5,119.67 -63,114.64 34.71,115.24 65.91,115.8 -25.67,117.14 -38.49,114.95 56.58,116.33 -28,117.54 -39.08,115.04 7.58,115.77 L 920,7110"
         style="fill:#ffff00;fill-opacity:1;fill-rule:nonzero;stroke:none"
         id="path360"
         inkscape:connector-curvature="0" /><path
         d="m 920,7110 v 0 l 930.94,-118.32 -7.58,-115.77 39.08,-115.04 27.99,-117.54 -56.57,-116.33 38.49,-114.95 25.67,-117.14 -65.91,-115.8 -34.71,-115.24 62.99,-114.64 -80.49,-119.67 83.71,-116.38 -46.09,-118.27 25.09,-116.72 -4.38,-114.95 -9.62,-114.87 12.25,-116.31 23.91,-115.15 -34.12,-115.71 -20.42,-119.07 87.2,-116.02 -83.41,-114.82 9.05,-116.5 21.29,-116.37 -36.75,-116.12 -14,-114.72 84.58,-115.48 -54.54,-116.91 -63,-116.63 102.37,-115.88 21.58,-116.66 -83.99,-114.69 9.33,-117.73 84.58,-115.12 -24.5,-114.93 L 920,3000.71 v 0 0 l 1003.85,42.84 24.5,114.93 -84.58,115.12 -9.33,117.73 83.99,114.69 -21.58,116.66 -102.37,115.88 63,116.63 54.54,116.91 -84.58,115.48 14,114.72 36.75,116.12 -21.3,116.37 -9.03,116.5 83.41,114.82 -87.21,116.02 20.42,119.07 34.12,115.71 -23.91,115.15 -12.25,116.31 9.62,114.87 4.38,114.95 -25.08,116.72 46.07,118.27 -83.7,116.38 80.5,119.67 -63,114.64 34.71,115.24 65.91,115.8 -25.67,117.14 -38.49,114.95 56.58,116.33 -28,117.54 -39.08,115.04 7.58,115.77 z"
         style="fill:none;stroke:#000000;stroke-width:5;stroke-linecap:butt;stroke-linejoin:miter;stroke-miterlimit:10;stroke-dasharray:none;stroke-opacity:1"
         id="path362"
         inkscape:connector-curvature="0" /><path
         d="m 920,7110 v 0 l 964.77,-118.32 -7.58,-115.77 39.08,-115.04 28,-117.54 -56.58,-116.33 38.49,-114.95 25.67,-117.14 -65.91,-115.8 -34.71,-115.24 63,-114.64 -80.5,-119.67 83.7,-116.38 -46.07,-118.27 25.08,-116.72 -4.38,-114.95 -9.62,-114.87 12.25,-116.31 23.91,-115.15 -34.12,-115.71 -20.42,-119.07 87.21,-116.02 -83.41,-114.82 9.03,-116.5 21.3,-116.37 -36.75,-116.12 -14,-114.72 84.58,-115.48 -54.54,-116.91 -63,-116.63 102.37,-115.88 21.58,-116.66 -83.99,-114.69 9.33,-117.73 84.58,-115.12 -24.5,-114.93 L 920,3000.71 v 0 0 l 1038.85,42.84 24.5,114.93 -84.58,115.12 -9.33,117.73 83.99,114.69 -21.58,116.66 -102.37,115.88 63,116.63 54.54,116.91 -84.58,115.48 14,114.72 36.74,116.12 -21.29,116.37 -9.04,116.5 83.41,114.82 -87.2,116.02 20.42,119.07 34.12,115.71 -23.92,115.15 -12.25,116.31 9.63,114.87 4.37,114.95 -25.08,116.72 46.08,118.27 -83.7,116.38 80.49,119.67 -62.99,114.64 34.7,115.24 65.92,115.8 -25.67,117.14 -38.5,114.95 56.59,116.33 -28,117.54 -39.09,115.04 7.59,115.77 L 920,7110"
         style="fill:#ffffff;fill-opacity:1;fill-rule:nonzero;stroke:none"
         id="path364"
         inkscape:connector-curvature="0" /><path
         d="m 920,7110 v 0 l 964.77,-118.32 -7.58,-115.77 39.08,-115.04 28,-117.54 -56.58,-116.33 38.49,-114.95 25.67,-117.14 -65.91,-115.8 -34.71,-115.24 63,-114.64 -80.5,-119.67 83.7,-116.38 -46.07,-118.27 25.08,-116.72 -4.38,-114.95 -9.62,-114.87 12.25,-116.31 23.91,-115.15 -34.12,-115.71 -20.42,-119.07 87.21,-116.02 -83.41,-114.82 9.03,-116.5 21.3,-116.37 -36.75,-116.12 -14,-114.72 84.58,-115.48 -54.54,-116.91 -63,-116.63 102.37,-115.88 21.58,-116.66 -83.99,-114.69 9.33,-117.73 84.58,-115.12 -24.5,-114.93 L 920,3000.71 v 0 0 l 1038.85,42.84 24.5,114.93 -84.58,115.12 -9.33,117.73 83.99,114.69 -21.58,116.66 -102.37,115.88 63,116.63 54.54,116.91 -84.58,115.48 14,114.72 36.74,116.12 -21.29,116.37 -9.04,116.5 83.41,114.82 -87.2,116.02 20.42,119.07 34.12,115.71 -23.92,115.15 -12.25,116.31 9.63,114.87 4.37,114.95 -25.08,116.72 46.08,118.27 -83.7,116.38 80.49,119.67 -62.99,114.64 34.7,115.24 65.92,115.8 -25.67,117.14 -38.5,114.95 56.59,116.33 -28,117.54 -39.09,115.04 7.59,115.77 z"
         style="fill:none;stroke:#000000;stroke-width:5;stroke-linecap:butt;stroke-linejoin:miter;stroke-miterlimit:10;stroke-dasharray:none;stroke-opacity:1"
         id="path366"
         inkscape:connector-curvature="0" /><path
         d="m 920,7110 v 0 l 999.77,-118.32 -7.59,-115.77 39.09,-115.04 28,-117.54 -56.59,-116.33 38.5,-114.95 25.67,-117.14 -65.92,-115.8 -34.7,-115.24 62.99,-114.64 -80.49,-119.67 83.7,-116.38 -46.08,-118.27 25.08,-116.72 -4.37,-114.95 -9.63,-114.87 12.25,-116.31 23.92,-115.15 -34.12,-115.71 -20.42,-119.07 87.2,-116.02 -83.41,-114.82 9.04,-116.5 21.29,-116.37 -36.74,-116.12 -14,-114.72 84.58,-115.48 -54.54,-116.91 -63,-116.63 102.37,-115.88 21.58,-116.66 -83.99,-114.69 9.33,-117.73 84.58,-115.12 -24.5,-114.93 L 920,3000.71 v 0 0 l 1086.97,42.84 24.5,114.93 -84.58,115.12 -9.33,117.73 83.99,114.69 -21.58,116.66 -102.37,115.88 63,116.63 54.54,116.91 -84.58,115.48 14,114.72 36.74,116.12 -21.28,116.37 -9.05,116.5 83.42,114.82 -87.21,116.02 20.42,119.07 34.12,115.71 -23.92,115.15 -12.25,116.31 9.63,114.87 4.37,114.95 -25.08,116.72 46.08,118.27 -83.7,116.38 80.5,119.67 -63,114.64 34.7,115.24 65.92,115.8 -25.67,117.14 -38.5,114.95 56.59,116.33 -28,117.54 -39.08,115.04 7.58,115.77 L 920,7110"
         style="fill:#000080;fill-opacity:1;fill-rule:nonzero;stroke:none"
         id="path368"
         inkscape:connector-curvature="0" /><path
         d="m 920,7110 v 0 l 999.77,-118.32 -7.59,-115.77 39.09,-115.04 28,-117.54 -56.59,-116.33 38.5,-114.95 25.67,-117.14 -65.92,-115.8 -34.7,-115.24 62.99,-114.64 -80.49,-119.67 83.7,-116.38 -46.08,-118.27 25.08,-116.72 -4.37,-114.95 -9.63,-114.87 12.25,-116.31 23.92,-115.15 -34.12,-115.71 -20.42,-119.07 87.2,-116.02 -83.41,-114.82 9.04,-116.5 21.29,-116.37 -36.74,-116.12 -14,-114.72 84.58,-115.48 -54.54,-116.91 -63,-116.63 102.37,-115.88 21.58,-116.66 -83.99,-114.69 9.33,-117.73 84.58,-115.12 -24.5,-114.93 L 920,3000.71 v 0 0 l 1086.97,42.84 24.5,114.93 -84.58,115.12 -9.33,117.73 83.99,114.69 -21.58,116.66 -102.37,115.88 63,116.63 54.54,116.91 -84.58,115.48 14,114.72 36.74,116.12 -21.28,116.37 -9.05,116.5 83.42,114.82 -87.21,116.02 20.42,119.07 34.12,115.71 -23.92,115.15 -12.25,116.31 9.63,114.87 4.37,114.95 -25.08,116.72 46.08,118.27 -83.7,116.38 80.5,119.67 -63,114.64 34.7,115.24 65.92,115.8 -25.67,117.14 -38.5,114.95 56.59,116.33 -28,117.54 -39.08,115.04 7.58,115.77 z"
         style="fill:none;stroke:#000000;stroke-width:5;stroke-linecap:butt;stroke-linejoin:miter;stroke-miterlimit:10;stroke-dasharray:none;stroke-opacity:1"
         id="path370"
         inkscape:connector-curvature="0" /><path
         d="m 920,7110 v 0 l 1047.89,-118.32 -7.58,-115.77 39.08,-115.04 28,-117.54 -56.59,-116.33 38.5,-114.95 25.67,-117.14 -65.92,-115.8 -34.7,-115.24 63,-114.64 -80.5,-119.67 83.7,-116.38 -46.08,-118.27 25.08,-116.72 -4.37,-114.95 -9.63,-114.87 12.25,-116.31 23.92,-115.15 -34.12,-115.71 -20.42,-119.07 87.21,-116.02 -83.42,-114.82 9.05,-116.5 21.28,-116.37 -36.74,-116.12 -14,-114.72 84.58,-115.48 -54.54,-116.91 -63,-116.63 102.37,-115.88 21.58,-116.66 -83.99,-114.69 9.33,-117.73 84.58,-115.12 -24.5,-114.93 L 920,3000.71 v 0 0 l 1190.8,42.84 -5.84,114.93 -113.74,115.12 -39.66,117.73 157.49,114.69 -51.92,116.66 -131.53,115.88 136.49,116.63 23.04,116.91 -113.74,115.48 -16.33,114.72 110.24,116.12 -51.62,116.37 -39.38,116.5 156.91,114.82 -116.37,116.02 -11.08,119.07 3.79,115.71 50.75,115.15 -42.58,116.31 -20.71,114.87 79.04,114.95 -55.41,116.72 14.58,118.27 -112.87,116.38 152.83,119.67 -92.16,114.64 4.37,115.24 139.41,115.8 -56,117.14 -67.66,114.95 130.07,116.33 -58.33,117.54 -68.24,115.04 -22.75,115.77 L 920,7110"
         style="fill:#008000;fill-opacity:1;fill-rule:nonzero;stroke:none"
         id="path372"
         inkscape:connector-curvature="0" /><path
         d="m 920,7110 v 0 l 1047.89,-118.32 -7.58,-115.77 39.08,-115.04 28,-117.54 -56.59,-116.33 38.5,-114.95 25.67,-117.14 -65.92,-115.8 -34.7,-115.24 63,-114.64 -80.5,-119.67 83.7,-116.38 -46.08,-118.27 25.08,-116.72 -4.37,-114.95 -9.63,-114.87 12.25,-116.31 23.92,-115.15 -34.12,-115.71 -20.42,-119.07 87.21,-116.02 -83.42,-114.82 9.05,-116.5 21.28,-116.37 -36.74,-116.12 -14,-114.72 84.58,-115.48 -54.54,-116.91 -63,-116.63 102.37,-115.88 21.58,-116.66 -83.99,-114.69 9.33,-117.73 84.58,-115.12 -24.5,-114.93 L 920,3000.71 v 0 0 l 1190.8,42.84 -5.84,114.93 -113.74,115.12 -39.66,117.73 157.49,114.69 -51.92,116.66 -131.53,115.88 136.49,116.63 23.04,116.91 -113.74,115.48 -16.33,114.72 110.24,116.12 -51.62,116.37 -39.38,116.5 156.91,114.82 -116.37,116.02 -11.08,119.07 3.79,115.71 50.75,115.15 -42.58,116.31 -20.71,114.87 79.04,114.95 -55.41,116.72 14.58,118.27 -112.87,116.38 152.83,119.67 -92.16,114.64 4.37,115.24 139.41,115.8 -56,117.14 -67.66,114.95 130.07,116.33 -58.33,117.54 -68.24,115.04 -22.75,115.77 z"
         style="fill:none;stroke:#000000;stroke-width:5;stroke-linecap:butt;stroke-linejoin:miter;stroke-miterlimit:10;stroke-dasharray:none;stroke-opacity:1"
         id="path374"
         inkscape:connector-curvature="0" /><path
         d="m 920,7110 v 0 l 1061.89,-118.32 22.75,-115.77 68.24,-115.04 58.33,-117.54 -130.07,-116.33 67.66,-114.95 56,-117.14 -139.41,-115.8 -4.37,-115.24 92.16,-114.64 -152.83,-119.67 112.87,-116.38 -14.58,-118.27 55.41,-116.72 -79.04,-114.95 20.71,-114.87 42.58,-116.31 -50.75,-115.15 -3.79,-115.71 11.08,-119.07 116.37,-116.02 -156.91,-114.82 39.38,-116.5 51.62,-116.37 -110.24,-116.12 16.33,-114.72 113.74,-115.48 -23.04,-116.91 -136.49,-116.63 131.53,-115.88 51.92,-116.66 -157.49,-114.69 39.66,-117.73 113.74,-115.12 5.84,-114.93 L 920,3000.71 v 0 0 l 1294.63,42.84 -36.17,114.93 -142.91,115.12 -70,117.73 230.99,114.69 -82.24,116.66 -160.7,115.88 209.99,116.63 -8.46,116.91 -142.91,115.48 -46.67,114.72 183.74,116.12 -81.95,116.37 -69.7,116.5 230.4,114.82 -145.53,116.02 -42.58,119.07 -26.54,115.71 125.41,115.15 -72.92,116.31 -51.04,114.87 153.7,114.95 -85.74,116.72 -16.92,118.27 -142.03,116.38 225.15,119.67 -121.32,114.64 -25.96,115.24 212.91,115.8 -86.33,117.14 -96.83,114.95 203.57,116.33 -88.66,117.54 -97.41,115.04 -53.08,115.77 L 920,7110"
         style="fill:#0080ff;fill-opacity:1;fill-rule:nonzero;stroke:none"
         id="path376"
         inkscape:connector-curvature="0" /><path
         d="m 920,7110 v 0 l 1061.89,-118.32 22.75,-115.77 68.24,-115.04 58.33,-117.54 -130.07,-116.33 67.66,-114.95 56,-117.14 -139.41,-115.8 -4.37,-115.24 92.16,-114.64 -152.83,-119.67 112.87,-116.38 -14.58,-118.27 55.41,-116.72 -79.04,-114.95 20.71,-114.87 42.58,-116.31 -50.75,-115.15 -3.79,-115.71 11.08,-119.07 116.37,-116.02 -156.91,-114.82 39.38,-116.5 51.62,-116.37 -110.24,-116.12 16.33,-114.72 113.74,-115.48 -23.04,-116.91 -136.49,-116.63 131.53,-115.88 51.92,-116.66 -157.49,-114.69 39.66,-117.73 113.74,-115.12 5.84,-114.93 L 920,3000.71 v 0 0 l 1294.63,42.84 -36.17,114.93 -142.91,115.12 -70,117.73 230.99,114.69 -82.24,116.66 -160.7,115.88 209.99,116.63 -8.46,116.91 -142.91,115.48 -46.67,114.72 183.74,116.12 -81.95,116.37 -69.7,116.5 230.4,114.82 -145.53,116.02 -42.58,119.07 -26.54,115.71 125.41,115.15 -72.92,116.31 -51.04,114.87 153.7,114.95 -85.74,116.72 -16.92,118.27 -142.03,116.38 225.15,119.67 -121.32,114.64 -25.96,115.24 212.91,115.8 -86.33,117.14 -96.83,114.95 203.57,116.33 -88.66,117.54 -97.41,115.04 -53.08,115.77 z"
         style="fill:none;stroke:#000000;stroke-width:5;stroke-linecap:butt;stroke-linejoin:miter;stroke-miterlimit:10;stroke-dasharray:none;stroke-opacity:1"
         id="path378"
         inkscape:connector-curvature="0" /><path
         d="m 920,7110 v 0 l 1075.89,-118.32 53.08,-115.77 97.41,-115.04 88.66,-117.54 -203.57,-116.33 96.83,-114.95 86.33,-117.14 -212.91,-115.8 25.96,-115.24 121.32,-114.64 -225.15,-119.67 142.03,-116.38 16.92,-118.27 85.74,-116.72 -153.7,-114.95 51.04,-114.87 72.92,-116.31 -125.41,-115.15 26.54,-115.71 42.58,-119.07 145.53,-116.02 -230.4,-114.82 69.7,-116.5 81.95,-116.37 -183.74,-116.12 46.67,-114.72 142.91,-115.48 8.46,-116.91 -209.99,-116.63 160.7,-115.88 82.24,-116.66 -230.99,-114.69 70,-117.73 142.91,-115.12 36.17,-114.93 L 920,3000.71 v 0 0 l 1386.49,42.84 -44.91,114.93 -183.15,115.12 -93.63,117.73 299.24,114.69 -103.25,116.66 -206.19,115.88 265.98,116.63 -9.33,116.91 -185.78,115.48 -60.67,114.72 238.86,116.12 -104.7,116.37 -92.45,116.5 299.52,114.82 -188.4,116.02 -52.21,119.07 -40.53,115.71 163.02,115.15 -94.78,116.31 -62.41,114.87 194.82,114.95 -109.37,116.72 -22.17,118.27 -186.65,116.38 291.65,119.67 -153.7,114.64 -35.58,115.24 277.65,115.8 -109.95,117.14 -130.08,114.95 266.57,116.33 -111.41,117.54 -132.41,115.04 -67.95,115.77 L 920,7110"
         style="fill:#00ff80;fill-opacity:1;fill-rule:nonzero;stroke:none"
         id="path380"
         inkscape:connector-curvature="0" /><path
         d="m 920,7110 v 0 l 1075.89,-118.32 53.08,-115.77 97.41,-115.04 88.66,-117.54 -203.57,-116.33 96.83,-114.95 86.33,-117.14 -212.91,-115.8 25.96,-115.24 121.32,-114.64 -225.15,-119.67 142.03,-116.38 16.92,-118.27 85.74,-116.72 -153.7,-114.95 51.04,-114.87 72.92,-116.31 -125.41,-115.15 26.54,-115.71 42.58,-119.07 145.53,-116.02 -230.4,-114.82 69.7,-116.5 81.95,-116.37 -183.74,-116.12 46.67,-114.72 142.91,-115.48 8.46,-116.91 -209.99,-116.63 160.7,-115.88 82.24,-116.66 -230.99,-114.69 70,-117.73 142.91,-115.12 36.17,-114.93 L 920,3000.71 v 0 0 l 1386.49,42.84 -44.91,114.93 -183.15,115.12 -93.63,117.73 299.24,114.69 -103.25,116.66 -206.19,115.88 265.98,116.63 -9.33,116.91 -185.78,115.48 -60.67,114.72 238.86,116.12 -104.7,116.37 -92.45,116.5 299.52,114.82 -188.4,116.02 -52.21,119.07 -40.53,115.71 163.02,115.15 -94.78,116.31 -62.41,114.87 194.82,114.95 -109.37,116.72 -22.17,118.27 -186.65,116.38 291.65,119.67 -153.7,114.64 -35.58,115.24 277.65,115.8 -109.95,117.14 -130.08,114.95 266.57,116.33 -111.41,117.54 -132.41,115.04 -67.95,115.77 z"
         style="fill:none;stroke:#000000;stroke-width:5;stroke-linecap:butt;stroke-linejoin:miter;stroke-miterlimit:10;stroke-dasharray:none;stroke-opacity:1"
         id="path382"
         inkscape:connector-curvature="0" /><path
         d="m 920,7110 v 0 l 1102.14,-118.32 67.95,-115.77 132.41,-115.04 111.41,-117.54 -266.57,-116.33 130.08,-114.95 109.95,-117.14 -277.65,-115.8 35.58,-115.24 153.7,-114.64 -291.65,-119.67 186.65,-116.38 22.17,-118.27 109.37,-116.72 -194.82,-114.95 62.41,-114.87 94.78,-116.31 -163.02,-115.15 40.53,-115.71 52.21,-119.07 188.4,-116.02 -299.52,-114.82 92.45,-116.5 104.7,-116.37 -238.86,-116.12 60.67,-114.72 185.78,-115.48 9.33,-116.91 -265.98,-116.63 206.19,-115.88 103.25,-116.66 -299.24,-114.69 93.63,-117.73 183.15,-115.12 44.91,-114.93 L 920,3000.71 v 0 0 l 1478.36,42.84 -53.66,114.93 -223.4,115.12 -117.25,117.73 367.48,114.69 -124.24,116.66 -251.69,115.88 321.97,116.63 -10.2,116.91 -228.66,115.48 -74.66,114.72 293.99,116.12 -127.45,116.37 -115.21,116.5 368.65,114.82 -231.28,116.02 -61.83,119.07 -54.54,115.71 200.66,115.15 -116.66,116.31 -73.79,114.87 235.95,114.95 -133,116.72 -27.41,118.27 -231.28,116.38 358.14,119.67 -186.07,114.64 -45.2,115.24 342.39,115.8 -133.57,117.14 -163.33,114.95 329.57,116.33 -134.16,117.54 -167.41,115.04 -82.83,115.77 L 920,7110"
         style="fill:#800000;fill-opacity:1;fill-rule:nonzero;stroke:none"
         id="path384"
         inkscape:connector-curvature="0" /><path
         d="m 920,7110 v 0 l 1102.14,-118.32 67.95,-115.77 132.41,-115.04 111.41,-117.54 -266.57,-116.33 130.08,-114.95 109.95,-117.14 -277.65,-115.8 35.58,-115.24 153.7,-114.64 -291.65,-119.67 186.65,-116.38 22.17,-118.27 109.37,-116.72 -194.82,-114.95 62.41,-114.87 94.78,-116.31 -163.02,-115.15 40.53,-115.71 52.21,-119.07 188.4,-116.02 -299.52,-114.82 92.45,-116.5 104.7,-116.37 -238.86,-116.12 60.67,-114.72 185.78,-115.48 9.33,-116.91 -265.98,-116.63 206.19,-115.88 103.25,-116.66 -299.24,-114.69 93.63,-117.73 183.15,-115.12 44.91,-114.93 L 920,3000.71 v 0 0 l 1478.36,42.84 -53.66,114.93 -223.4,115.12 -117.25,117.73 367.48,114.69 -124.24,116.66 -251.69,115.88 321.97,116.63 -10.2,116.91 -228.66,115.48 -74.66,114.72 293.99,116.12 -127.45,116.37 -115.21,116.5 368.65,114.82 -231.28,116.02 -61.83,119.07 -54.54,115.71 200.66,115.15 -116.66,116.31 -73.79,114.87 235.95,114.95 -133,116.72 -27.41,118.27 -231.28,116.38 358.14,119.67 -186.07,114.64 -45.2,115.24 342.39,115.8 -133.57,117.14 -163.33,114.95 329.57,116.33 -134.16,117.54 -167.41,115.04 -82.83,115.77 z"
         style="fill:none;stroke:#000000;stroke-width:5;stroke-linecap:butt;stroke-linejoin:miter;stroke-miterlimit:10;stroke-dasharray:none;stroke-opacity:1"
         id="path386"
         inkscape:connector-curvature="0" /><path
         d="m 920,7110 v 0 l 1128.38,-118.32 82.83,-115.77 167.41,-115.04 134.16,-117.54 -329.57,-116.33 163.33,-114.95 133.57,-117.14 -342.39,-115.8 45.2,-115.24 186.07,-114.64 -358.14,-119.67 231.28,-116.38 27.41,-118.27 133,-116.72 -235.95,-114.95 73.79,-114.87 116.66,-116.31 -200.66,-115.15 54.54,-115.71 61.83,-119.07 231.28,-116.02 -368.65,-114.82 115.21,-116.5 127.45,-116.37 -293.99,-116.12 74.66,-114.72 228.66,-115.48 10.2,-116.91 -321.97,-116.63 251.69,-115.88 124.24,-116.66 -367.48,-114.69 117.25,-117.73 223.4,-115.12 53.66,-114.93 L 920,3000.71 v 0 0 l 1570.23,42.84 -62.41,114.93 -263.65,115.12 -140.87,117.73 435.72,114.69 -145.23,116.66 -297.2,115.88 377.98,116.63 -11.08,116.91 -271.53,115.48 -88.66,114.72 349.11,116.12 -148.16,116.37 -139.99,116.5 437.76,114.82 -274.15,116.02 -71.45,119.07 -68.54,115.71 238.28,115.15 -138.53,116.31 -83.13,114.87 275.03,114.95 -156.62,116.72 -32.66,118.27 -275.9,116.38 424.64,119.67 -218.44,114.64 -54.84,115.24 407.15,115.8 -157.2,117.14 -196.57,114.95 392.55,116.33 -156.9,117.54 -202.4,115.04 -97.71,115.77 L 920,7110"
         style="fill:#8000ff;fill-opacity:1;fill-rule:nonzero;stroke:none"
         id="path388"
         inkscape:connector-curvature="0" /><path
         d="m 920,7110 v 0 l 1128.38,-118.32 82.83,-115.77 167.41,-115.04 134.16,-117.54 -329.57,-116.33 163.33,-114.95 133.57,-117.14 -342.39,-115.8 45.2,-115.24 186.07,-114.64 -358.14,-119.67 231.28,-116.38 27.41,-118.27 133,-116.72 -235.95,-114.95 73.79,-114.87 116.66,-116.31 -200.66,-115.15 54.54,-115.71 61.83,-119.07 231.28,-116.02 -368.65,-114.82 115.21,-116.5 127.45,-116.37 -293.99,-116.12 74.66,-114.72 228.66,-115.48 10.2,-116.91 -321.97,-116.63 251.69,-115.88 124.24,-116.66 -367.48,-114.69 117.25,-117.73 223.4,-115.12 53.66,-114.93 L 920,3000.71 v 0 0 l 1570.23,42.84 -62.41,114.93 -263.65,115.12 -140.87,117.73 435.72,114.69 -145.23,116.66 -297.2,115.88 377.98,116.63 -11.08,116.91 -271.53,115.48 -88.66,114.72 349.11,116.12 -148.16,116.37 -139.99,116.5 437.76,114.82 -274.15,116.02 -71.45,119.07 -68.54,115.71 238.28,115.15 -138.53,116.31 -83.13,114.87 275.03,114.95 -156.62,116.72 -32.66,118.27 -275.9,116.38 424.64,119.67 -218.44,114.64 -54.84,115.24 407.15,115.8 -157.2,117.14 -196.57,114.95 392.55,116.33 -156.9,117.54 -202.4,115.04 -97.71,115.77 z"
         style="fill:none;stroke:#000000;stroke-width:5;stroke-linecap:butt;stroke-linejoin:miter;stroke-miterlimit:10;stroke-dasharray:none;stroke-opacity:1"
         id="path390"
         inkscape:connector-curvature="0" /><path
         d="m 920,7110 v 0 l 1154.63,-118.32 97.71,-115.77 202.4,-115.04 156.9,-117.54 -392.55,-116.33 196.57,-114.95 157.2,-117.14 -407.15,-115.8 54.84,-115.24 218.44,-114.64 -424.64,-119.67 275.9,-116.38 32.66,-118.27 156.62,-116.72 -275.03,-114.95 83.13,-114.87 138.53,-116.31 -238.28,-115.15 68.54,-115.71 71.45,-119.07 274.15,-116.02 -437.76,-114.82 139.99,-116.5 148.16,-116.37 -349.11,-116.12 88.66,-114.72 271.53,-115.48 11.08,-116.91 -377.98,-116.63 297.2,-115.88 145.23,-116.66 -435.72,-114.69 140.87,-117.73 263.65,-115.12 62.41,-114.93 L 920,3000.71 v 0 0 l 1631.48,42.84 -62.42,114.93 -263.65,115.12 -140.86,117.73 435.72,114.69 -145.24,116.66 -297.19,115.88 377.98,116.63 -11.09,116.91 -271.52,115.48 -88.66,114.72 349.1,116.12 -148.16,116.37 -139.99,116.5 437.77,114.82 -274.15,116.02 -71.46,119.07 -68.53,115.71 238.27,115.15 -138.53,116.31 -83.12,114.87 275.02,114.95 -156.61,116.72 -32.66,118.27 -275.9,116.38 424.63,119.67 -218.44,114.64 -54.83,115.24 407.14,115.8 -157.2,117.14 -196.57,114.95 392.56,116.33 -156.91,117.54 -202.4,115.04 -97.7,115.77 L 920,7110"
         style="fill:#80e600;fill-opacity:1;fill-rule:nonzero;stroke:none"
         id="path392"
         inkscape:connector-curvature="0" /><path
         d="m 920,7110 v 0 l 1154.63,-118.32 97.71,-115.77 202.4,-115.04 156.9,-117.54 -392.55,-116.33 196.57,-114.95 157.2,-117.14 -407.15,-115.8 54.84,-115.24 218.44,-114.64 -424.64,-119.67 275.9,-116.38 32.66,-118.27 156.62,-116.72 -275.03,-114.95 83.13,-114.87 138.53,-116.31 -238.28,-115.15 68.54,-115.71 71.45,-119.07 274.15,-116.02 -437.76,-114.82 139.99,-116.5 148.16,-116.37 -349.11,-116.12 88.66,-114.72 271.53,-115.48 11.08,-116.91 -377.98,-116.63 297.2,-115.88 145.23,-116.66 -435.72,-114.69 140.87,-117.73 263.65,-115.12 62.41,-114.93 L 920,3000.71 v 0 0 l 1631.48,42.84 -62.42,114.93 -263.65,115.12 -140.86,117.73 435.72,114.69 -145.24,116.66 -297.19,115.88 377.98,116.63 -11.09,116.91 -271.52,115.48 -88.66,114.72 349.1,116.12 -148.16,116.37 -139.99,116.5 437.77,114.82 -274.15,116.02 -71.46,119.07 -68.53,115.71 238.27,115.15 -138.53,116.31 -83.12,114.87 275.02,114.95 -156.61,116.72 -32.66,118.27 -275.9,116.38 424.63,119.67 -218.44,114.64 -54.83,115.24 407.14,115.8 -157.2,117.14 -196.57,114.95 392.56,116.33 -156.91,117.54 -202.4,115.04 -97.7,115.77 z"
         style="fill:none;stroke:#000000;stroke-width:5;stroke-linecap:butt;stroke-linejoin:miter;stroke-miterlimit:10;stroke-dasharray:none;stroke-opacity:1"
         id="path394"
         inkscape:connector-curvature="0" /><path
         d="m 920,7110 v 0 l 1215.88,-118.32 97.7,-115.77 202.4,-115.04 156.91,-117.54 -392.56,-116.33 196.57,-114.95 157.2,-117.14 -407.14,-115.8 54.83,-115.24 218.44,-114.64 -424.63,-119.67 275.9,-116.38 32.66,-118.27 156.61,-116.72 -275.02,-114.95 83.12,-114.87 138.53,-116.31 -238.27,-115.15 68.53,-115.71 71.46,-119.07 274.15,-116.02 -437.77,-114.82 139.99,-116.5 148.16,-116.37 -349.1,-116.12 88.66,-114.72 271.52,-115.48 11.09,-116.91 -377.98,-116.63 297.19,-115.88 145.24,-116.66 -435.72,-114.69 140.86,-117.73 263.65,-115.12 62.42,-114.93 L 920,3000.71 v 0 0 l 1701.47,42.84 -62.41,114.93 -263.65,115.12 -140.87,117.73 435.73,114.69 -145.25,116.66 -297.18,115.88 377.97,116.63 -11.08,116.91 -271.52,115.48 -88.67,114.72 349.1,116.12 -148.15,116.37 -139.99,116.5 437.76,114.82 -274.15,116.02 -71.45,119.07 -68.54,115.71 238.28,115.15 -138.53,116.31 -83.12,114.87 275.02,114.95 -156.61,116.72 -32.67,118.27 -275.9,116.38 424.64,119.67 -218.44,114.64 -54.83,115.24 407.14,115.8 -157.2,117.14 -196.57,114.95 392.56,116.33 -156.91,117.54 -202.41,115.04 -97.69,115.77 L 920,7110"
         style="fill:#80ffff;fill-opacity:1;fill-rule:nonzero;stroke:none"
         id="path396"
         inkscape:connector-curvature="0" /><path
         d="m 920,7110 v 0 l 1215.88,-118.32 97.7,-115.77 202.4,-115.04 156.91,-117.54 -392.56,-116.33 196.57,-114.95 157.2,-117.14 -407.14,-115.8 54.83,-115.24 218.44,-114.64 -424.63,-119.67 275.9,-116.38 32.66,-118.27 156.61,-116.72 -275.02,-114.95 83.12,-114.87 138.53,-116.31 -238.27,-115.15 68.53,-115.71 71.46,-119.07 274.15,-116.02 -437.77,-114.82 139.99,-116.5 148.16,-116.37 -349.1,-116.12 88.66,-114.72 271.52,-115.48 11.09,-116.91 -377.98,-116.63 297.19,-115.88 145.24,-116.66 -435.72,-114.69 140.86,-117.73 263.65,-115.12 62.42,-114.93 L 920,3000.71 v 0 0 l 1701.47,42.84 -62.41,114.93 -263.65,115.12 -140.87,117.73 435.73,114.69 -145.25,116.66 -297.18,115.88 377.97,116.63 -11.08,116.91 -271.52,115.48 -88.67,114.72 349.1,116.12 -148.15,116.37 -139.99,116.5 437.76,114.82 -274.15,116.02 -71.45,119.07 -68.54,115.71 238.28,115.15 -138.53,116.31 -83.12,114.87 275.02,114.95 -156.61,116.72 -32.67,118.27 -275.9,116.38 424.64,119.67 -218.44,114.64 -54.83,115.24 407.14,115.8 -157.2,117.14 -196.57,114.95 392.56,116.33 -156.91,117.54 -202.41,115.04 -97.69,115.77 z"
         style="fill:none;stroke:#000000;stroke-width:5;stroke-linecap:butt;stroke-linejoin:miter;stroke-miterlimit:10;stroke-dasharray:none;stroke-opacity:1"
         id="path398"
         inkscape:connector-curvature="0" /><path
         d="m 920,7110 v 0 l 1285.88,-118.32 97.69,-115.77 202.41,-115.04 156.91,-117.54 -392.56,-116.33 196.57,-114.95 157.2,-117.14 -407.14,-115.8 54.83,-115.24 218.44,-114.64 -424.64,-119.67 275.9,-116.38 32.67,-118.27 156.61,-116.72 -275.02,-114.95 83.12,-114.87 138.53,-116.31 -238.28,-115.15 68.54,-115.71 71.45,-119.07 274.15,-116.02 -437.76,-114.82 139.99,-116.5 148.15,-116.37 -349.1,-116.12 88.67,-114.72 271.52,-115.48 11.08,-116.91 -377.97,-116.63 297.18,-115.88 145.25,-116.66 -435.73,-114.69 140.87,-117.73 263.65,-115.12 62.41,-114.93 L 920,3000.71 v 0 0 l 1823.96,42.84 -74.07,114.93 -317.32,115.12 -172.36,117.73 526.72,114.69 -173.24,116.66 -357.85,115.88 452.63,116.63 -12.25,116.91 -328.68,115.48 -107.33,114.72 422.59,116.12 -177.32,116.37 -171.48,116.5 529.92,114.82 -331.31,116.02 -84.29,119.07 -87.2,115.71 288.44,115.15 -167.7,116.31 -97.12,114.87 328.69,114.95 -188.11,116.72 -39.67,118.27 -335.39,116.38 513.3,119.67 -261.61,114.64 -67.66,115.24 493.46,115.8 -188.69,117.14 -240.9,114.95 476.55,116.33 -187.24,117.54 -249.06,115.04 -117.54,115.77 L 920,7110"
         style="fill:#ff0080;fill-opacity:1;fill-rule:nonzero;stroke:none"
         id="path400"
         inkscape:connector-curvature="0" /><path
         d="m 920,7110 v 0 l 1285.88,-118.32 97.69,-115.77 202.41,-115.04 156.91,-117.54 -392.56,-116.33 196.57,-114.95 157.2,-117.14 -407.14,-115.8 54.83,-115.24 218.44,-114.64 -424.64,-119.67 275.9,-116.38 32.67,-118.27 156.61,-116.72 -275.02,-114.95 83.12,-114.87 138.53,-116.31 -238.28,-115.15 68.54,-115.71 71.45,-119.07 274.15,-116.02 -437.76,-114.82 139.99,-116.5 148.15,-116.37 -349.1,-116.12 88.67,-114.72 271.52,-115.48 11.08,-116.91 -377.97,-116.63 297.18,-115.88 145.25,-116.66 -435.73,-114.69 140.87,-117.73 263.65,-115.12 62.41,-114.93 L 920,3000.71 v 0 0 l 1823.96,42.84 -74.07,114.93 -317.32,115.12 -172.36,117.73 526.72,114.69 -173.24,116.66 -357.85,115.88 452.63,116.63 -12.25,116.91 -328.68,115.48 -107.33,114.72 422.59,116.12 -177.32,116.37 -171.48,116.5 529.92,114.82 -331.31,116.02 -84.29,119.07 -87.2,115.71 288.44,115.15 -167.7,116.31 -97.12,114.87 328.69,114.95 -188.11,116.72 -39.67,118.27 -335.39,116.38 513.3,119.67 -261.61,114.64 -67.66,115.24 493.46,115.8 -188.69,117.14 -240.9,114.95 476.55,116.33 -187.24,117.54 -249.06,115.04 -117.54,115.77 z"
         style="fill:none;stroke:#000000;stroke-width:5;stroke-linecap:butt;stroke-linejoin:miter;stroke-miterlimit:10;stroke-dasharray:none;stroke-opacity:1"
         id="path402"
         inkscape:connector-curvature="0" /><path
         d="m 920,7110 v 0 l 1320.87,-118.32 117.54,-115.77 249.06,-115.04 187.24,-117.54 -476.55,-116.33 240.9,-114.95 188.69,-117.14 -493.46,-115.8 67.66,-115.24 261.61,-114.64 -513.3,-119.67 335.39,-116.38 39.67,-118.27 188.11,-116.72 -328.69,-114.95 97.12,-114.87 167.7,-116.31 -288.44,-115.15 87.2,-115.71 84.29,-119.07 331.31,-116.02 -529.92,-114.82 171.48,-116.5 177.32,-116.37 -422.59,-116.12 107.33,-114.72 328.68,-115.48 12.25,-116.91 -452.63,-116.63 357.85,-115.88 173.24,-116.66 -526.72,-114.69 172.36,-117.73 317.32,-115.12 74.07,-114.93 L 920,3000.71 v 0 0 l 1900.96,42.84 -74.08,114.93 -317.31,115.12 -172.37,117.73 526.72,114.69 -173.24,116.66 -357.85,115.88 452.63,116.63 -12.24,116.91 -328.69,115.48 -107.33,114.72 422.6,116.12 -177.32,116.37 -171.49,116.5 529.92,114.82 -331.31,116.02 -84.28,119.07 -87.21,115.71 288.44,115.15 -167.69,116.31 -97.12,114.87 328.69,114.95 -188.12,116.72 -39.66,118.27 -335.4,116.38 513.3,119.67 -261.6,114.64 -67.67,115.24 493.47,115.8 -188.7,117.14 -240.9,114.95 476.56,116.33 -187.24,117.54 -249.07,115.04 -117.53,115.77 L 920,7110"
         style="fill:#ff8000;fill-opacity:1;fill-rule:nonzero;stroke:none"
         id="path404"
         inkscape:connector-curvature="0" /><path
         d="m 920,7110 v 0 l 1320.87,-118.32 117.54,-115.77 249.06,-115.04 187.24,-117.54 -476.55,-116.33 240.9,-114.95 188.69,-117.14 -493.46,-115.8 67.66,-115.24 261.61,-114.64 -513.3,-119.67 335.39,-116.38 39.67,-118.27 188.11,-116.72 -328.69,-114.95 97.12,-114.87 167.7,-116.31 -288.44,-115.15 87.2,-115.71 84.29,-119.07 331.31,-116.02 -529.92,-114.82 171.48,-116.5 177.32,-116.37 -422.59,-116.12 107.33,-114.72 328.68,-115.48 12.25,-116.91 -452.63,-116.63 357.85,-115.88 173.24,-116.66 -526.72,-114.69 172.36,-117.73 317.32,-115.12 74.07,-114.93 L 920,3000.71 v 0 0 l 1900.96,42.84 -74.08,114.93 -317.31,115.12 -172.37,117.73 526.72,114.69 -173.24,116.66 -357.85,115.88 452.63,116.63 -12.24,116.91 -328.69,115.48 -107.33,114.72 422.6,116.12 -177.32,116.37 -171.49,116.5 529.92,114.82 -331.31,116.02 -84.28,119.07 -87.21,115.71 288.44,115.15 -167.69,116.31 -97.12,114.87 328.69,114.95 -188.12,116.72 -39.66,118.27 -335.4,116.38 513.3,119.67 -261.6,114.64 -67.67,115.24 493.47,115.8 -188.7,117.14 -240.9,114.95 476.56,116.33 -187.24,117.54 -249.07,115.04 -117.53,115.77 z"
         style="fill:none;stroke:#000000;stroke-width:5;stroke-linecap:butt;stroke-linejoin:miter;stroke-miterlimit:10;stroke-dasharray:none;stroke-opacity:1"
         id="path406"
         inkscape:connector-curvature="0" /><path
         d="m 920,7110 v 0 l 1397.87,-118.32 117.53,-115.77 249.07,-115.04 187.24,-117.54 -476.56,-116.33 240.9,-114.95 188.7,-117.14 -493.47,-115.8 67.67,-115.24 261.6,-114.64 -513.3,-119.67 335.4,-116.38 39.66,-118.27 188.12,-116.72 -328.69,-114.95 97.12,-114.87 167.69,-116.31 -288.44,-115.15 87.21,-115.71 84.28,-119.07 331.31,-116.02 -529.92,-114.82 171.49,-116.5 177.32,-116.37 -422.6,-116.12 107.33,-114.72 328.69,-115.48 12.24,-116.91 -452.63,-116.63 357.85,-115.88 173.24,-116.66 -526.72,-114.69 172.37,-117.73 317.31,-115.12 74.08,-114.93 L 920,3000.71 v 0 0 l 1981.45,42.84 -74.07,114.93 -317.32,115.12 -172.36,117.73 526.71,114.69 -173.23,116.66 -357.86,115.88 452.64,116.63 -12.25,116.91 -328.69,115.48 -107.32,114.72 422.6,116.12 -177.32,116.37 -171.5,116.5 529.93,114.82 -331.31,116.02 -84.29,119.07 -87.2,115.71 288.44,115.15 -167.7,116.31 -97.12,114.87 328.69,114.95 -188.12,116.72 -39.66,118.27 -335.39,116.38 513.3,119.67 -261.61,114.64 -67.66,115.24 493.47,115.8 -188.7,117.14 -240.9,114.95 476.55,116.33 -187.24,117.54 -249.07,115.04 -117.53,115.77 L 920,7110"
         style="fill:#ff80ff;fill-opacity:1;fill-rule:nonzero;stroke:none"
         id="path408"
         inkscape:connector-curvature="0" /><path
         d="m 920,7110 v 0 l 1397.87,-118.32 117.53,-115.77 249.07,-115.04 187.24,-117.54 -476.56,-116.33 240.9,-114.95 188.7,-117.14 -493.47,-115.8 67.67,-115.24 261.6,-114.64 -513.3,-119.67 335.4,-116.38 39.66,-118.27 188.12,-116.72 -328.69,-114.95 97.12,-114.87 167.69,-116.31 -288.44,-115.15 87.21,-115.71 84.28,-119.07 331.31,-116.02 -529.92,-114.82 171.49,-116.5 177.32,-116.37 -422.6,-116.12 107.33,-114.72 328.69,-115.48 12.24,-116.91 -452.63,-116.63 357.85,-115.88 173.24,-116.66 -526.72,-114.69 172.37,-117.73 317.31,-115.12 74.08,-114.93 L 920,3000.71 v 0 0 l 1981.45,42.84 -74.07,114.93 -317.32,115.12 -172.36,117.73 526.71,114.69 -173.23,116.66 -357.86,115.88 452.64,116.63 -12.25,116.91 -328.69,115.48 -107.32,114.72 422.6,116.12 -177.32,116.37 -171.5,116.5 529.93,114.82 -331.31,116.02 -84.29,119.07 -87.2,115.71 288.44,115.15 -167.7,116.31 -97.12,114.87 328.69,114.95 -188.12,116.72 -39.66,118.27 -335.39,116.38 513.3,119.67 -261.61,114.64 -67.66,115.24 493.47,115.8 -188.7,117.14 -240.9,114.95 476.55,116.33 -187.24,117.54 -249.07,115.04 -117.53,115.77 z"
         style="fill:none;stroke:#000000;stroke-width:5;stroke-linecap:butt;stroke-linejoin:miter;stroke-miterlimit:10;stroke-dasharray:none;stroke-opacity:1"
         id="path410"
         inkscape:connector-curvature="0" /><path
         d="m 920,7110 v 0 l 1478.36,-118.32 117.53,-115.77 249.07,-115.04 187.24,-117.54 -476.55,-116.33 240.9,-114.95 188.7,-117.14 -493.47,-115.8 67.66,-115.24 261.61,-114.64 -513.3,-119.67 335.39,-116.38 39.66,-118.27 188.12,-116.72 -328.69,-114.95 97.12,-114.87 167.7,-116.31 -288.44,-115.15 87.2,-115.71 84.29,-119.07 331.31,-116.02 -529.93,-114.82 171.5,-116.5 177.32,-116.37 -422.6,-116.12 107.32,-114.72 328.69,-115.48 12.25,-116.91 -452.64,-116.63 357.86,-115.88 173.23,-116.66 -526.71,-114.69 172.36,-117.73 317.32,-115.12 74.07,-114.93 L 920,3000.71 v 0 0 l 3769.25,42.84 -74.07,114.93 -317.32,115.12 -172.36,117.73 526.71,114.69 -173.23,116.66 -506.6,115.88 452.64,116.63 136.49,116.91 -328.69,115.48 -107.32,114.72 422.6,116.12 -177.33,116.37 -171.48,116.5 529.92,114.82 -331.31,116.02 -84.29,119.07 -235.94,115.71 437.18,115.15 -167.7,116.31 -97.12,114.87 328.69,114.95 -188.11,116.72 -39.67,118.27 -632.87,116.38 810.78,119.67 -261.61,114.64 -67.66,115.24 493.46,115.8 -188.69,117.14 L 4263.45,6527 4740,6643.33 4552.76,6760.87 4303.7,6875.91 4186.16,6991.68 920,7110"
         style="fill:#ffff80;fill-opacity:1;fill-rule:nonzero;stroke:none"
         id="path412"
         inkscape:connector-curvature="0" /><path
         d="m 920,7110 v 0 l 1478.36,-118.32 117.53,-115.77 249.07,-115.04 187.24,-117.54 -476.55,-116.33 240.9,-114.95 188.7,-117.14 -493.47,-115.8 67.66,-115.24 261.61,-114.64 -513.3,-119.67 335.39,-116.38 39.66,-118.27 188.12,-116.72 -328.69,-114.95 97.12,-114.87 167.7,-116.31 -288.44,-115.15 87.2,-115.71 84.29,-119.07 331.31,-116.02 -529.93,-114.82 171.5,-116.5 177.32,-116.37 -422.6,-116.12 107.32,-114.72 328.69,-115.48 12.25,-116.91 -452.64,-116.63 357.86,-115.88 173.23,-116.66 -526.71,-114.69 172.36,-117.73 317.32,-115.12 74.07,-114.93 L 920,3000.71 v 0 0 l 3769.25,42.84 -74.07,114.93 -317.32,115.12 -172.36,117.73 526.71,114.69 -173.23,116.66 -506.6,115.88 452.64,116.63 136.49,116.91 -328.69,115.48 -107.32,114.72 422.6,116.12 -177.33,116.37 -171.48,116.5 529.92,114.82 -331.31,116.02 -84.29,119.07 -235.94,115.71 437.18,115.15 -167.7,116.31 -97.12,114.87 328.69,114.95 -188.11,116.72 -39.67,118.27 -632.87,116.38 810.78,119.67 -261.61,114.64 -67.66,115.24 493.46,115.8 -188.69,117.14 -240.9,114.95 476.55,116.33 -187.24,117.54 -249.06,115.04 -117.54,115.77 z"
         style="fill:none;stroke:#000000;stroke-width:5;stroke-linecap:butt;stroke-linejoin:miter;stroke-miterlimit:10;stroke-dasharray:none;stroke-opacity:1"
         id="path414"
         inkscape:connector-curvature="0" /></g></g></svg>